STARTFONT 2.1
COMMENT
COMMENT Converted from OpenType font "montserrat.ttf" by "otf2bdf 3.0".
COMMENT
FONT -FreeType-Montserrat Thin-Medium-R-Normal--22-160-100-100-P-111-ISO10646-1
SIZE 16 100 100
FONTBOUNDINGBOX 37 29 -3 -6
STARTPROPERTIES 19
FOUNDRY "FreeType"
FAMILY_NAME "Montserrat Thin"
WEIGHT_NAME "Medium"
SLANT "R"
SETWIDTH_NAME "Normal"
ADD_STYLE_NAME ""
PIXEL_SIZE 22
POINT_SIZE 160
RESOLUTION_X 100
RESOLUTION_Y 100
SPACING "P"
AVERAGE_WIDTH 111
CHARSET_REGISTRY "ISO10646"
CHARSET_ENCODING "1"
FONT_ASCENT 21
FONT_DESCENT 5
COPYRIGHT "Copyright 2011 The Montserrat Project Authors (https://github.com/JulietaUla/Montserrat)"
_OTF_FONTFILE "montserrat.ttf"
_OTF_PSNAME "Montserrat-Thin"
ENDPROPERTIES
CHARS 969
STARTCHAR 0000
ENCODING 0
SWIDTH 0 0
DWIDTH 0 0
BBX 0 0 0 0
BITMAP
ENDCHAR
STARTCHAR 000D
ENCODING 13
SWIDTH 225 0
DWIDTH 5 0
BBX 0 0 0 0
BITMAP
ENDCHAR
STARTCHAR 0020
ENCODING 32
SWIDTH 225 0
DWIDTH 5 0
BBX 0 0 0 0
BITMAP
ENDCHAR
STARTCHAR 0021
ENCODING 33
SWIDTH 225 0
DWIDTH 5 0
BBX 1 16 2 0
BITMAP
80
80
80
80
80
80
80
80
80
80
80
00
00
00
00
80
ENDCHAR
STARTCHAR 0022
ENCODING 34
SWIDTH 315 0
DWIDTH 7 0
BBX 4 6 2 10
BITMAP
10
90
90
90
90
10
ENDCHAR
STARTCHAR 0023
ENCODING 35
SWIDTH 675 0
DWIDTH 15 0
BBX 13 16 1 0
BITMAP
0820
0820
0840
1040
1040
FFF8
1040
1040
1040
1040
1080
7FF0
2080
2080
2080
0080
ENDCHAR
STARTCHAR 0024
ENCODING 36
SWIDTH 585 0
DWIDTH 13 0
BBX 11 21 1 -3
BITMAP
0400
0400
0E00
35C0
4400
8400
8400
8400
4400
3400
0F00
04C0
0420
0420
0420
0420
4440
3580
0E00
0400
0400
ENDCHAR
STARTCHAR 0025
ENCODING 37
SWIDTH 765 0
DWIDTH 17 0
BBX 16 16 1 0
BITMAP
1000
6C08
8410
8220
8220
8240
8480
4480
393C
0242
0241
0481
0841
0842
1042
003C
ENDCHAR
STARTCHAR 0026
ENCODING 38
SWIDTH 630 0
DWIDTH 14 0
BBX 13 16 1 0
BITMAP
0600
1900
2080
2080
2100
1100
1600
0800
3400
4200
8110
80A0
8060
8020
40D0
3F08
ENDCHAR
STARTCHAR 0027
ENCODING 39
SWIDTH 180 0
DWIDTH 4 0
BBX 1 4 2 11
BITMAP
80
80
80
80
ENDCHAR
STARTCHAR 0028
ENCODING 40
SWIDTH 270 0
DWIDTH 6 0
BBX 2 18 3 -3
BITMAP
40
80
80
80
80
80
80
80
80
80
80
80
80
80
80
80
80
40
ENDCHAR
STARTCHAR 0029
ENCODING 41
SWIDTH 270 0
DWIDTH 6 0
BBX 2 18 2 -3
BITMAP
80
80
80
40
40
40
40
40
40
40
40
40
40
40
40
80
80
80
ENDCHAR
STARTCHAR 002A
ENCODING 42
SWIDTH 315 0
DWIDTH 7 0
BBX 5 5 1 10
BITMAP
20
68
30
E8
20
ENDCHAR
STARTCHAR 002B
ENCODING 43
SWIDTH 540 0
DWIDTH 12 0
BBX 7 7 3 4
BITMAP
20
20
20
FE
20
20
20
ENDCHAR
STARTCHAR 002C
ENCODING 44
SWIDTH 180 0
DWIDTH 4 0
BBX 2 3 1 -3
BITMAP
C0
80
80
ENDCHAR
STARTCHAR 002D
ENCODING 45
SWIDTH 360 0
DWIDTH 8 0
BBX 4 1 2 5
BITMAP
F0
ENDCHAR
STARTCHAR 002E
ENCODING 46
SWIDTH 180 0
DWIDTH 4 0
BBX 2 1 1 0
BITMAP
C0
ENDCHAR
STARTCHAR 002F
ENCODING 47
SWIDTH 270 0
DWIDTH 6 0
BBX 7 19 0 -1
BITMAP
02
02
04
04
04
08
08
10
10
10
20
20
20
40
40
40
80
80
80
ENDCHAR
STARTCHAR 0030
ENCODING 48
SWIDTH 630 0
DWIDTH 14 0
BBX 12 16 1 0
BITMAP
0600
19C0
2020
4020
8010
8010
8010
8010
8010
8010
8010
8010
4020
4020
2040
1F80
ENDCHAR
STARTCHAR 0031
ENCODING 49
SWIDTH 315 0
DWIDTH 7 0
BBX 5 16 0 0
BITMAP
F8
08
08
08
08
08
08
08
08
08
08
08
08
08
08
08
ENDCHAR
STARTCHAR 0032
ENCODING 50
SWIDTH 540 0
DWIDTH 12 0
BBX 10 16 1 0
BITMAP
1C00
E300
0080
0080
0040
0080
0080
0100
0100
0200
0400
0800
1000
2000
4000
FF80
ENDCHAR
STARTCHAR 0033
ENCODING 51
SWIDTH 540 0
DWIDTH 12 0
BBX 10 16 1 0
BITMAP
FF80
0080
0100
0200
0400
0400
0800
0C00
0300
0080
0040
0040
0040
0040
8080
7F00
ENDCHAR
STARTCHAR 0034
ENCODING 52
SWIDTH 630 0
DWIDTH 14 0
BBX 12 14 1 1
BITMAP
0180
0100
0200
0400
0800
1000
2000
2080
4080
8080
7FF0
0080
0080
0080
ENDCHAR
STARTCHAR 0035
ENCODING 53
SWIDTH 540 0
DWIDTH 12 0
BBX 10 16 1 0
BITMAP
3F80
4000
4000
4000
8000
8000
8000
7E00
0180
0040
0040
0040
0040
0040
8080
7F00
ENDCHAR
STARTCHAR 0036
ENCODING 54
SWIDTH 585 0
DWIDTH 13 0
BBX 11 16 1 0
BITMAP
0380
1C00
2000
4000
8000
8000
8000
8F80
B040
C020
C020
8020
4020
4020
2040
1F80
ENDCHAR
STARTCHAR 0037
ENCODING 55
SWIDTH 540 0
DWIDTH 12 0
BBX 11 16 1 0
BITMAP
FFE0
8040
8040
0080
0080
0100
0100
0100
0200
0200
0400
0400
0800
0800
1000
1000
ENDCHAR
STARTCHAR 0038
ENCODING 56
SWIDTH 585 0
DWIDTH 13 0
BBX 12 16 1 0
BITMAP
0E00
31C0
4020
8020
8020
8020
4040
3080
2F40
4020
8020
8010
8010
8020
4020
3FC0
ENDCHAR
STARTCHAR 0039
ENCODING 57
SWIDTH 585 0
DWIDTH 13 0
BBX 11 16 1 0
BITMAP
0C00
6300
8080
8040
8040
8020
8060
80A0
4120
3E20
0020
0040
0040
0080
0080
7F00
ENDCHAR
STARTCHAR 003A
ENCODING 58
SWIDTH 180 0
DWIDTH 4 0
BBX 2 1 1 11
BITMAP
C0
ENDCHAR
STARTCHAR 003B
ENCODING 59
SWIDTH 180 0
DWIDTH 4 0
BBX 2 3 1 8
BITMAP
C0
80
80
ENDCHAR
STARTCHAR 003C
ENCODING 60
SWIDTH 540 0
DWIDTH 12 0
BBX 9 8 2 4
BITMAP
0080
0300
1C00
6000
8000
6000
1C00
0300
ENDCHAR
STARTCHAR 003D
ENCODING 61
SWIDTH 540 0
DWIDTH 12 0
BBX 9 5 2 5
BITMAP
7F00
0000
0000
0000
FF80
ENDCHAR
STARTCHAR 003E
ENCODING 62
SWIDTH 540 0
DWIDTH 12 0
BBX 9 7 2 5
BITMAP
6000
1800
0700
0080
0700
1800
E000
ENDCHAR
STARTCHAR 003F
ENCODING 63
SWIDTH 540 0
DWIDTH 12 0
BBX 9 16 1 0
BITMAP
1C00
E300
0080
0080
0080
0080
0080
0100
0200
0400
0800
0000
0000
0000
0000
0800
ENDCHAR
STARTCHAR 0040
ENCODING 64
SWIDTH 990 0
DWIDTH 22 0
BBX 21 20 1 -4
BITMAP
007000
078E00
080180
300040
202020
41DD10
820310
840110
880110
880108
880108
880108
840110
840110
420710
4188A0
207040
100000
080000
07FE00
ENDCHAR
STARTCHAR 0041
ENCODING 65
SWIDTH 675 0
DWIDTH 15 0
BBX 15 16 0 0
BITMAP
0100
0300
0280
0280
0440
0440
0820
0820
1010
1010
2008
2FF8
4008
4004
8004
8002
ENDCHAR
STARTCHAR 0042
ENCODING 66
SWIDTH 720 0
DWIDTH 16 0
BBX 12 16 3 0
BITMAP
FE00
81C0
8020
8020
8020
8020
8020
8040
FFC0
8020
8010
8010
8010
8010
8020
FFC0
ENDCHAR
STARTCHAR 0043
ENCODING 67
SWIDTH 675 0
DWIDTH 15 0
BBX 13 16 1 0
BITMAP
01C0
0E38
3000
4000
4000
8000
8000
8000
8000
8000
8000
8000
4000
2000
1008
0FF0
ENDCHAR
STARTCHAR 0044
ENCODING 68
SWIDTH 810 0
DWIDTH 18 0
BBX 14 16 3 0
BITMAP
FE00
81C0
8030
8008
8008
8004
8004
8004
8004
8004
8004
8008
8008
8010
8020
FFC0
ENDCHAR
STARTCHAR 0045
ENCODING 69
SWIDTH 630 0
DWIDTH 14 0
BBX 10 16 3 0
BITMAP
FFC0
8000
8000
8000
8000
8000
8000
8000
FF00
8000
8000
8000
8000
8000
8000
FF80
ENDCHAR
STARTCHAR 0046
ENCODING 70
SWIDTH 585 0
DWIDTH 13 0
BBX 10 15 3 0
BITMAP
FFC0
8000
8000
8000
8000
8000
8000
8000
FF80
8000
8000
8000
8000
8000
8000
ENDCHAR
STARTCHAR 0047
ENCODING 71
SWIDTH 765 0
DWIDTH 17 0
BBX 14 16 1 0
BITMAP
01C0
0E38
3004
4000
4000
8000
8000
8000
8004
8004
8004
8004
4004
2004
1008
0FF0
ENDCHAR
STARTCHAR 0048
ENCODING 72
SWIDTH 810 0
DWIDTH 18 0
BBX 12 14 3 1
BITMAP
8010
8010
8010
8010
8010
8010
8010
FFF0
8010
8010
8010
8010
8010
8010
ENDCHAR
STARTCHAR 0049
ENCODING 73
SWIDTH 270 0
DWIDTH 6 0
BBX 1 14 3 1
BITMAP
80
80
80
80
80
80
80
80
80
80
80
80
80
80
ENDCHAR
STARTCHAR 004A
ENCODING 74
SWIDTH 450 0
DWIDTH 10 0
BBX 8 16 0 0
BITMAP
3F
01
01
01
01
01
01
01
01
01
01
01
01
01
82
7C
ENDCHAR
STARTCHAR 004B
ENCODING 75
SWIDTH 675 0
DWIDTH 15 0
BBX 12 15 3 1
BITMAP
8020
8040
8080
8100
8200
8400
8800
9800
A400
C200
8100
8080
8040
8020
0010
ENDCHAR
STARTCHAR 004C
ENCODING 76
SWIDTH 540 0
DWIDTH 12 0
BBX 9 15 3 1
BITMAP
8000
8000
8000
8000
8000
8000
8000
8000
8000
8000
8000
8000
8000
8000
7F80
ENDCHAR
STARTCHAR 004D
ENCODING 77
SWIDTH 945 0
DWIDTH 21 0
BBX 15 14 3 1
BITMAP
8002
C006
C006
A00A
A012
9012
9022
8822
8442
8442
8282
8302
8102
8002
ENDCHAR
STARTCHAR 004E
ENCODING 78
SWIDTH 810 0
DWIDTH 18 0
BBX 12 15 3 1
BITMAP
8010
C010
A010
A010
9010
8810
8410
8210
8210
8110
8090
8050
8050
8030
0010
ENDCHAR
STARTCHAR 004F
ENCODING 79
SWIDTH 810 0
DWIDTH 18 0
BBX 16 16 1 0
BITMAP
01C0
0E38
3004
4002
4002
8001
8001
8001
8001
8001
8001
8001
4002
2004
1008
0FF0
ENDCHAR
STARTCHAR 0050
ENCODING 80
SWIDTH 675 0
DWIDTH 15 0
BBX 11 15 3 0
BITMAP
FC00
8380
8040
8020
8020
8020
8020
8020
8040
8080
FF00
8000
8000
8000
8000
ENDCHAR
STARTCHAR 0051
ENCODING 81
SWIDTH 810 0
DWIDTH 18 0
BBX 17 19 1 -3
BITMAP
01C000
0E3800
300400
400200
400200
800100
800100
800100
800100
800100
800100
800100
400200
200400
100800
0E3000
01C000
002080
001F00
ENDCHAR
STARTCHAR 0052
ENCODING 82
SWIDTH 675 0
DWIDTH 15 0
BBX 11 16 3 0
BITMAP
FC00
8380
8040
8020
8020
8020
8020
8020
8040
8080
FF00
8100
8080
8040
8040
0020
ENDCHAR
STARTCHAR 0053
ENCODING 83
SWIDTH 585 0
DWIDTH 13 0
BBX 11 16 1 0
BITMAP
0E00
31C0
4000
8000
8000
8000
4000
3000
0F00
00C0
0020
0020
0020
0020
4040
3F80
ENDCHAR
STARTCHAR 0054
ENCODING 84
SWIDTH 540 0
DWIDTH 12 0
BBX 12 15 0 0
BITMAP
FFF0
0400
0400
0400
0400
0400
0400
0400
0400
0400
0400
0400
0400
0400
0400
ENDCHAR
STARTCHAR 0055
ENCODING 85
SWIDTH 765 0
DWIDTH 17 0
BBX 12 16 3 0
BITMAP
0010
8010
8010
8010
8010
8010
8010
8010
8010
8010
8010
8010
8020
8020
4040
3F80
ENDCHAR
STARTCHAR 0056
ENCODING 86
SWIDTH 630 0
DWIDTH 14 0
BBX 15 16 0 0
BITMAP
8002
8004
4004
4008
2008
2010
2010
1020
1020
0820
0840
0440
0480
0280
0300
0100
ENDCHAR
STARTCHAR 0057
ENCODING 87
SWIDTH 1080 0
DWIDTH 24 0
BBX 22 16 1 0
BITMAP
800000
803004
803008
405008
404808
408810
208810
208410
210420
110420
110220
120240
0A0240
0A0140
0C0180
040080
ENDCHAR
STARTCHAR 0058
ENCODING 88
SWIDTH 585 0
DWIDTH 13 0
BBX 12 16 1 0
BITMAP
8010
8020
4040
2040
1080
1100
0A00
0600
0600
0A00
1100
2080
2040
4040
8020
8010
ENDCHAR
STARTCHAR 0059
ENCODING 89
SWIDTH 585 0
DWIDTH 13 0
BBX 13 15 0 0
BITMAP
8000
8008
4010
2020
2020
1040
1040
0880
0500
0500
0200
0200
0200
0200
0200
ENDCHAR
STARTCHAR 005A
ENCODING 90
SWIDTH 630 0
DWIDTH 14 0
BBX 12 16 1 0
BITMAP
FFF0
0010
0020
0040
0080
0100
0100
0200
0400
0800
0800
1000
2000
4000
4000
FFE0
ENDCHAR
STARTCHAR 005B
ENCODING 91
SWIDTH 270 0
DWIDTH 6 0
BBX 2 20 3 -4
BITMAP
C0
80
80
80
80
80
80
80
80
80
80
80
80
80
80
80
80
80
80
C0
ENDCHAR
STARTCHAR 005C
ENCODING 92
SWIDTH 270 0
DWIDTH 6 0
BBX 8 21 -1 -2
BITMAP
80
80
40
40
40
20
20
20
10
10
10
08
08
08
04
04
04
02
02
01
01
ENDCHAR
STARTCHAR 005D
ENCODING 93
SWIDTH 270 0
DWIDTH 6 0
BBX 1 20 2 -4
BITMAP
80
80
80
80
80
80
80
80
80
80
80
80
80
80
80
80
80
80
80
80
ENDCHAR
STARTCHAR 005E
ENCODING 94
SWIDTH 540 0
DWIDTH 12 0
BBX 8 9 2 3
BITMAP
08
18
24
24
44
42
42
81
80
ENDCHAR
STARTCHAR 005F
ENCODING 95
SWIDTH 495 0
DWIDTH 11 0
BBX 9 1 1 -1
BITMAP
FF80
ENDCHAR
STARTCHAR 0060
ENCODING 96
SWIDTH 585 0
DWIDTH 13 0
BBX 4 3 4 13
BITMAP
80
40
30
ENDCHAR
STARTCHAR 0061
ENCODING 97
SWIDTH 540 0
DWIDTH 12 0
BBX 9 12 1 0
BITMAP
0C00
7300
0080
0080
0080
0080
7F80
8080
8080
8080
8180
7E00
ENDCHAR
STARTCHAR 0062
ENCODING 98
SWIDTH 630 0
DWIDTH 14 0
BBX 11 15 3 1
BITMAP
8000
8000
8000
8C00
B300
C080
8040
8040
8020
8020
8020
8040
8040
C080
3F00
ENDCHAR
STARTCHAR 0063
ENCODING 99
SWIDTH 540 0
DWIDTH 12 0
BBX 10 12 1 0
BITMAP
0600
3980
4000
8000
8000
8000
8000
8000
8000
4000
2040
1F80
ENDCHAR
STARTCHAR 0064
ENCODING 100
SWIDTH 630 0
DWIDTH 14 0
BBX 11 15 1 1
BITMAP
0020
0020
0020
0620
39A0
4060
8020
8020
8020
8020
8020
8020
4060
2060
1F80
ENDCHAR
STARTCHAR 0065
ENCODING 101
SWIDTH 585 0
DWIDTH 13 0
BBX 11 12 1 0
BITMAP
0400
3B80
4040
8040
8020
8020
FFC0
8000
8000
4000
2040
1F80
ENDCHAR
STARTCHAR 0066
ENCODING 102
SWIDTH 270 0
DWIDTH 6 0
BBX 6 16 2 0
BITMAP
10
6C
80
80
80
80
F0
80
80
80
80
80
80
80
80
80
ENDCHAR
STARTCHAR 0067
ENCODING 103
SWIDTH 675 0
DWIDTH 15 0
BBX 11 16 1 -4
BITMAP
0600
3980
4060
8020
8020
8020
8020
8020
8020
4060
20A0
1F20
0020
0020
4020
3FC0
ENDCHAR
STARTCHAR 0068
ENCODING 104
SWIDTH 630 0
DWIDTH 14 0
BBX 9 14 3 1
BITMAP
8000
8000
8000
8C00
F300
8080
8080
8080
8080
8080
8080
8080
8080
8080
ENDCHAR
STARTCHAR 0069
ENCODING 105
SWIDTH 225 0
DWIDTH 5 0
BBX 1 15 2 0
BITMAP
80
00
00
00
00
00
80
80
80
80
80
80
80
80
80
ENDCHAR
STARTCHAR 006A
ENCODING 106
SWIDTH 225 0
DWIDTH 5 0
BBX 5 20 -2 -4
BITMAP
08
00
00
00
00
00
08
08
08
08
08
08
08
08
08
08
08
08
08
F0
ENDCHAR
STARTCHAR 006B
ENCODING 107
SWIDTH 540 0
DWIDTH 12 0
BBX 9 15 3 1
BITMAP
8000
8000
8000
8000
8100
8200
8C00
9000
B000
C800
8400
8400
8200
8100
0080
ENDCHAR
STARTCHAR 006C
ENCODING 108
SWIDTH 225 0
DWIDTH 5 0
BBX 1 14 2 1
BITMAP
80
80
80
80
80
80
80
80
80
80
80
80
80
80
ENDCHAR
STARTCHAR 006D
ENCODING 109
SWIDTH 1035 0
DWIDTH 23 0
BBX 18 11 3 0
BITMAP
080600
773980
80C040
80C040
808040
808040
808040
808040
808040
808040
808040
ENDCHAR
STARTCHAR 006E
ENCODING 110
SWIDTH 630 0
DWIDTH 14 0
BBX 9 11 3 0
BITMAP
0C00
7300
8080
8080
8080
8080
8080
8080
8080
8080
8080
ENDCHAR
STARTCHAR 006F
ENCODING 111
SWIDTH 585 0
DWIDTH 13 0
BBX 11 12 1 0
BITMAP
0600
3980
4040
8020
8020
8020
8020
8020
8020
4040
2040
1F80
ENDCHAR
STARTCHAR 0070
ENCODING 112
SWIDTH 630 0
DWIDTH 14 0
BBX 11 15 3 -4
BITMAP
0C00
3300
C080
8040
8040
8020
8020
8020
8040
8040
C080
B300
8C00
8000
8000
ENDCHAR
STARTCHAR 0071
ENCODING 113
SWIDTH 630 0
DWIDTH 14 0
BBX 11 15 1 -4
BITMAP
0600
3980
4060
8020
8020
8020
8020
8020
8020
4060
4060
39A0
0620
0020
0020
ENDCHAR
STARTCHAR 0072
ENCODING 114
SWIDTH 360 0
DWIDTH 8 0
BBX 5 11 3 0
BITMAP
08
70
80
80
80
80
80
80
80
80
80
ENDCHAR
STARTCHAR 0073
ENCODING 115
SWIDTH 450 0
DWIDTH 10 0
BBX 8 12 1 0
BITMAP
18
67
80
80
80
40
3C
03
01
01
01
FE
ENDCHAR
STARTCHAR 0074
ENCODING 116
SWIDTH 360 0
DWIDTH 8 0
BBX 5 13 2 1
BITMAP
80
80
F0
80
80
80
80
80
80
80
80
80
78
ENDCHAR
STARTCHAR 0075
ENCODING 117
SWIDTH 630 0
DWIDTH 14 0
BBX 10 11 2 0
BITMAP
8000
8040
8040
8040
8040
8040
8040
8040
8040
40C0
3F00
ENDCHAR
STARTCHAR 0076
ENCODING 118
SWIDTH 495 0
DWIDTH 11 0
BBX 10 11 1 0
BITMAP
0040
8080
8080
8100
4100
4200
2200
2400
1400
1400
0800
ENDCHAR
STARTCHAR 0077
ENCODING 119
SWIDTH 810 0
DWIDTH 18 0
BBX 18 11 0 0
BITMAP
004000
80C040
412080
412080
212100
221100
221100
140A00
140A00
0C0A00
080400
ENDCHAR
STARTCHAR 0078
ENCODING 120
SWIDTH 495 0
DWIDTH 11 0
BBX 9 11 1 0
BITMAP
8180
4100
2200
1400
1800
1800
1400
2200
4200
8100
8080
ENDCHAR
STARTCHAR 0079
ENCODING 121
SWIDTH 495 0
DWIDTH 11 0
BBX 12 15 -1 -4
BITMAP
0010
2020
2020
2040
1040
1080
0880
0900
0500
0500
0200
0200
0400
0400
F800
ENDCHAR
STARTCHAR 007A
ENCODING 122
SWIDTH 450 0
DWIDTH 10 0
BBX 8 11 1 0
BITMAP
7F
02
02
04
08
10
10
20
40
80
FF
ENDCHAR
STARTCHAR 007B
ENCODING 123
SWIDTH 270 0
DWIDTH 6 0
BBX 4 20 2 -4
BITMAP
60
40
40
40
40
40
40
40
40
80
40
40
40
40
40
40
40
40
40
70
ENDCHAR
STARTCHAR 007C
ENCODING 124
SWIDTH 270 0
DWIDTH 6 0
BBX 1 18 3 -3
BITMAP
80
80
80
80
80
80
80
80
80
80
80
80
80
80
80
80
80
80
ENDCHAR
STARTCHAR 007D
ENCODING 125
SWIDTH 270 0
DWIDTH 6 0
BBX 2 20 2 -4
BITMAP
80
80
80
80
80
80
80
80
80
40
40
80
80
80
80
80
80
80
80
80
ENDCHAR
STARTCHAR 007E
ENCODING 126
SWIDTH 540 0
DWIDTH 12 0
BBX 9 3 2 6
BITMAP
F080
8900
0600
ENDCHAR
STARTCHAR 00A0
ENCODING 160
SWIDTH 225 0
DWIDTH 5 0
BBX 0 0 0 0
BITMAP
ENDCHAR
STARTCHAR 00A1
ENCODING 161
SWIDTH 225 0
DWIDTH 5 0
BBX 1 15 2 -3
BITMAP
80
80
00
00
00
00
80
80
80
80
80
80
80
80
80
ENDCHAR
STARTCHAR 00A2
ENCODING 162
SWIDTH 540 0
DWIDTH 12 0
BBX 10 15 1 -2
BITMAP
0400
0600
3D80
4400
8400
8400
8400
8400
8400
8400
4400
2440
1D80
0600
0400
ENDCHAR
STARTCHAR 00A3
ENCODING 163
SWIDTH 585 0
DWIDTH 13 0
BBX 11 16 2 0
BITMAP
0700
18E0
2000
4000
4000
4000
4000
4000
FE00
4000
4000
4000
4000
4000
4000
FFC0
ENDCHAR
STARTCHAR 00A4
ENCODING 164
SWIDTH 675 0
DWIDTH 15 0
BBX 14 14 1 0
BITMAP
8004
4F88
3070
4010
4008
8008
8008
8008
8008
4010
4010
2030
5DC8
8204
ENDCHAR
STARTCHAR 00A5
ENCODING 165
SWIDTH 630 0
DWIDTH 14 0
BBX 15 16 0 0
BITMAP
8002
4004
4008
2010
1010
0820
0840
0480
0300
1DF0
0100
0100
3FF8
0100
0100
0100
ENDCHAR
STARTCHAR 00A6
ENCODING 166
SWIDTH 270 0
DWIDTH 6 0
BBX 1 18 3 -3
BITMAP
80
80
80
80
80
00
00
00
00
00
00
00
00
80
80
80
80
80
ENDCHAR
STARTCHAR 00A7
ENCODING 167
SWIDTH 450 0
DWIDTH 10 0
BBX 9 18 1 -2
BITMAP
1C00
6380
8000
8000
8000
4000
7800
8700
8100
8080
8100
6100
1E00
0200
0100
0100
0100
FE00
ENDCHAR
STARTCHAR 00A8
ENCODING 168
SWIDTH 585 0
DWIDTH 13 0
BBX 5 1 4 14
BITMAP
88
ENDCHAR
STARTCHAR 00A9
ENCODING 169
SWIDTH 810 0
DWIDTH 18 0
BBX 16 16 1 0
BITMAP
01C0
0E30
300C
4002
47E2
8801
9001
9001
9001
9001
8801
8412
43E2
2004
1008
0FF0
ENDCHAR
STARTCHAR 00AA
ENCODING 170
SWIDTH 360 0
DWIDTH 8 0
BBX 6 7 1 10
BITMAP
10
EC
04
04
FC
84
F8
ENDCHAR
STARTCHAR 00AB
ENCODING 171
SWIDTH 405 0
DWIDTH 9 0
BBX 7 8 1 2
BITMAP
10
26
44
88
90
48
24
32
ENDCHAR
STARTCHAR 00AC
ENCODING 172
SWIDTH 540 0
DWIDTH 12 0
BBX 8 4 3 4
BITMAP
FF
01
01
01
ENDCHAR
STARTCHAR 00AD
ENCODING 173
SWIDTH 360 0
DWIDTH 8 0
BBX 4 1 2 5
BITMAP
F0
ENDCHAR
STARTCHAR 00AE
ENCODING 174
SWIDTH 810 0
DWIDTH 18 0
BBX 16 16 1 0
BITMAP
01C0
0E30
300C
4002
47E2
8411
8411
8411
8421
87C1
8441
8422
4412
2004
1008
0FF0
ENDCHAR
STARTCHAR 00AF
ENCODING 175
SWIDTH 585 0
DWIDTH 13 0
BBX 6 1 4 14
BITMAP
FC
ENDCHAR
STARTCHAR 00B0
ENCODING 176
SWIDTH 405 0
DWIDTH 9 0
BBX 7 7 1 9
BITMAP
18
64
82
82
82
84
7C
ENDCHAR
STARTCHAR 00B1
ENCODING 177
SWIDTH 540 0
DWIDTH 12 0
BBX 7 11 3 1
BITMAP
20
20
20
FE
20
20
20
00
00
00
FE
ENDCHAR
STARTCHAR 00B2
ENCODING 178
SWIDTH 405 0
DWIDTH 9 0
BBX 7 10 1 7
BITMAP
10
EC
02
02
04
08
10
20
40
FE
ENDCHAR
STARTCHAR 00B3
ENCODING 179
SWIDTH 405 0
DWIDTH 9 0
BBX 7 9 1 7
BITMAP
7C
0C
10
20
1C
02
02
02
FC
ENDCHAR
STARTCHAR 00B4
ENCODING 180
SWIDTH 585 0
DWIDTH 13 0
BBX 3 3 6 13
BITMAP
20
40
80
ENDCHAR
STARTCHAR 00B5
ENCODING 181
SWIDTH 630 0
DWIDTH 14 0
BBX 9 13 3 -3
BITMAP
8080
8080
8080
8080
8080
8080
8080
8080
8180
E200
9C00
8000
8000
ENDCHAR
STARTCHAR 00B6
ENCODING 182
SWIDTH 585 0
DWIDTH 13 0
BBX 9 17 1 -2
BITMAP
7F80
F080
F080
F080
F080
7080
3080
1080
1080
1080
1080
1080
1080
1080
1080
1080
1080
ENDCHAR
STARTCHAR 00B7
ENCODING 183
SWIDTH 180 0
DWIDTH 4 0
BBX 1 1 2 5
BITMAP
80
ENDCHAR
STARTCHAR 00B8
ENCODING 184
SWIDTH 585 0
DWIDTH 13 0
BBX 3 5 5 -5
BITMAP
40
40
20
20
C0
ENDCHAR
STARTCHAR 00B9
ENCODING 185
SWIDTH 405 0
DWIDTH 9 0
BBX 6 9 2 7
BITMAP
60
20
20
20
20
20
20
20
FC
ENDCHAR
STARTCHAR 00BA
ENCODING 186
SWIDTH 405 0
DWIDTH 9 0
BBX 7 7 1 10
BITMAP
10
6C
82
82
82
82
7C
ENDCHAR
STARTCHAR 00BB
ENCODING 187
SWIDTH 405 0
DWIDTH 9 0
BBX 7 8 1 2
BITMAP
80
48
44
22
12
24
48
88
ENDCHAR
STARTCHAR 00BC
ENCODING 188
SWIDTH 990 0
DWIDTH 22 0
BBX 19 16 2 0
BITMAP
E00200
200400
200800
200800
201000
202000
202000
204080
208100
FC8200
010400
020440
020840
0407E0
080040
080040
ENDCHAR
STARTCHAR 00BD
ENCODING 189
SWIDTH 990 0
DWIDTH 22 0
BBX 19 16 2 0
BITMAP
E00200
200400
200800
200800
201000
202000
202000
204FC0
208020
FC8020
010040
020040
020180
040200
080400
080FC0
ENDCHAR
STARTCHAR 00BE
ENCODING 190
SWIDTH 990 0
DWIDTH 22 0
BBX 20 16 1 0
BITMAP
FE0100
040200
080400
100400
200800
1C1000
021000
022040
824080
7C4100
008200
010220
010420
0203F0
040020
040020
ENDCHAR
STARTCHAR 00BF
ENCODING 191
SWIDTH 540 0
DWIDTH 12 0
BBX 10 15 2 -3
BITMAP
0800
0800
0000
0000
0000
0800
1000
1000
2000
C000
8000
8000
8000
8040
7F80
ENDCHAR
STARTCHAR 00C0
ENCODING 192
SWIDTH 675 0
DWIDTH 15 0
BBX 15 19 0 0
BITMAP
0600
0100
0000
0100
0300
0280
0280
0440
0440
0820
0820
1010
1010
2008
2FF8
4008
4004
8004
8002
ENDCHAR
STARTCHAR 00C1
ENCODING 193
SWIDTH 675 0
DWIDTH 15 0
BBX 15 19 0 0
BITMAP
0040
0180
0000
0100
0300
0280
0280
0440
0440
0820
0820
1010
1010
2008
2FF8
4008
4004
8004
8002
ENDCHAR
STARTCHAR 00C2
ENCODING 194
SWIDTH 675 0
DWIDTH 15 0
BBX 15 19 0 0
BITMAP
0380
0440
0000
0100
0300
0280
0280
0440
0440
0820
0820
1010
1010
2008
2FF8
4008
4004
8004
8002
ENDCHAR
STARTCHAR 00C3
ENCODING 195
SWIDTH 675 0
DWIDTH 15 0
BBX 15 19 0 0
BITMAP
0620
01C0
0000
0100
0300
0280
0280
0440
0440
0820
0820
1010
1010
2008
2FF8
4008
4004
8004
8002
ENDCHAR
STARTCHAR 00C4
ENCODING 196
SWIDTH 675 0
DWIDTH 15 0
BBX 15 19 0 0
BITMAP
0440
0000
0000
0100
0300
0280
0280
0440
0440
0820
0820
1010
1010
2008
2FF8
4008
4004
8004
8002
ENDCHAR
STARTCHAR 00C5
ENCODING 197
SWIDTH 675 0
DWIDTH 15 0
BBX 15 21 0 0
BITMAP
0780
0440
0440
0380
0000
0100
0300
0280
0280
0440
0440
0820
0820
1010
1010
2008
2FF8
4008
4004
8004
8002
ENDCHAR
STARTCHAR 00C6
ENCODING 198
SWIDTH 990 0
DWIDTH 22 0
BBX 20 16 0 0
BITMAP
003FF0
006000
00A000
00A000
012000
022000
022000
042000
082FC0
082000
102000
1FE000
202000
402000
402000
803FF0
ENDCHAR
STARTCHAR 00C7
ENCODING 199
SWIDTH 675 0
DWIDTH 15 0
BBX 13 21 1 -5
BITMAP
01C0
0E38
3000
4000
4000
8000
8000
8000
8000
8000
8000
8000
4000
2000
1008
0E30
01C0
0180
0040
0040
0180
ENDCHAR
STARTCHAR 00C8
ENCODING 200
SWIDTH 630 0
DWIDTH 14 0
BBX 10 19 3 0
BITMAP
1000
0800
0000
FFC0
8000
8000
8000
8000
8000
8000
8000
FF00
8000
8000
8000
8000
8000
8000
FF80
ENDCHAR
STARTCHAR 00C9
ENCODING 201
SWIDTH 630 0
DWIDTH 14 0
BBX 10 19 3 0
BITMAP
0200
0400
0000
FFC0
8000
8000
8000
8000
8000
8000
8000
FF00
8000
8000
8000
8000
8000
8000
FF80
ENDCHAR
STARTCHAR 00CA
ENCODING 202
SWIDTH 630 0
DWIDTH 14 0
BBX 10 19 3 0
BITMAP
0C00
3200
0000
FFC0
8000
8000
8000
8000
8000
8000
8000
FF00
8000
8000
8000
8000
8000
8000
FF80
ENDCHAR
STARTCHAR 00CB
ENCODING 203
SWIDTH 630 0
DWIDTH 14 0
BBX 10 19 3 0
BITMAP
1200
0000
0000
FFC0
8000
8000
8000
8000
8000
8000
8000
FF00
8000
8000
8000
8000
8000
8000
FF80
ENDCHAR
STARTCHAR 00CC
ENCODING 204
SWIDTH 270 0
DWIDTH 6 0
BBX 3 18 1 0
BITMAP
80
40
20
00
40
40
40
40
40
40
40
40
40
40
40
40
40
40
ENDCHAR
STARTCHAR 00CD
ENCODING 205
SWIDTH 270 0
DWIDTH 6 0
BBX 4 18 2 0
BITMAP
30
40
00
00
80
80
80
80
80
80
80
80
80
80
80
80
80
80
ENDCHAR
STARTCHAR 00CE
ENCODING 206
SWIDTH 270 0
DWIDTH 6 0
BBX 5 18 1 0
BITMAP
60
90
08
00
40
40
40
40
40
40
40
40
40
40
40
40
40
40
ENDCHAR
STARTCHAR 00CF
ENCODING 207
SWIDTH 270 0
DWIDTH 6 0
BBX 2 18 1 0
BITMAP
80
00
00
00
40
40
40
40
40
40
40
40
40
40
40
40
40
40
ENDCHAR
STARTCHAR 00D0
ENCODING 208
SWIDTH 810 0
DWIDTH 18 0
BBX 16 16 1 0
BITMAP
3F80
4070
400C
4002
4002
4001
4001
4001
FC01
4001
4001
4002
4002
4004
4008
7FF0
ENDCHAR
STARTCHAR 00D1
ENCODING 209
SWIDTH 810 0
DWIDTH 18 0
BBX 12 19 3 0
BITMAP
1C00
1380
0000
0000
8010
C010
A010
A010
9010
8810
8410
8210
8210
8110
8090
8050
8050
8030
0010
ENDCHAR
STARTCHAR 00D2
ENCODING 210
SWIDTH 810 0
DWIDTH 18 0
BBX 16 19 1 0
BITMAP
0200
0100
0080
01C0
0E38
3004
4002
4002
8001
8001
8001
8001
8001
8001
8001
4002
2004
1008
0FF0
ENDCHAR
STARTCHAR 00D3
ENCODING 211
SWIDTH 810 0
DWIDTH 18 0
BBX 16 19 1 0
BITMAP
0060
0080
0000
01C0
0E38
3004
4002
4002
8001
8001
8001
8001
8001
8001
8001
4002
2004
1008
0FF0
ENDCHAR
STARTCHAR 00D4
ENCODING 212
SWIDTH 810 0
DWIDTH 18 0
BBX 16 19 1 0
BITMAP
0180
0260
0000
01C0
0E38
3004
4002
4002
8001
8001
8001
8001
8001
8001
8001
4002
2004
1008
0FF0
ENDCHAR
STARTCHAR 00D5
ENCODING 213
SWIDTH 810 0
DWIDTH 18 0
BBX 16 19 1 0
BITMAP
0700
04E0
0000
01C0
0E38
3004
4002
4002
8001
8001
8001
8001
8001
8001
8001
4002
2004
1008
0FF0
ENDCHAR
STARTCHAR 00D6
ENCODING 214
SWIDTH 810 0
DWIDTH 18 0
BBX 16 19 1 0
BITMAP
0220
0000
0000
01C0
0E38
3004
4002
4002
8001
8001
8001
8001
8001
8001
8001
4002
2004
1008
0FF0
ENDCHAR
STARTCHAR 00D7
ENCODING 215
SWIDTH 540 0
DWIDTH 12 0
BBX 6 6 3 4
BITMAP
84
48
30
10
68
84
ENDCHAR
STARTCHAR 00D8
ENCODING 216
SWIDTH 810 0
DWIDTH 18 0
BBX 16 19 1 -2
BITMAP
0002
01C4
0E38
300C
4012
4022
8021
8041
8081
8101
8101
8201
8401
4802
2804
1008
2E30
41C0
4000
ENDCHAR
STARTCHAR 00D9
ENCODING 217
SWIDTH 765 0
DWIDTH 17 0
BBX 12 19 3 0
BITMAP
0800
0400
0000
0010
8010
8010
8010
8010
8010
8010
8010
8010
8010
8010
8010
8020
8020
4040
3F80
ENDCHAR
STARTCHAR 00DA
ENCODING 218
SWIDTH 765 0
DWIDTH 17 0
BBX 12 19 3 0
BITMAP
0100
0600
0000
0010
8010
8010
8010
8010
8010
8010
8010
8010
8010
8010
8010
8020
8020
4040
3F80
ENDCHAR
STARTCHAR 00DB
ENCODING 219
SWIDTH 765 0
DWIDTH 17 0
BBX 12 19 3 0
BITMAP
0E00
1100
0000
0010
8010
8010
8010
8010
8010
8010
8010
8010
8010
8010
8010
8020
8020
4040
3F80
ENDCHAR
STARTCHAR 00DC
ENCODING 220
SWIDTH 765 0
DWIDTH 17 0
BBX 12 19 3 0
BITMAP
0100
0000
0000
0010
8010
8010
8010
8010
8010
8010
8010
8010
8010
8010
8010
8020
8020
4040
3F80
ENDCHAR
STARTCHAR 00DD
ENCODING 221
SWIDTH 585 0
DWIDTH 13 0
BBX 13 18 0 0
BITMAP
0080
0300
0000
8000
8008
4010
2020
2020
1040
1040
0880
0500
0500
0200
0200
0200
0200
0200
ENDCHAR
STARTCHAR 00DE
ENCODING 222
SWIDTH 675 0
DWIDTH 15 0
BBX 11 14 3 1
BITMAP
8000
8000
FF80
8040
8020
8020
8020
8020
8020
8020
8040
FF80
8000
8000
ENDCHAR
STARTCHAR 00DF
ENCODING 223
SWIDTH 630 0
DWIDTH 14 0
BBX 10 17 3 0
BITMAP
0800
7700
8080
8080
8080
8080
8100
8100
8E00
8180
8040
8040
8040
8040
8040
8080
1F00
ENDCHAR
STARTCHAR 00E0
ENCODING 224
SWIDTH 540 0
DWIDTH 12 0
BBX 9 16 1 0
BITMAP
1000
0800
0400
0000
0C00
7300
0080
0080
0080
0080
7F80
8080
8080
8080
8180
7E00
ENDCHAR
STARTCHAR 00E1
ENCODING 225
SWIDTH 540 0
DWIDTH 12 0
BBX 9 15 1 1
BITMAP
0600
0800
0000
0C00
7300
0080
0080
0080
0080
7F80
8080
8080
8080
8180
7E00
ENDCHAR
STARTCHAR 00E2
ENCODING 226
SWIDTH 540 0
DWIDTH 12 0
BBX 9 16 1 0
BITMAP
0C00
1200
2100
0000
0C00
7300
0080
0080
0080
0080
7F80
8080
8080
8080
8180
7E00
ENDCHAR
STARTCHAR 00E3
ENCODING 227
SWIDTH 540 0
DWIDTH 12 0
BBX 9 16 1 0
BITMAP
1000
2D00
0200
0000
0C00
7300
0080
0080
0080
0080
7F80
8080
8080
8080
8180
7E00
ENDCHAR
STARTCHAR 00E4
ENCODING 228
SWIDTH 540 0
DWIDTH 12 0
BBX 9 15 1 0
BITMAP
1200
0000
0000
0C00
7300
0080
0080
0080
0080
7F80
8080
8080
8080
8180
7E00
ENDCHAR
STARTCHAR 00E5
ENCODING 229
SWIDTH 540 0
DWIDTH 12 0
BBX 9 17 1 0
BITMAP
1E00
2200
1200
0C00
0000
0C00
7300
0080
0080
0080
0080
7F80
8080
8080
8080
8180
7E00
ENDCHAR
STARTCHAR 00E6
ENCODING 230
SWIDTH 945 0
DWIDTH 21 0
BBX 20 12 1 0
BITMAP
0C0200
731980
00A040
004020
004020
008010
7FBFE0
808000
804000
80C000
812020
7E1FC0
ENDCHAR
STARTCHAR 00E7
ENCODING 231
SWIDTH 540 0
DWIDTH 12 0
BBX 10 17 1 -5
BITMAP
0600
3980
4000
8000
8000
8000
8000
8000
8000
4000
2040
1980
0600
0400
0200
0200
0C00
ENDCHAR
STARTCHAR 00E8
ENCODING 232
SWIDTH 585 0
DWIDTH 13 0
BBX 11 16 1 0
BITMAP
1000
0800
0600
0000
0400
3B80
4040
8040
8020
8020
FFC0
8000
8000
4000
2040
1F80
ENDCHAR
STARTCHAR 00E9
ENCODING 233
SWIDTH 585 0
DWIDTH 13 0
BBX 11 16 1 0
BITMAP
0100
0200
0400
0000
0400
3B80
4040
8040
8020
8020
FFC0
8000
8000
4000
2040
1F80
ENDCHAR
STARTCHAR 00EA
ENCODING 234
SWIDTH 585 0
DWIDTH 13 0
BBX 11 16 1 0
BITMAP
0C00
1200
2180
0000
0400
3B80
4040
8040
8020
8020
FFC0
8000
8000
4000
2040
1F80
ENDCHAR
STARTCHAR 00EB
ENCODING 235
SWIDTH 585 0
DWIDTH 13 0
BBX 11 15 1 0
BITMAP
1100
0000
0000
0400
3B80
4040
8040
8020
8020
FFC0
8000
8000
4000
2040
1F80
ENDCHAR
STARTCHAR 00EC
ENCODING 236
SWIDTH 225 0
DWIDTH 5 0
BBX 4 15 0 0
BITMAP
80
40
30
00
00
00
20
20
20
20
20
20
20
20
20
ENDCHAR
STARTCHAR 00ED
ENCODING 237
SWIDTH 225 0
DWIDTH 5 0
BBX 3 15 2 0
BITMAP
20
40
80
00
00
00
80
80
80
80
80
80
80
80
80
ENDCHAR
STARTCHAR 00EE
ENCODING 238
SWIDTH 225 0
DWIDTH 5 0
BBX 5 15 0 0
BITMAP
20
50
88
00
00
00
20
20
20
20
20
20
20
20
20
ENDCHAR
STARTCHAR 00EF
ENCODING 239
SWIDTH 225 0
DWIDTH 5 0
BBX 2 14 1 0
BITMAP
80
00
00
00
00
40
40
40
40
40
40
40
40
40
ENDCHAR
STARTCHAR 00F0
ENCODING 240
SWIDTH 585 0
DWIDTH 13 0
BBX 12 16 1 0
BITMAP
1C00
2380
0740
1840
0020
0020
0420
3B90
4050
8060
8020
8020
8020
8040
4080
3F00
ENDCHAR
STARTCHAR 00F1
ENCODING 241
SWIDTH 630 0
DWIDTH 14 0
BBX 9 15 3 0
BITMAP
3000
0A00
0400
0000
0C00
7300
8080
8080
8080
8080
8080
8080
8080
8080
8080
ENDCHAR
STARTCHAR 00F2
ENCODING 242
SWIDTH 585 0
DWIDTH 13 0
BBX 11 16 1 0
BITMAP
1000
0800
0600
0000
0600
3980
4040
8020
8020
8020
8020
8020
8020
4040
2040
1F80
ENDCHAR
STARTCHAR 00F3
ENCODING 243
SWIDTH 585 0
DWIDTH 13 0
BBX 11 16 1 0
BITMAP
0100
0200
0400
0000
0600
3980
4040
8020
8020
8020
8020
8020
8020
4040
2040
1F80
ENDCHAR
STARTCHAR 00F4
ENCODING 244
SWIDTH 585 0
DWIDTH 13 0
BBX 11 16 1 0
BITMAP
0600
0900
1080
0000
0600
3980
4040
8020
8020
8020
8020
8020
8020
4040
2040
1F80
ENDCHAR
STARTCHAR 00F5
ENCODING 245
SWIDTH 585 0
DWIDTH 13 0
BBX 11 16 1 0
BITMAP
0880
1500
0200
0000
0600
3980
4040
8020
8020
8020
8020
8020
8020
4040
2040
1F80
ENDCHAR
STARTCHAR 00F6
ENCODING 246
SWIDTH 585 0
DWIDTH 13 0
BBX 11 15 1 0
BITMAP
1100
0000
0000
0600
3980
4040
8020
8020
8020
8020
8020
8020
4040
2040
1F80
ENDCHAR
STARTCHAR 00F7
ENCODING 247
SWIDTH 540 0
DWIDTH 12 0
BBX 7 9 3 3
BITMAP
10
00
00
00
FE
00
00
00
10
ENDCHAR
STARTCHAR 00F8
ENCODING 248
SWIDTH 585 0
DWIDTH 13 0
BBX 11 14 1 -2
BITMAP
0020
0640
3980
40C0
8120
8220
8220
8420
8820
8820
5040
2040
5980
4600
ENDCHAR
STARTCHAR 00F9
ENCODING 249
SWIDTH 630 0
DWIDTH 14 0
BBX 10 16 2 0
BITMAP
1000
0800
0400
0000
0000
8000
8040
8040
8040
8040
8040
8040
8040
8040
40C0
3F00
ENDCHAR
STARTCHAR 00FA
ENCODING 250
SWIDTH 630 0
DWIDTH 14 0
BBX 10 16 2 0
BITMAP
0100
0600
0800
0000
0000
8000
8040
8040
8040
8040
8040
8040
8040
8040
40C0
3F00
ENDCHAR
STARTCHAR 00FB
ENCODING 251
SWIDTH 630 0
DWIDTH 14 0
BBX 10 16 2 0
BITMAP
0C00
1200
2100
0000
0000
8000
8040
8040
8040
8040
8040
8040
8040
8040
40C0
3F00
ENDCHAR
STARTCHAR 00FC
ENCODING 252
SWIDTH 630 0
DWIDTH 14 0
BBX 10 15 2 0
BITMAP
1100
0000
0000
0000
8000
8040
8040
8040
8040
8040
8040
8040
8040
40C0
3F00
ENDCHAR
STARTCHAR 00FD
ENCODING 253
SWIDTH 495 0
DWIDTH 11 0
BBX 12 20 -1 -4
BITMAP
0080
0300
0400
0000
0000
0010
2020
2020
2040
1040
1080
0880
0900
0500
0500
0200
0200
0400
0400
F800
ENDCHAR
STARTCHAR 00FE
ENCODING 254
SWIDTH 630 0
DWIDTH 14 0
BBX 11 18 3 -3
BITMAP
8000
8000
8000
8C00
B300
C080
8040
8040
8020
8020
8020
8040
8040
C080
B300
8C00
8000
8000
ENDCHAR
STARTCHAR 00FF
ENCODING 255
SWIDTH 495 0
DWIDTH 11 0
BBX 12 19 -1 -4
BITMAP
0880
0000
0000
0000
0010
2020
2020
2040
1040
1080
0880
0900
0500
0500
0200
0200
0400
0400
F800
ENDCHAR
STARTCHAR 0100
ENCODING 256
SWIDTH 675 0
DWIDTH 15 0
BBX 15 18 0 0
BITMAP
03C0
0000
0100
0300
0280
0280
0440
0440
0820
0820
1010
1010
2008
2FF8
4008
4004
8004
8002
ENDCHAR
STARTCHAR 0101
ENCODING 257
SWIDTH 540 0
DWIDTH 12 0
BBX 9 15 1 0
BITMAP
3F00
0000
0000
0C00
7300
0080
0080
0080
0080
7F80
8080
8080
8080
8180
7E00
ENDCHAR
STARTCHAR 0102
ENCODING 258
SWIDTH 675 0
DWIDTH 15 0
BBX 15 18 0 1
BITMAP
0440
0380
0100
0300
0280
0280
0440
0440
0820
0820
1010
1010
2008
2FF8
4008
4004
8004
8002
ENDCHAR
STARTCHAR 0103
ENCODING 259
SWIDTH 540 0
DWIDTH 12 0
BBX 9 16 1 0
BITMAP
2000
2100
1E00
0000
0C00
7300
0080
0080
0080
0080
7F80
8080
8080
8080
8180
7E00
ENDCHAR
STARTCHAR 0104
ENCODING 260
SWIDTH 675 0
DWIDTH 15 0
BBX 15 21 0 -5
BITMAP
0100
0300
0280
0280
0440
0440
0820
0820
1010
1010
2008
2FF8
4008
4004
8004
8002
0004
0008
0010
0010
000E
ENDCHAR
STARTCHAR 0105
ENCODING 261
SWIDTH 540 0
DWIDTH 12 0
BBX 9 17 1 -5
BITMAP
0C00
7300
0080
0080
0080
0080
7F80
8080
8080
8080
8180
6200
1D00
0200
0200
0200
0180
ENDCHAR
STARTCHAR 0106
ENCODING 262
SWIDTH 675 0
DWIDTH 15 0
BBX 13 19 1 0
BITMAP
0040
0080
0000
01C0
0E38
3000
4000
4000
8000
8000
8000
8000
8000
8000
8000
4000
2000
1008
0FF0
ENDCHAR
STARTCHAR 0107
ENCODING 263
SWIDTH 540 0
DWIDTH 12 0
BBX 10 16 1 0
BITMAP
0100
0200
0C00
0000
0600
3980
4000
8000
8000
8000
8000
8000
8000
4000
2040
1F80
ENDCHAR
STARTCHAR 0108
ENCODING 264
SWIDTH 675 0
DWIDTH 15 0
BBX 13 19 1 0
BITMAP
0180
0640
0020
01C0
0E38
3000
4000
4000
8000
8000
8000
8000
8000
8000
8000
4000
2000
1008
0FF0
ENDCHAR
STARTCHAR 0109
ENCODING 265
SWIDTH 540 0
DWIDTH 12 0
BBX 10 16 1 0
BITMAP
0C00
1200
2180
0000
0600
3980
4000
8000
8000
8000
8000
8000
8000
4000
2040
1F80
ENDCHAR
STARTCHAR 010A
ENCODING 266
SWIDTH 675 0
DWIDTH 15 0
BBX 13 19 1 0
BITMAP
0080
0000
0000
01C0
0E38
3000
4000
4000
8000
8000
8000
8000
8000
8000
8000
4000
2000
1008
0FF0
ENDCHAR
STARTCHAR 010B
ENCODING 267
SWIDTH 540 0
DWIDTH 12 0
BBX 10 15 1 0
BITMAP
0400
0000
0000
0600
3980
4000
8000
8000
8000
8000
8000
8000
4000
2040
1F80
ENDCHAR
STARTCHAR 010C
ENCODING 268
SWIDTH 675 0
DWIDTH 15 0
BBX 13 19 1 0
BITMAP
0260
0180
0000
01C0
0E38
3000
4000
4000
8000
8000
8000
8000
8000
8000
8000
4000
2000
1008
0FF0
ENDCHAR
STARTCHAR 010D
ENCODING 269
SWIDTH 540 0
DWIDTH 12 0
BBX 10 16 1 0
BITMAP
1100
0A00
0400
0000
0600
3980
4000
8000
8000
8000
8000
8000
8000
4000
2040
1F80
ENDCHAR
STARTCHAR 010E
ENCODING 270
SWIDTH 810 0
DWIDTH 18 0
BBX 14 19 3 0
BITMAP
1100
0A00
0400
FE00
81C0
8030
8008
8008
8004
8004
8004
8004
8004
8004
8008
8008
8010
8020
FFC0
ENDCHAR
STARTCHAR 010F
ENCODING 271
SWIDTH 630 0
DWIDTH 14 0
BBX 14 16 1 1
BITMAP
0004
0024
0020
0020
0620
39A0
4060
8020
8020
8020
8020
8020
8020
4060
2060
1F80
ENDCHAR
STARTCHAR 0110
ENCODING 272
SWIDTH 810 0
DWIDTH 18 0
BBX 16 16 1 0
BITMAP
3F80
4070
400C
4002
4002
4001
4001
4001
FC01
4001
4001
4002
4002
4004
4008
7FF0
ENDCHAR
STARTCHAR 0111
ENCODING 273
SWIDTH 630 0
DWIDTH 14 0
BBX 13 15 1 1
BITMAP
0020
01F8
0020
0620
39A0
4060
8020
8020
8020
8020
8020
8020
4060
2060
1F80
ENDCHAR
STARTCHAR 0112
ENCODING 274
SWIDTH 630 0
DWIDTH 14 0
BBX 10 18 3 0
BITMAP
1E00
0000
FFC0
8000
8000
8000
8000
8000
8000
8000
FF00
8000
8000
8000
8000
8000
8000
FF80
ENDCHAR
STARTCHAR 0113
ENCODING 275
SWIDTH 585 0
DWIDTH 13 0
BBX 11 15 1 0
BITMAP
3F80
0000
0000
0400
3B80
4040
8040
8020
8020
FFC0
8000
8000
4000
2040
1F80
ENDCHAR
STARTCHAR 0114
ENCODING 276
SWIDTH 630 0
DWIDTH 14 0
BBX 10 19 3 0
BITMAP
2100
1200
0C00
FFC0
8000
8000
8000
8000
8000
8000
8000
FF00
8000
8000
8000
8000
8000
8000
FF80
ENDCHAR
STARTCHAR 0115
ENCODING 277
SWIDTH 585 0
DWIDTH 13 0
BBX 11 15 1 1
BITMAP
1100
0E00
0000
0400
3B80
4040
8040
8020
8020
FFC0
8000
8000
4000
2040
1F80
ENDCHAR
STARTCHAR 0116
ENCODING 278
SWIDTH 630 0
DWIDTH 14 0
BBX 10 16 3 3
BITMAP
FFC0
8000
8000
8000
8000
8000
8000
8000
FF00
8000
8000
8000
8000
8000
8000
FF80
ENDCHAR
STARTCHAR 0117
ENCODING 279
SWIDTH 585 0
DWIDTH 13 0
BBX 11 15 1 0
BITMAP
0400
0000
0000
0400
3B80
4040
8040
8020
8020
FFC0
8000
8000
4000
2040
1F80
ENDCHAR
STARTCHAR 0118
ENCODING 280
SWIDTH 630 0
DWIDTH 14 0
BBX 10 21 3 -5
BITMAP
FFC0
8000
8000
8000
8000
8000
8000
8000
FF00
8000
8000
8000
8000
8000
8000
0000
FF80
0100
0100
0100
00C0
ENDCHAR
STARTCHAR 0119
ENCODING 281
SWIDTH 585 0
DWIDTH 13 0
BBX 11 17 1 -5
BITMAP
0400
3B80
4040
8040
8020
8020
FFC0
8000
8000
4000
2040
1980
0700
0200
0200
0200
0180
ENDCHAR
STARTCHAR 011A
ENCODING 282
SWIDTH 630 0
DWIDTH 14 0
BBX 10 19 3 0
BITMAP
2200
1C00
0000
FFC0
8000
8000
8000
8000
8000
8000
8000
FF00
8000
8000
8000
8000
8000
8000
FF80
ENDCHAR
STARTCHAR 011B
ENCODING 283
SWIDTH 585 0
DWIDTH 13 0
BBX 11 16 1 0
BITMAP
1100
0A00
0400
0000
0400
3B80
4040
8040
8020
8020
FFC0
8000
8000
4000
2040
1F80
ENDCHAR
STARTCHAR 011C
ENCODING 284
SWIDTH 765 0
DWIDTH 17 0
BBX 14 19 1 0
BITMAP
0380
0440
0000
01C0
0E38
3004
4000
4000
8000
8000
8000
8004
8004
8004
8004
4004
2004
1008
0FF0
ENDCHAR
STARTCHAR 011D
ENCODING 285
SWIDTH 675 0
DWIDTH 15 0
BBX 11 20 1 -4
BITMAP
0600
0900
1080
0000
0600
3980
4060
8020
8020
8020
8020
8020
8020
4060
20A0
1F20
0020
0020
4020
3FC0
ENDCHAR
STARTCHAR 011E
ENCODING 286
SWIDTH 765 0
DWIDTH 17 0
BBX 14 19 1 0
BITMAP
0420
0240
0180
01C0
0E38
3004
4000
4000
8000
8000
8000
8004
8004
8004
8004
4004
2004
1008
0FF0
ENDCHAR
STARTCHAR 011F
ENCODING 287
SWIDTH 675 0
DWIDTH 15 0
BBX 11 20 1 -4
BITMAP
1080
1100
0E00
0000
0600
3980
4060
8020
8020
8020
8020
8020
8020
4060
20A0
1F20
0020
0020
4020
3FC0
ENDCHAR
STARTCHAR 0120
ENCODING 288
SWIDTH 765 0
DWIDTH 17 0
BBX 14 19 1 0
BITMAP
0100
0000
0000
01C0
0E38
3004
4000
4000
8000
8000
8000
8004
8004
8004
8004
4004
2004
1008
0FF0
ENDCHAR
STARTCHAR 0121
ENCODING 289
SWIDTH 675 0
DWIDTH 15 0
BBX 11 16 1 -1
BITMAP
0600
3980
4060
8020
8020
8020
8020
8020
8020
4060
20A0
1F20
0020
0020
4020
3FC0
ENDCHAR
STARTCHAR 0122
ENCODING 290
SWIDTH 765 0
DWIDTH 17 0
BBX 14 21 1 -6
BITMAP
01C0
0E38
3004
4000
4000
8000
8000
8000
8004
8004
8004
8004
4004
2004
1008
0E30
01C0
0000
0000
0180
0100
ENDCHAR
STARTCHAR 0123
ENCODING 291
SWIDTH 675 0
DWIDTH 15 0
BBX 11 20 1 -3
BITMAP
0400
0400
0000
0000
0600
3980
4060
8020
8020
8020
8020
8020
8020
4060
20A0
1F20
0020
0020
4020
3FC0
ENDCHAR
STARTCHAR 0124
ENCODING 292
SWIDTH 810 0
DWIDTH 18 0
BBX 12 18 3 0
BITMAP
0600
1900
0080
0000
8010
8010
8010
8010
8010
8010
8010
FFF0
8010
8010
8010
8010
8010
8010
ENDCHAR
STARTCHAR 0125
ENCODING 293
SWIDTH 630 0
DWIDTH 14 0
BBX 12 19 0 0
BITMAP
7000
8800
0000
0000
0000
2000
2000
2000
2180
2E60
3010
2010
2010
2010
2010
2010
2010
2010
2010
ENDCHAR
STARTCHAR 0126
ENCODING 294
SWIDTH 810 0
DWIDTH 18 0
BBX 16 14 1 1
BITMAP
4004
4004
4004
FFFF
4004
4004
4004
5FFC
4004
4004
4004
4004
4004
4004
ENDCHAR
STARTCHAR 0127
ENCODING 295
SWIDTH 630 0
DWIDTH 14 0
BBX 11 14 1 1
BITMAP
4000
FC00
4000
4300
5CC0
6020
4020
4020
4020
4020
4020
4020
4020
4020
ENDCHAR
STARTCHAR 0128
ENCODING 296
SWIDTH 270 0
DWIDTH 6 0
BBX 6 18 0 0
BITMAP
E0
9C
00
00
20
20
20
20
20
20
20
20
20
20
20
20
20
20
ENDCHAR
STARTCHAR 0129
ENCODING 297
SWIDTH 225 0
DWIDTH 5 0
BBX 5 15 0 0
BITMAP
40
A8
10
00
00
00
20
20
20
20
20
20
20
20
20
ENDCHAR
STARTCHAR 012A
ENCODING 298
SWIDTH 270 0
DWIDTH 6 0
BBX 3 17 2 0
BITMAP
E0
00
00
80
80
80
80
80
80
80
80
80
80
80
80
80
80
ENDCHAR
STARTCHAR 012B
ENCODING 299
SWIDTH 225 0
DWIDTH 5 0
BBX 5 14 0 0
BITMAP
F8
00
00
00
00
20
20
20
20
20
20
20
20
20
ENDCHAR
STARTCHAR 012C
ENCODING 300
SWIDTH 270 0
DWIDTH 6 0
BBX 6 18 0 0
BITMAP
80
4C
30
00
20
20
20
20
20
20
20
20
20
20
20
20
20
20
ENDCHAR
STARTCHAR 012D
ENCODING 301
SWIDTH 225 0
DWIDTH 5 0
BBX 5 15 0 0
BITMAP
80
88
70
00
00
00
20
20
20
20
20
20
20
20
20
ENDCHAR
STARTCHAR 012E
ENCODING 302
SWIDTH 270 0
DWIDTH 6 0
BBX 2 20 2 -4
BITMAP
80
80
80
80
80
80
80
80
80
80
80
80
80
80
00
80
80
80
80
C0
ENDCHAR
STARTCHAR 012F
ENCODING 303
SWIDTH 225 0
DWIDTH 5 0
BBX 3 21 1 -5
BITMAP
40
00
00
00
00
00
40
40
40
40
40
40
40
40
40
00
40
80
80
80
60
ENDCHAR
STARTCHAR 0130
ENCODING 304
SWIDTH 270 0
DWIDTH 6 0
BBX 1 18 3 0
BITMAP
80
00
00
00
80
80
80
80
80
80
80
80
80
80
80
80
80
80
ENDCHAR
STARTCHAR 0131
ENCODING 305
SWIDTH 225 0
DWIDTH 5 0
BBX 1 9 2 1
BITMAP
80
80
80
80
80
80
80
80
80
ENDCHAR
STARTCHAR 0132
ENCODING 306
SWIDTH 675 0
DWIDTH 15 0
BBX 10 15 3 1
BITMAP
8040
8040
8040
8040
8040
8040
8040
8040
0040
0040
0040
0040
0080
0100
7E00
ENDCHAR
STARTCHAR 0133
ENCODING 307
SWIDTH 495 0
DWIDTH 11 0
BBX 7 20 2 -4
BITMAP
82
00
00
00
00
02
82
82
82
82
82
82
82
82
82
02
02
02
02
1C
ENDCHAR
STARTCHAR 0134
ENCODING 308
SWIDTH 450 0
DWIDTH 10 0
BBX 8 19 0 0
BITMAP
1C
22
00
3F
01
01
01
01
01
01
01
01
01
01
01
01
01
82
7C
ENDCHAR
STARTCHAR 0135
ENCODING 309
SWIDTH 225 0
DWIDTH 5 0
BBX 7 20 -2 -4
BITMAP
0C
14
22
00
00
00
08
08
08
08
08
08
08
08
08
08
08
08
08
F0
ENDCHAR
STARTCHAR 0136
ENCODING 310
SWIDTH 675 0
DWIDTH 15 0
BBX 12 20 3 -5
BITMAP
8020
8040
8080
8100
8200
8400
8800
9800
A400
C200
8100
8080
8040
8020
0010
0000
0000
0000
0400
0400
ENDCHAR
STARTCHAR 0137
ENCODING 311
SWIDTH 540 0
DWIDTH 12 0
BBX 9 21 3 -5
BITMAP
8000
8000
8000
8000
8100
8200
8C00
9000
B000
C800
8400
8400
8200
8100
0080
0000
0000
0000
1000
1000
1000
ENDCHAR
STARTCHAR 0138
ENCODING 312
SWIDTH 540 0
DWIDTH 12 0
BBX 9 11 3 0
BITMAP
0100
8200
8C00
9000
B000
C800
8400
8400
8200
8100
0080
ENDCHAR
STARTCHAR 0139
ENCODING 313
SWIDTH 540 0
DWIDTH 12 0
BBX 10 19 2 0
BITMAP
3000
4000
0000
0000
8000
8000
8000
8000
8000
8000
8000
8000
8000
8000
8000
8000
8000
8000
3FC0
ENDCHAR
STARTCHAR 013A
ENCODING 314
SWIDTH 225 0
DWIDTH 5 0
BBX 3 20 2 0
BITMAP
20
40
80
00
00
00
80
80
80
80
80
80
80
80
80
80
80
80
80
80
ENDCHAR
STARTCHAR 013B
ENCODING 315
SWIDTH 540 0
DWIDTH 12 0
BBX 9 20 3 -5
BITMAP
8000
8000
8000
8000
8000
8000
8000
8000
8000
8000
8000
8000
8000
8000
0000
7F80
0000
0000
0C00
0800
ENDCHAR
STARTCHAR 013C
ENCODING 316
SWIDTH 225 0
DWIDTH 5 0
BBX 1 21 2 -5
BITMAP
80
80
80
80
80
80
80
80
80
80
80
80
80
80
00
00
00
00
80
80
80
ENDCHAR
STARTCHAR 013D
ENCODING 317
SWIDTH 540 0
DWIDTH 12 0
BBX 9 15 3 1
BITMAP
8200
8200
8000
8000
8000
8000
8000
8000
8000
8000
8000
8000
8000
8000
7F80
ENDCHAR
STARTCHAR 013E
ENCODING 318
SWIDTH 225 0
DWIDTH 5 0
BBX 3 16 3 0
BITMAP
20
20
A0
A0
80
80
80
80
80
80
80
80
80
80
80
80
ENDCHAR
STARTCHAR 013F
ENCODING 319
SWIDTH 540 0
DWIDTH 12 0
BBX 9 15 3 1
BITMAP
8000
8000
8000
8000
8000
8000
8200
8200
8000
8000
8000
8000
8000
8000
7F80
ENDCHAR
STARTCHAR 0140
ENCODING 320
SWIDTH 225 0
DWIDTH 5 0
BBX 3 14 3 1
BITMAP
80
80
80
80
80
80
80
A0
80
80
80
80
80
80
ENDCHAR
STARTCHAR 0141
ENCODING 321
SWIDTH 540 0
DWIDTH 12 0
BBX 10 15 2 1
BITMAP
8000
8000
8000
8000
8000
9000
E000
8000
8000
8000
8000
8000
8000
8000
3FC0
ENDCHAR
STARTCHAR 0142
ENCODING 322
SWIDTH 225 0
DWIDTH 5 0
BBX 2 14 2 1
BITMAP
80
80
80
80
80
80
40
80
80
80
80
80
80
80
ENDCHAR
STARTCHAR 0143
ENCODING 323
SWIDTH 810 0
DWIDTH 18 0
BBX 12 19 3 0
BITMAP
0100
0200
0000
0000
8010
C010
A010
A010
9010
8810
8410
8210
8210
8110
8090
8050
8050
8030
0010
ENDCHAR
STARTCHAR 0144
ENCODING 324
SWIDTH 630 0
DWIDTH 14 0
BBX 9 15 3 0
BITMAP
0200
0C00
1000
0000
0C00
7300
8080
8080
8080
8080
8080
8080
8080
8080
8080
ENDCHAR
STARTCHAR 0145
ENCODING 325
SWIDTH 810 0
DWIDTH 18 0
BBX 12 20 3 -5
BITMAP
8010
C010
A010
A010
9010
8810
8410
8210
8210
8110
8090
8050
8050
8030
0010
0000
0000
0000
0200
0400
ENDCHAR
STARTCHAR 0146
ENCODING 326
SWIDTH 630 0
DWIDTH 14 0
BBX 9 17 3 -6
BITMAP
0C00
7300
8080
8080
8080
8080
8080
8080
8080
8080
8080
0000
0000
0000
0000
0800
0800
ENDCHAR
STARTCHAR 0147
ENCODING 327
SWIDTH 810 0
DWIDTH 18 0
BBX 12 19 3 0
BITMAP
0980
0600
0000
0000
8010
C010
A010
A010
9010
8810
8410
8210
8210
8110
8090
8050
8050
8030
0010
ENDCHAR
STARTCHAR 0148
ENCODING 328
SWIDTH 630 0
DWIDTH 14 0
BBX 9 15 3 0
BITMAP
2200
1400
0800
0000
0C00
7300
8080
8080
8080
8080
8080
8080
8080
8080
8080
ENDCHAR
STARTCHAR 0149
ENCODING 329
SWIDTH 675 0
DWIDTH 15 0
BBX 12 16 1 1
BITMAP
4000
8000
8000
8000
0100
2EE0
3010
2010
2010
2010
2010
2010
2010
2010
2010
2000
ENDCHAR
STARTCHAR 014A
ENCODING 330
SWIDTH 810 0
DWIDTH 18 0
BBX 12 19 3 -3
BITMAP
8010
C010
A010
A010
9010
8810
8410
8210
8210
8110
8090
8050
8050
8030
0010
0010
0010
0810
07E0
ENDCHAR
STARTCHAR 014B
ENCODING 331
SWIDTH 630 0
DWIDTH 14 0
BBX 9 16 3 -4
BITMAP
0C00
7300
8080
8080
8080
8080
8080
8080
8080
8080
8080
0080
0080
0080
0080
0F80
ENDCHAR
STARTCHAR 014C
ENCODING 332
SWIDTH 810 0
DWIDTH 18 0
BBX 16 18 1 0
BITMAP
03C0
0000
01C0
0E38
3004
4002
4002
8001
8001
8001
8001
8001
8001
8001
4002
2004
1008
0FF0
ENDCHAR
STARTCHAR 014D
ENCODING 333
SWIDTH 585 0
DWIDTH 13 0
BBX 11 15 1 0
BITMAP
1F80
0000
0000
0600
3980
4040
8020
8020
8020
8020
8020
8020
4040
2040
1F80
ENDCHAR
STARTCHAR 014E
ENCODING 334
SWIDTH 810 0
DWIDTH 18 0
BBX 16 19 1 0
BITMAP
0400
0260
0180
01C0
0E38
3004
4002
4002
8001
8001
8001
8001
8001
8001
8001
4002
2004
1008
0FF0
ENDCHAR
STARTCHAR 014F
ENCODING 335
SWIDTH 585 0
DWIDTH 13 0
BBX 11 16 1 0
BITMAP
0080
1100
0E00
0000
0600
3980
4040
8020
8020
8020
8020
8020
8020
4040
2040
1F80
ENDCHAR
STARTCHAR 0150
ENCODING 336
SWIDTH 810 0
DWIDTH 18 0
BBX 16 19 1 0
BITMAP
0090
0120
0000
01C0
0E38
3004
4002
4002
8001
8001
8001
8001
8001
8001
8001
4002
2004
1008
0FF0
ENDCHAR
STARTCHAR 0151
ENCODING 337
SWIDTH 585 0
DWIDTH 13 0
BBX 11 16 1 0
BITMAP
0240
0480
0900
0000
0600
3980
4040
8020
8020
8020
8020
8020
8020
4040
2040
1F80
ENDCHAR
STARTCHAR 0152
ENCODING 338
SWIDTH 1080 0
DWIDTH 24 0
BBX 22 16 1 0
BITMAP
00FFFC
0E1000
301000
401000
401000
801000
801000
801000
8017F0
801000
801000
801000
401000
201000
101000
0FEFF8
ENDCHAR
STARTCHAR 0153
ENCODING 339
SWIDTH 1035 0
DWIDTH 23 0
BBX 22 12 1 0
BITMAP
060180
398660
404810
803008
801008
802004
802FF8
802000
803000
405000
204808
1F87F0
ENDCHAR
STARTCHAR 0154
ENCODING 340
SWIDTH 675 0
DWIDTH 15 0
BBX 11 19 3 0
BITMAP
0200
0400
0000
FC00
8380
8040
8020
8020
8020
8020
8020
8040
8080
FF00
8100
8080
8040
8040
0020
ENDCHAR
STARTCHAR 0155
ENCODING 341
SWIDTH 360 0
DWIDTH 8 0
BBX 5 14 3 1
BITMAP
30
40
00
08
70
80
80
80
80
80
80
80
80
80
ENDCHAR
STARTCHAR 0156
ENCODING 342
SWIDTH 675 0
DWIDTH 15 0
BBX 11 21 3 -6
BITMAP
FC00
8380
8040
8020
8020
8020
8020
8020
8040
8080
FF00
8100
8080
8040
8040
0020
0000
0000
0000
0400
0800
ENDCHAR
STARTCHAR 0157
ENCODING 343
SWIDTH 360 0
DWIDTH 8 0
BBX 6 18 2 -6
BITMAP
04
38
40
80
80
80
80
80
80
80
80
00
00
00
00
80
80
80
ENDCHAR
STARTCHAR 0158
ENCODING 344
SWIDTH 675 0
DWIDTH 15 0
BBX 11 19 3 0
BITMAP
1300
0C00
0000
FC00
8380
8040
8020
8020
8020
8020
8020
8040
8080
FF00
8100
8080
8040
8040
0020
ENDCHAR
STARTCHAR 0159
ENCODING 345
SWIDTH 360 0
DWIDTH 8 0
BBX 6 15 2 0
BITMAP
84
48
30
00
04
38
40
80
80
80
80
80
80
80
80
ENDCHAR
STARTCHAR 015A
ENCODING 346
SWIDTH 585 0
DWIDTH 13 0
BBX 11 19 1 0
BITMAP
0100
0200
0000
0E00
31C0
4000
8000
8000
8000
4000
3000
0F00
00C0
0020
0020
0020
0020
4040
3F80
ENDCHAR
STARTCHAR 015B
ENCODING 347
SWIDTH 450 0
DWIDTH 10 0
BBX 8 16 1 0
BITMAP
02
0C
10
00
18
67
80
80
80
40
3C
03
01
01
01
FE
ENDCHAR
STARTCHAR 015C
ENCODING 348
SWIDTH 585 0
DWIDTH 13 0
BBX 11 19 1 0
BITMAP
0600
1900
0080
0E00
31C0
4000
8000
8000
8000
4000
3000
0F00
00C0
0020
0020
0020
0020
4040
3F80
ENDCHAR
STARTCHAR 015D
ENCODING 349
SWIDTH 450 0
DWIDTH 10 0
BBX 8 16 1 0
BITMAP
18
24
42
00
18
67
80
80
80
40
3C
03
01
01
01
FE
ENDCHAR
STARTCHAR 015E
ENCODING 350
SWIDTH 585 0
DWIDTH 13 0
BBX 11 21 1 -5
BITMAP
0E00
31C0
4000
8000
8000
8000
4000
3000
0F00
00C0
0020
0020
0020
0020
4040
3180
0E00
0600
0100
0100
0600
ENDCHAR
STARTCHAR 015F
ENCODING 351
SWIDTH 450 0
DWIDTH 10 0
BBX 8 17 1 -5
BITMAP
18
67
80
80
80
40
3C
03
01
01
01
E2
1C
18
04
04
18
ENDCHAR
STARTCHAR 0160
ENCODING 352
SWIDTH 585 0
DWIDTH 13 0
BBX 11 19 1 0
BITMAP
0980
0600
0000
0E00
31C0
4000
8000
8000
8000
4000
3000
0F00
00C0
0020
0020
0020
0020
4040
3F80
ENDCHAR
STARTCHAR 0161
ENCODING 353
SWIDTH 450 0
DWIDTH 10 0
BBX 8 16 1 0
BITMAP
02
24
18
00
18
67
80
80
80
40
3C
03
01
01
01
FE
ENDCHAR
STARTCHAR 0162
ENCODING 354
SWIDTH 540 0
DWIDTH 12 0
BBX 12 21 0 -5
BITMAP
FFF0
0400
0400
0400
0400
0400
0400
0400
0400
0400
0400
0400
0400
0400
0400
0000
0000
0600
0100
0100
0600
ENDCHAR
STARTCHAR 0163
ENCODING 355
SWIDTH 360 0
DWIDTH 8 0
BBX 5 18 2 -4
BITMAP
80
80
F0
80
80
80
80
80
80
80
80
80
68
10
10
08
08
30
ENDCHAR
STARTCHAR 0164
ENCODING 356
SWIDTH 540 0
DWIDTH 12 0
BBX 12 18 0 0
BITMAP
0980
0600
0000
FFF0
0400
0400
0400
0400
0400
0400
0400
0400
0400
0400
0400
0400
0400
0400
ENDCHAR
STARTCHAR 0165
ENCODING 357
SWIDTH 360 0
DWIDTH 8 0
BBX 5 16 2 1
BITMAP
10
10
00
80
80
F0
80
80
80
80
80
80
80
80
80
78
ENDCHAR
STARTCHAR 0166
ENCODING 358
SWIDTH 540 0
DWIDTH 12 0
BBX 12 15 0 0
BITMAP
FFF0
0400
0400
0400
0400
0400
0400
0400
1F80
0400
0400
0400
0400
0400
0400
ENDCHAR
STARTCHAR 0167
ENCODING 359
SWIDTH 360 0
DWIDTH 8 0
BBX 6 13 2 1
BITMAP
80
80
F0
80
80
80
F0
80
80
80
80
40
3C
ENDCHAR
STARTCHAR 0168
ENCODING 360
SWIDTH 765 0
DWIDTH 17 0
BBX 12 19 3 0
BITMAP
1C80
0300
0000
0010
8010
8010
8010
8010
8010
8010
8010
8010
8010
8010
8010
8020
8020
4040
3F80
ENDCHAR
STARTCHAR 0169
ENCODING 361
SWIDTH 630 0
DWIDTH 14 0
BBX 10 16 2 0
BITMAP
1800
2500
0200
0000
0000
8000
8040
8040
8040
8040
8040
8040
8040
8040
40C0
3F00
ENDCHAR
STARTCHAR 016A
ENCODING 362
SWIDTH 765 0
DWIDTH 17 0
BBX 12 18 3 0
BITMAP
0F00
0000
0010
8010
8010
8010
8010
8010
8010
8010
8010
8010
8010
8010
8020
8020
4040
3F80
ENDCHAR
STARTCHAR 016B
ENCODING 363
SWIDTH 630 0
DWIDTH 14 0
BBX 10 15 2 0
BITMAP
3F00
0000
0000
0000
8000
8040
8040
8040
8040
8040
8040
8040
8040
40C0
3F00
ENDCHAR
STARTCHAR 016C
ENCODING 364
SWIDTH 765 0
DWIDTH 17 0
BBX 12 19 3 0
BITMAP
0080
1100
0E00
0010
8010
8010
8010
8010
8010
8010
8010
8010
8010
8010
8010
8020
8020
4040
3F80
ENDCHAR
STARTCHAR 016D
ENCODING 365
SWIDTH 630 0
DWIDTH 14 0
BBX 10 16 2 0
BITMAP
2000
2100
1E00
0000
0000
8000
8040
8040
8040
8040
8040
8040
8040
8040
40C0
3F00
ENDCHAR
STARTCHAR 016E
ENCODING 366
SWIDTH 765 0
DWIDTH 17 0
BBX 12 21 3 0
BITMAP
0E00
1100
1100
0E00
0000
0010
8010
8010
8010
8010
8010
8010
8010
8010
8010
8010
8010
8020
8020
4040
3F80
ENDCHAR
STARTCHAR 016F
ENCODING 367
SWIDTH 630 0
DWIDTH 14 0
BBX 10 17 2 0
BITMAP
1E00
1200
1200
0C00
0000
0000
8000
8040
8040
8040
8040
8040
8040
8040
8040
40C0
3F00
ENDCHAR
STARTCHAR 0170
ENCODING 368
SWIDTH 765 0
DWIDTH 17 0
BBX 12 19 3 0
BITMAP
06C0
0900
0000
0010
8010
8010
8010
8010
8010
8010
8010
8010
8010
8010
8010
8020
8020
4040
3F80
ENDCHAR
STARTCHAR 0171
ENCODING 369
SWIDTH 630 0
DWIDTH 14 0
BBX 10 16 2 0
BITMAP
0400
0980
1000
0000
0000
8000
8040
8040
8040
8040
8040
8040
8040
8040
40C0
3F00
ENDCHAR
STARTCHAR 0172
ENCODING 370
SWIDTH 765 0
DWIDTH 17 0
BBX 12 21 3 -5
BITMAP
0010
8010
8010
8010
8010
8010
8010
8010
8010
8010
8010
8010
8020
8020
4040
3180
0E00
0800
1000
0800
0600
ENDCHAR
STARTCHAR 0173
ENCODING 371
SWIDTH 630 0
DWIDTH 14 0
BBX 10 16 2 -5
BITMAP
8000
8040
8040
8040
8040
8040
8040
8040
8040
40C0
3300
0C80
0100
0200
0200
01C0
ENDCHAR
STARTCHAR 0174
ENCODING 372
SWIDTH 1080 0
DWIDTH 24 0
BBX 22 19 1 0
BITMAP
003000
00C800
000400
800000
803004
803008
405008
404808
408810
208810
208410
210420
110420
110220
120240
0A0240
0A0140
0C0180
040080
ENDCHAR
STARTCHAR 0175
ENCODING 373
SWIDTH 810 0
DWIDTH 18 0
BBX 18 16 0 0
BITMAP
00C000
012000
021000
000000
000000
004000
80C040
412080
412080
212100
221100
221100
140A00
140A00
0C0A00
080400
ENDCHAR
STARTCHAR 0176
ENCODING 374
SWIDTH 585 0
DWIDTH 13 0
BBX 13 18 0 0
BITMAP
0700
0880
0000
8000
8008
4010
2020
2020
1040
1040
0880
0500
0500
0200
0200
0200
0200
0200
ENDCHAR
STARTCHAR 0177
ENCODING 375
SWIDTH 495 0
DWIDTH 11 0
BBX 12 20 -1 -4
BITMAP
0600
0900
1080
0000
0000
0010
2020
2020
2040
1040
1080
0880
0900
0500
0500
0200
0200
0400
0400
F800
ENDCHAR
STARTCHAR 0178
ENCODING 376
SWIDTH 585 0
DWIDTH 13 0
BBX 13 18 0 0
BITMAP
0080
0000
0000
8000
8008
4010
2020
2020
1040
1040
0880
0500
0500
0200
0200
0200
0200
0200
ENDCHAR
STARTCHAR 0179
ENCODING 377
SWIDTH 630 0
DWIDTH 14 0
BBX 12 19 1 0
BITMAP
0180
0200
0000
FFF0
0010
0020
0040
0080
0100
0100
0200
0400
0800
0800
1000
2000
4000
4000
FFE0
ENDCHAR
STARTCHAR 017A
ENCODING 378
SWIDTH 450 0
DWIDTH 10 0
BBX 8 16 1 0
BITMAP
02
0C
10
00
00
7F
02
02
04
08
10
10
20
40
80
FF
ENDCHAR
STARTCHAR 017B
ENCODING 379
SWIDTH 630 0
DWIDTH 14 0
BBX 12 19 1 0
BITMAP
0200
0000
0000
FFF0
0010
0020
0040
0080
0100
0100
0200
0400
0800
0800
1000
2000
4000
4000
FFE0
ENDCHAR
STARTCHAR 017C
ENCODING 380
SWIDTH 450 0
DWIDTH 10 0
BBX 8 15 1 0
BITMAP
08
00
00
00
7F
02
02
04
08
10
10
20
40
80
FF
ENDCHAR
STARTCHAR 017D
ENCODING 381
SWIDTH 630 0
DWIDTH 14 0
BBX 12 19 1 0
BITMAP
0980
0600
0000
FFF0
0010
0020
0040
0080
0100
0100
0200
0400
0800
0800
1000
2000
4000
4000
FFE0
ENDCHAR
STARTCHAR 017E
ENCODING 382
SWIDTH 450 0
DWIDTH 10 0
BBX 8 16 1 0
BITMAP
22
14
08
00
00
7F
02
02
04
08
10
10
20
40
80
FF
ENDCHAR
STARTCHAR 017F
ENCODING 383
SWIDTH 270 0
DWIDTH 6 0
BBX 6 16 2 0
BITMAP
10
6C
40
80
80
80
80
80
80
80
80
80
80
80
80
80
ENDCHAR
STARTCHAR 018F
ENCODING 399
SWIDTH 810 0
DWIDTH 18 0
BBX 16 16 1 0
BITMAP
0380
1C70
0008
0004
0002
0002
0001
0001
FFFD
8001
8002
8002
4002
2004
1008
0FF0
ENDCHAR
STARTCHAR 0192
ENCODING 402
SWIDTH 405 0
DWIDTH 9 0
BBX 12 21 -2 -4
BITMAP
0040
0190
0200
0200
0200
0200
07C0
0200
0200
0400
0400
0400
0400
0400
0400
0400
0400
0800
0800
0800
F000
ENDCHAR
STARTCHAR 01A0
ENCODING 416
SWIDTH 810 0
DWIDTH 18 0
BBX 16 18 1 1
BITMAP
0001
0001
01C2
0E3C
3004
4002
4002
8001
8001
8001
8001
8001
8001
8001
4002
2004
1008
0FF0
ENDCHAR
STARTCHAR 01A1
ENCODING 417
SWIDTH 585 0
DWIDTH 13 0
BBX 11 15 1 0
BITMAP
0020
0020
0020
0640
3980
4040
8020
8020
8020
8020
8020
8020
4040
2040
1F80
ENDCHAR
STARTCHAR 01AF
ENCODING 431
SWIDTH 765 0
DWIDTH 17 0
BBX 14 19 3 0
BITMAP
0004
0004
0004
0018
8010
8010
8010
8010
8010
8010
8010
8010
8010
8010
8010
8020
8020
4040
3F80
ENDCHAR
STARTCHAR 01B0
ENCODING 432
SWIDTH 630 0
DWIDTH 14 0
BBX 12 15 2 0
BITMAP
0010
0010
0010
0020
8000
8040
8040
8040
8040
8040
8040
8040
8040
40C0
3F00
ENDCHAR
STARTCHAR 01B7
ENCODING 439
SWIDTH 585 0
DWIDTH 13 0
BBX 11 16 1 0
BITMAP
FFC0
0040
0080
0100
0200
0400
0400
0E00
0180
0040
0020
0020
0020
0040
8040
7F80
ENDCHAR
STARTCHAR 01C4
ENCODING 452
SWIDTH 1440 0
DWIDTH 32 0
BBX 28 19 3 0
BITMAP
00000980
00000600
00000000
FE00FFF0
81C00010
80300020
80080040
80080080
80040080
80040100
80040200
80040400
80040800
80040800
80081000
80082000
80104000
80204000
FFC0FFE0
ENDCHAR
STARTCHAR 01C5
ENCODING 453
SWIDTH 1305 0
DWIDTH 29 0
BBX 25 16 3 0
BITMAP
FE002000
81C01600
80300800
80080000
80080000
80047F80
80040100
80040200
80040400
80040400
80040800
80081000
80082000
80102000
80204000
FFC0FF00
ENDCHAR
STARTCHAR 01C6
ENCODING 454
SWIDTH 1170 0
DWIDTH 26 0
BBX 23 16 1 0
BITMAP
000004
002068
002010
002000
062000
39A0FE
406004
802004
802008
802010
802020
802020
802040
406080
206100
1F81FE
ENDCHAR
STARTCHAR 01C7
ENCODING 455
SWIDTH 1035 0
DWIDTH 23 0
BBX 18 16 3 0
BITMAP
001FC0
800040
800040
800040
800040
800040
800040
800040
800040
800040
800040
800040
800040
800080
802080
7F9F00
ENDCHAR
STARTCHAR 01C8
ENCODING 456
SWIDTH 810 0
DWIDTH 18 0
BBX 13 20 3 -4
BITMAP
0008
8000
8000
8000
8000
8000
8008
8008
8008
8008
8008
8008
8008
8008
8008
0008
7F88
0008
0008
00F0
ENDCHAR
STARTCHAR 01C9
ENCODING 457
SWIDTH 495 0
DWIDTH 11 0
BBX 6 20 3 -4
BITMAP
04
80
80
80
80
84
84
84
84
84
84
84
84
84
84
04
04
04
04
38
ENDCHAR
STARTCHAR 01CA
ENCODING 458
SWIDTH 1260 0
DWIDTH 28 0
BBX 23 16 3 0
BITMAP
00007E
801002
C01002
A01002
A01002
901002
881002
841002
821002
821002
811002
809002
805002
805002
803104
0010F8
ENDCHAR
STARTCHAR 01CB
ENCODING 459
SWIDTH 1035 0
DWIDTH 23 0
BBX 19 20 3 -4
BITMAP
000060
801000
C01000
A01000
A01000
901000
881040
841040
821040
821040
811040
809040
805040
805040
803040
001040
000040
000040
000040
0007C0
ENDCHAR
STARTCHAR 01CC
ENCODING 460
SWIDTH 900 0
DWIDTH 20 0
BBX 15 20 3 -4
BITMAP
0002
0000
0000
0000
0C00
7300
8082
8082
8082
8082
8082
8082
8082
8082
8082
0002
0002
0002
0002
003C
ENDCHAR
STARTCHAR 01CD
ENCODING 461
SWIDTH 675 0
DWIDTH 15 0
BBX 15 19 0 0
BITMAP
0440
0280
0100
0100
0300
0280
0280
0440
0440
0820
0820
1010
1010
2008
2FF8
4008
4004
8004
8002
ENDCHAR
STARTCHAR 01CE
ENCODING 462
SWIDTH 540 0
DWIDTH 12 0
BBX 9 16 1 0
BITMAP
2100
1200
0C00
0000
0C00
7300
0080
0080
0080
0080
7F80
8080
8080
8080
8180
7E00
ENDCHAR
STARTCHAR 01D3
ENCODING 467
SWIDTH 765 0
DWIDTH 17 0
BBX 12 19 3 0
BITMAP
1100
0A00
0400
0010
8010
8010
8010
8010
8010
8010
8010
8010
8010
8010
8010
8020
8020
4040
3F80
ENDCHAR
STARTCHAR 01D4
ENCODING 468
SWIDTH 630 0
DWIDTH 14 0
BBX 10 16 2 0
BITMAP
0100
1A00
0400
0000
0000
8000
8040
8040
8040
8040
8040
8040
8040
8040
40C0
3F00
ENDCHAR
STARTCHAR 01E4
ENCODING 484
SWIDTH 765 0
DWIDTH 17 0
BBX 15 16 1 0
BITMAP
01C0
0E38
3004
4000
4000
8000
8000
8000
8004
8004
8004
807E
4004
2004
1008
0FF0
ENDCHAR
STARTCHAR 01E5
ENCODING 485
SWIDTH 675 0
DWIDTH 15 0
BBX 13 16 1 -4
BITMAP
0600
3980
4060
8020
8020
8020
8020
8020
8020
4060
20A0
1F20
0020
03F8
4020
3FC0
ENDCHAR
STARTCHAR 01E6
ENCODING 486
SWIDTH 765 0
DWIDTH 17 0
BBX 14 19 1 0
BITMAP
0440
0380
0000
01C0
0E38
3004
4000
4000
8000
8000
8000
8004
8004
8004
8004
4004
2004
1008
0FF0
ENDCHAR
STARTCHAR 01E7
ENCODING 487
SWIDTH 675 0
DWIDTH 15 0
BBX 11 20 1 -4
BITMAP
1080
0B00
0400
0000
0600
3980
4060
8020
8020
8020
8020
8020
8020
4060
20A0
1F20
0020
0020
4020
3FC0
ENDCHAR
STARTCHAR 01E8
ENCODING 488
SWIDTH 675 0
DWIDTH 15 0
BBX 12 19 3 0
BITMAP
1300
0C00
0000
0000
8020
8040
8080
8100
8200
8400
8800
9800
A400
C200
8100
8080
8040
8020
0010
ENDCHAR
STARTCHAR 01E9
ENCODING 489
SWIDTH 540 0
DWIDTH 12 0
BBX 12 21 0 0
BITMAP
8000
5800
2000
0000
0000
0000
2000
2000
2000
2000
2020
2040
2180
2200
2600
2900
1080
2080
2040
2020
0010
ENDCHAR
STARTCHAR 01EA
ENCODING 490
SWIDTH 810 0
DWIDTH 18 0
BBX 16 21 1 -5
BITMAP
01C0
0E38
3004
4002
4002
8001
8001
8001
8001
8001
8001
8001
4002
2004
1008
0E30
01C0
0200
0200
0200
0180
ENDCHAR
STARTCHAR 01EB
ENCODING 491
SWIDTH 585 0
DWIDTH 13 0
BBX 11 17 1 -5
BITMAP
0600
3980
4040
8020
8020
8020
8020
8020
8020
4040
2040
1980
0600
0800
0800
0800
0700
ENDCHAR
STARTCHAR 01EE
ENCODING 494
SWIDTH 585 0
DWIDTH 13 0
BBX 11 19 1 0
BITMAP
1100
0E00
0000
FFC0
0040
0080
0100
0200
0400
0400
0E00
0180
0040
0020
0020
0020
0040
8040
7F80
ENDCHAR
STARTCHAR 01EF
ENCODING 495
SWIDTH 450 0
DWIDTH 10 0
BBX 11 20 -1 -4
BITMAP
1000
0B00
0400
0000
0000
3FC0
0080
0100
0100
0200
0400
0800
0780
0040
0020
0020
0020
0020
8040
7F80
ENDCHAR
STARTCHAR 01FA
ENCODING 506
SWIDTH 675 0
DWIDTH 15 0
BBX 15 23 0 0
BITMAP
0020
0040
0780
0440
0440
0380
0000
0100
0300
0280
0280
0440
0440
0820
0820
1010
1010
2008
2FF8
4008
4004
8004
8002
ENDCHAR
STARTCHAR 01FB
ENCODING 507
SWIDTH 540 0
DWIDTH 12 0
BBX 9 18 1 1
BITMAP
0100
1E00
2200
1200
0C00
0000
0C00
7300
0080
0080
0080
0080
7F80
8080
8080
8080
8180
7E00
ENDCHAR
STARTCHAR 01FC
ENCODING 508
SWIDTH 990 0
DWIDTH 22 0
BBX 20 19 0 0
BITMAP
000800
003000
000000
003FF0
006000
00A000
00A000
012000
022000
022000
042000
082FC0
082000
102000
1FE000
202000
402000
402000
803FF0
ENDCHAR
STARTCHAR 01FD
ENCODING 509
SWIDTH 945 0
DWIDTH 21 0
BBX 20 16 1 0
BITMAP
001000
006000
008000
000000
0C0200
731980
00A040
004020
004020
008010
7FBFE0
808000
804000
80C000
812020
7E1FC0
ENDCHAR
STARTCHAR 01FE
ENCODING 510
SWIDTH 810 0
DWIDTH 18 0
BBX 16 21 1 -2
BITMAP
0060
0080
0002
01C4
0E38
300C
4012
4022
8021
8041
8081
8101
8101
8201
8401
4802
2804
1008
2E30
41C0
4000
ENDCHAR
STARTCHAR 01FF
ENCODING 511
SWIDTH 585 0
DWIDTH 13 0
BBX 11 17 1 -2
BITMAP
0100
0200
0400
0020
0640
3980
40C0
8120
8220
8220
8420
8820
8820
5040
2040
5980
4600
ENDCHAR
STARTCHAR 0200
ENCODING 512
SWIDTH 675 0
DWIDTH 15 0
BBX 15 19 0 0
BITMAP
0900
0480
0000
0100
0300
0280
0280
0440
0440
0820
0820
1010
1010
2008
2FF8
4008
4004
8004
8002
ENDCHAR
STARTCHAR 0201
ENCODING 513
SWIDTH 540 0
DWIDTH 12 0
BBX 9 16 1 0
BITMAP
4800
2400
1200
0000
0C00
7300
0080
0080
0080
0080
7F80
8080
8080
8080
8180
7E00
ENDCHAR
STARTCHAR 0202
ENCODING 514
SWIDTH 675 0
DWIDTH 15 0
BBX 15 19 0 0
BITMAP
07C0
0000
0000
0100
0300
0280
0280
0440
0440
0820
0820
1010
1010
2008
2FF8
4008
4004
8004
8002
ENDCHAR
STARTCHAR 0203
ENCODING 515
SWIDTH 540 0
DWIDTH 12 0
BBX 9 16 1 0
BITMAP
1E00
2100
2000
0000
0C00
7300
0080
0080
0080
0080
7F80
8080
8080
8080
8180
7E00
ENDCHAR
STARTCHAR 0204
ENCODING 516
SWIDTH 630 0
DWIDTH 14 0
BBX 10 19 3 0
BITMAP
4800
2400
0000
FFC0
8000
8000
8000
8000
8000
8000
8000
FF00
8000
8000
8000
8000
8000
8000
FF80
ENDCHAR
STARTCHAR 0205
ENCODING 517
SWIDTH 585 0
DWIDTH 13 0
BBX 11 15 1 1
BITMAP
2400
1200
0000
0400
3B80
4040
8040
8020
8020
FFC0
8000
8000
4000
2040
1F80
ENDCHAR
STARTCHAR 0206
ENCODING 518
SWIDTH 630 0
DWIDTH 14 0
BBX 10 19 3 0
BITMAP
3E00
2100
0000
FFC0
8000
8000
8000
8000
8000
8000
8000
FF00
8000
8000
8000
8000
8000
8000
FF80
ENDCHAR
STARTCHAR 0207
ENCODING 519
SWIDTH 585 0
DWIDTH 13 0
BBX 11 16 1 0
BITMAP
0E00
3100
0000
0000
0400
3B80
4040
8040
8020
8020
FFC0
8000
8000
4000
2040
1F80
ENDCHAR
STARTCHAR 0208
ENCODING 520
SWIDTH 270 0
DWIDTH 6 0
BBX 6 18 -1 0
BITMAP
90
48
04
00
10
10
10
10
10
10
10
10
10
10
10
10
10
10
ENDCHAR
STARTCHAR 0209
ENCODING 521
SWIDTH 225 0
DWIDTH 5 0
BBX 6 15 -1 0
BITMAP
90
48
24
00
00
00
10
10
10
10
10
10
10
10
10
ENDCHAR
STARTCHAR 020A
ENCODING 522
SWIDTH 270 0
DWIDTH 6 0
BBX 6 18 0 0
BITMAP
78
84
00
00
20
20
20
20
20
20
20
20
20
20
20
20
20
20
ENDCHAR
STARTCHAR 020B
ENCODING 523
SWIDTH 225 0
DWIDTH 5 0
BBX 5 15 0 0
BITMAP
70
88
80
00
00
00
20
20
20
20
20
20
20
20
20
ENDCHAR
STARTCHAR 020C
ENCODING 524
SWIDTH 810 0
DWIDTH 18 0
BBX 16 19 1 0
BITMAP
0900
0480
0240
01C0
0E38
3004
4002
4002
8001
8001
8001
8001
8001
8001
8001
4002
2004
1008
0FF0
ENDCHAR
STARTCHAR 020D
ENCODING 525
SWIDTH 585 0
DWIDTH 13 0
BBX 11 16 1 0
BITMAP
2400
1200
0900
0000
0600
3980
4040
8020
8020
8020
8020
8020
8020
4040
2040
1F80
ENDCHAR
STARTCHAR 020E
ENCODING 526
SWIDTH 810 0
DWIDTH 18 0
BBX 16 19 1 0
BITMAP
03E0
0400
0000
01C0
0E38
3004
4002
4002
8001
8001
8001
8001
8001
8001
8001
4002
2004
1008
0FF0
ENDCHAR
STARTCHAR 020F
ENCODING 527
SWIDTH 585 0
DWIDTH 13 0
BBX 11 16 1 0
BITMAP
0F00
1100
0080
0000
0600
3980
4040
8020
8020
8020
8020
8020
8020
4040
2040
1F80
ENDCHAR
STARTCHAR 0210
ENCODING 528
SWIDTH 675 0
DWIDTH 15 0
BBX 11 19 3 0
BITMAP
4800
2400
0000
FC00
8380
8040
8020
8020
8020
8020
8020
8040
8080
FF00
8100
8080
8040
8040
0020
ENDCHAR
STARTCHAR 0211
ENCODING 529
SWIDTH 360 0
DWIDTH 8 0
BBX 7 15 1 0
BITMAP
90
48
24
00
02
1C
20
40
40
40
40
40
40
40
40
ENDCHAR
STARTCHAR 0212
ENCODING 530
SWIDTH 675 0
DWIDTH 15 0
BBX 11 19 3 0
BITMAP
1E00
2100
0000
FC00
8380
8040
8020
8020
8020
8020
8020
8040
8080
FF00
8100
8080
8040
8040
0020
ENDCHAR
STARTCHAR 0213
ENCODING 531
SWIDTH 360 0
DWIDTH 8 0
BBX 6 15 2 0
BITMAP
78
84
80
00
04
38
40
80
80
80
80
80
80
80
80
ENDCHAR
STARTCHAR 0214
ENCODING 532
SWIDTH 765 0
DWIDTH 17 0
BBX 12 19 3 0
BITMAP
2400
1200
0000
0010
8010
8010
8010
8010
8010
8010
8010
8010
8010
8010
8010
8020
8020
4040
3F80
ENDCHAR
STARTCHAR 0215
ENCODING 533
SWIDTH 630 0
DWIDTH 14 0
BBX 10 16 2 0
BITMAP
4800
2400
1200
0000
0000
8000
8040
8040
8040
8040
8040
8040
8040
8040
40C0
3F00
ENDCHAR
STARTCHAR 0216
ENCODING 534
SWIDTH 765 0
DWIDTH 17 0
BBX 12 19 3 0
BITMAP
1F00
0080
0000
0010
8010
8010
8010
8010
8010
8010
8010
8010
8010
8010
8010
8020
8020
4040
3F80
ENDCHAR
STARTCHAR 0217
ENCODING 535
SWIDTH 630 0
DWIDTH 14 0
BBX 10 16 2 0
BITMAP
1E00
2100
2000
0000
0000
8000
8040
8040
8040
8040
8040
8040
8040
8040
40C0
3F00
ENDCHAR
STARTCHAR 0218
ENCODING 536
SWIDTH 585 0
DWIDTH 13 0
BBX 11 21 1 -6
BITMAP
0E00
31C0
4000
8000
8000
8000
4000
3000
0F00
00C0
0020
0020
0020
0020
4040
3180
0E00
0000
0000
0200
0400
ENDCHAR
STARTCHAR 0219
ENCODING 537
SWIDTH 450 0
DWIDTH 10 0
BBX 8 17 1 -6
BITMAP
18
67
80
80
80
40
3C
03
01
01
01
E2
1C
00
00
08
10
ENDCHAR
STARTCHAR 021A
ENCODING 538
SWIDTH 540 0
DWIDTH 12 0
BBX 12 21 0 -6
BITMAP
FFF0
0400
0400
0400
0400
0400
0400
0400
0400
0400
0400
0400
0400
0400
0400
0000
0000
0000
0000
0200
0400
ENDCHAR
STARTCHAR 021B
ENCODING 539
SWIDTH 360 0
DWIDTH 8 0
BBX 5 18 2 -5
BITMAP
80
80
F0
80
80
80
80
80
80
80
80
80
68
10
00
00
10
10
ENDCHAR
STARTCHAR 021E
ENCODING 542
SWIDTH 810 0
DWIDTH 18 0
BBX 12 18 3 0
BITMAP
0980
0600
0000
0000
8010
8010
8010
8010
8010
8010
8010
FFF0
8010
8010
8010
8010
8010
8010
ENDCHAR
STARTCHAR 021F
ENCODING 543
SWIDTH 630 0
DWIDTH 14 0
BBX 12 20 0 0
BITMAP
8000
5800
2000
0000
0000
0000
2000
2000
2000
2180
2E60
3010
2010
2010
2010
2010
2010
2010
2010
2010
ENDCHAR
STARTCHAR 022A
ENCODING 554
SWIDTH 810 0
DWIDTH 18 0
BBX 16 20 1 0
BITMAP
03C0
0220
0000
0000
01C0
0E38
3004
4002
4002
8001
8001
8001
8001
8001
8001
8001
4002
2004
1008
0FF0
ENDCHAR
STARTCHAR 022B
ENCODING 555
SWIDTH 585 0
DWIDTH 13 0
BBX 11 17 1 0
BITMAP
0F00
0000
1100
0000
0000
0600
3980
4040
8020
8020
8020
8020
8020
8020
4040
2040
1F80
ENDCHAR
STARTCHAR 022C
ENCODING 556
SWIDTH 810 0
DWIDTH 18 0
BBX 16 20 1 0
BITMAP
03C0
0300
04E0
0000
01C0
0E38
3004
4002
4002
8001
8001
8001
8001
8001
8001
8001
4002
2004
1008
0FF0
ENDCHAR
STARTCHAR 022D
ENCODING 557
SWIDTH 585 0
DWIDTH 13 0
BBX 11 17 1 0
BITMAP
0F00
0000
1C80
0300
0000
0600
3980
4040
8020
8020
8020
8020
8020
8020
4040
2040
1F80
ENDCHAR
STARTCHAR 0230
ENCODING 560
SWIDTH 810 0
DWIDTH 18 0
BBX 16 20 1 0
BITMAP
03C0
0080
0000
0000
01C0
0E38
3004
4002
4002
8001
8001
8001
8001
8001
8001
8001
4002
2004
1008
0FF0
ENDCHAR
STARTCHAR 0231
ENCODING 561
SWIDTH 585 0
DWIDTH 13 0
BBX 11 17 1 0
BITMAP
0F00
0000
0400
0000
0000
0600
3980
4040
8020
8020
8020
8020
8020
8020
4040
2040
1F80
ENDCHAR
STARTCHAR 0232
ENCODING 562
SWIDTH 585 0
DWIDTH 13 0
BBX 13 17 0 0
BITMAP
0780
0000
8000
8008
4010
2020
2020
1040
1040
0880
0500
0500
0200
0200
0200
0200
0200
ENDCHAR
STARTCHAR 0233
ENCODING 563
SWIDTH 495 0
DWIDTH 11 0
BBX 12 19 -1 -4
BITMAP
1F80
0000
0000
0000
0010
2020
2020
2040
1040
1080
0880
0900
0500
0500
0200
0200
0400
0400
F800
ENDCHAR
STARTCHAR 0237
ENCODING 567
SWIDTH 225 0
DWIDTH 5 0
BBX 5 14 -2 -3
BITMAP
08
08
08
08
08
08
08
08
08
08
08
08
08
F0
ENDCHAR
STARTCHAR 0259
ENCODING 601
SWIDTH 585 0
DWIDTH 13 0
BBX 11 12 1 0
BITMAP
0C00
3380
4040
0040
0020
0020
FFE0
8020
8040
4040
4080
3F00
ENDCHAR
STARTCHAR 0292
ENCODING 658
SWIDTH 450 0
DWIDTH 10 0
BBX 11 15 -1 -4
BITMAP
3FC0
0080
0100
0100
0200
0400
0800
0780
0040
0020
0020
0020
0020
8040
7F80
ENDCHAR
STARTCHAR 02B9
ENCODING 697
SWIDTH 180 0
DWIDTH 4 0
BBX 1 4 2 11
BITMAP
80
80
80
80
ENDCHAR
STARTCHAR 02BA
ENCODING 698
SWIDTH 315 0
DWIDTH 7 0
BBX 4 6 2 10
BITMAP
10
90
90
90
90
10
ENDCHAR
STARTCHAR 02BB
ENCODING 699
SWIDTH 225 0
DWIDTH 5 0
BBX 1 3 2 14
BITMAP
80
80
80
ENDCHAR
STARTCHAR 02BC
ENCODING 700
SWIDTH 180 0
DWIDTH 4 0
BBX 2 3 1 13
BITMAP
40
80
80
ENDCHAR
STARTCHAR 02BE
ENCODING 702
SWIDTH 585 0
DWIDTH 13 0
BBX 2 4 7 13
BITMAP
80
40
40
80
ENDCHAR
STARTCHAR 02BF
ENCODING 703
SWIDTH 585 0
DWIDTH 13 0
BBX 2 4 5 13
BITMAP
80
80
80
40
ENDCHAR
STARTCHAR 02C6
ENCODING 710
SWIDTH 585 0
DWIDTH 13 0
BBX 6 3 4 13
BITMAP
30
C8
04
ENDCHAR
STARTCHAR 02C7
ENCODING 711
SWIDTH 585 0
DWIDTH 13 0
BBX 5 3 4 13
BITMAP
80
58
20
ENDCHAR
STARTCHAR 02C8
ENCODING 712
SWIDTH 135 0
DWIDTH 3 0
BBX 1 4 1 12
BITMAP
80
80
80
80
ENDCHAR
STARTCHAR 02C9
ENCODING 713
SWIDTH 585 0
DWIDTH 13 0
BBX 6 1 4 14
BITMAP
FC
ENDCHAR
STARTCHAR 02CA
ENCODING 714
SWIDTH 585 0
DWIDTH 13 0
BBX 3 3 6 13
BITMAP
20
40
80
ENDCHAR
STARTCHAR 02CB
ENCODING 715
SWIDTH 585 0
DWIDTH 13 0
BBX 4 3 4 13
BITMAP
80
40
30
ENDCHAR
STARTCHAR 02CC
ENCODING 716
SWIDTH 135 0
DWIDTH 3 0
BBX 1 4 1 -5
BITMAP
80
80
80
80
ENDCHAR
STARTCHAR 02D8
ENCODING 728
SWIDTH 585 0
DWIDTH 13 0
BBX 6 3 4 13
BITMAP
04
88
70
ENDCHAR
STARTCHAR 02D9
ENCODING 729
SWIDTH 585 0
DWIDTH 13 0
BBX 1 1 6 14
BITMAP
80
ENDCHAR
STARTCHAR 02DA
ENCODING 730
SWIDTH 585 0
DWIDTH 13 0
BBX 4 4 5 13
BITMAP
E0
90
90
60
ENDCHAR
STARTCHAR 02DB
ENCODING 731
SWIDTH 585 0
DWIDTH 13 0
BBX 4 5 3 -5
BITMAP
20
C0
80
80
70
ENDCHAR
STARTCHAR 02DC
ENCODING 732
SWIDTH 585 0
DWIDTH 13 0
BBX 6 2 4 14
BITMAP
C4
38
ENDCHAR
STARTCHAR 02DD
ENCODING 733
SWIDTH 585 0
DWIDTH 13 0
BBX 6 3 5 13
BITMAP
24
48
90
ENDCHAR
STARTCHAR 0300
ENCODING 768
SWIDTH 0 0
DWIDTH 0 0
BBX 4 3 4 13
BITMAP
80
40
30
ENDCHAR
STARTCHAR 0301
ENCODING 769
SWIDTH 0 0
DWIDTH 0 0
BBX 3 3 6 13
BITMAP
20
40
80
ENDCHAR
STARTCHAR 0302
ENCODING 770
SWIDTH 0 0
DWIDTH 0 0
BBX 6 3 4 13
BITMAP
30
C8
04
ENDCHAR
STARTCHAR 0303
ENCODING 771
SWIDTH 0 0
DWIDTH 0 0
BBX 6 2 4 14
BITMAP
C4
38
ENDCHAR
STARTCHAR 0304
ENCODING 772
SWIDTH 0 0
DWIDTH 0 0
BBX 6 1 4 14
BITMAP
FC
ENDCHAR
STARTCHAR 0306
ENCODING 774
SWIDTH 0 0
DWIDTH 0 0
BBX 6 3 4 13
BITMAP
04
88
70
ENDCHAR
STARTCHAR 0307
ENCODING 775
SWIDTH 0 0
DWIDTH 0 0
BBX 1 1 6 14
BITMAP
80
ENDCHAR
STARTCHAR 0308
ENCODING 776
SWIDTH 0 0
DWIDTH 0 0
BBX 5 1 4 14
BITMAP
88
ENDCHAR
STARTCHAR 0309
ENCODING 777
SWIDTH 0 0
DWIDTH 0 0
BBX 3 3 5 13
BITMAP
E0
20
20
ENDCHAR
STARTCHAR 030A
ENCODING 778
SWIDTH 0 0
DWIDTH 0 0
BBX 4 4 5 13
BITMAP
E0
90
90
60
ENDCHAR
STARTCHAR 030B
ENCODING 779
SWIDTH 0 0
DWIDTH 0 0
BBX 6 3 5 13
BITMAP
24
48
90
ENDCHAR
STARTCHAR 030C
ENCODING 780
SWIDTH 0 0
DWIDTH 0 0
BBX 5 3 4 13
BITMAP
80
58
20
ENDCHAR
STARTCHAR 030F
ENCODING 783
SWIDTH 0 0
DWIDTH 0 0
BBX 6 2 3 14
BITMAP
90
4C
ENDCHAR
STARTCHAR 0311
ENCODING 785
SWIDTH 0 0
DWIDTH 0 0
BBX 6 3 4 13
BITMAP
70
88
04
ENDCHAR
STARTCHAR 0312
ENCODING 786
SWIDTH 0 0
DWIDTH 0 0
BBX 1 3 6 14
BITMAP
80
80
80
ENDCHAR
STARTCHAR 031B
ENCODING 795
SWIDTH 0 0
DWIDTH 0 0
BBX 2 3 7 12
BITMAP
40
40
80
ENDCHAR
STARTCHAR 0323
ENCODING 803
SWIDTH 0 0
DWIDTH 0 0
BBX 1 1 6 -4
BITMAP
80
ENDCHAR
STARTCHAR 0324
ENCODING 804
SWIDTH 0 0
DWIDTH 0 0
BBX 5 1 4 -4
BITMAP
C8
ENDCHAR
STARTCHAR 0326
ENCODING 806
SWIDTH 0 0
DWIDTH 0 0
BBX 1 3 6 -6
BITMAP
80
80
80
ENDCHAR
STARTCHAR 0327
ENCODING 807
SWIDTH 0 0
DWIDTH 0 0
BBX 3 5 5 -5
BITMAP
40
40
20
20
C0
ENDCHAR
STARTCHAR 0328
ENCODING 808
SWIDTH 0 0
DWIDTH 0 0
BBX 4 5 3 -5
BITMAP
20
C0
80
80
70
ENDCHAR
STARTCHAR 032E
ENCODING 814
SWIDTH 0 0
DWIDTH 0 0
BBX 6 2 4 -4
BITMAP
04
F8
ENDCHAR
STARTCHAR 0331
ENCODING 817
SWIDTH 0 0
DWIDTH 0 0
BBX 6 1 4 -4
BITMAP
FC
ENDCHAR
STARTCHAR 0335
ENCODING 821
SWIDTH 0 0
DWIDTH 0 0
BBX 7 1 3 9
BITMAP
FE
ENDCHAR
STARTCHAR 0336
ENCODING 822
SWIDTH 0 0
DWIDTH 0 0
BBX 16 1 1 9
BITMAP
FFFF
ENDCHAR
STARTCHAR 0337
ENCODING 823
SWIDTH 0 0
DWIDTH 0 0
BBX 3 3 2 7
BITMAP
20
40
80
ENDCHAR
STARTCHAR 0338
ENCODING 824
SWIDTH 0 0
DWIDTH 0 0
BBX 10 14 2 -2
BITMAP
0040
0080
0100
0100
0200
0400
0800
0800
1000
2000
2000
4000
8000
8000
ENDCHAR
STARTCHAR 0394
ENCODING 916
SWIDTH 675 0
DWIDTH 15 0
BBX 15 16 0 0
BITMAP
0100
0300
0280
0480
0440
0440
0820
0820
1010
1010
2008
2008
4008
4004
8004
FFFE
ENDCHAR
STARTCHAR 03A9
ENCODING 937
SWIDTH 900 0
DWIDTH 20 0
BBX 18 16 1 0
BITMAP
00E000
071800
180600
200100
200100
400080
400080
400080
400080
400080
400080
400100
200100
100200
080400
FC0FC0
ENDCHAR
STARTCHAR 03BC
ENCODING 956
SWIDTH 630 0
DWIDTH 14 0
BBX 9 13 3 -3
BITMAP
8080
8080
8080
8080
8080
8080
8080
8080
8180
E200
9C00
8000
8000
ENDCHAR
STARTCHAR 03C0
ENCODING 960
SWIDTH 675 0
DWIDTH 15 0
BBX 15 11 0 0
BITMAP
FFFE
8410
8410
8410
8810
0810
0810
0810
0810
0810
0810
ENDCHAR
STARTCHAR 0400
ENCODING 1024
SWIDTH 630 0
DWIDTH 14 0
BBX 10 19 3 0
BITMAP
1000
0800
0000
FFC0
8000
8000
8000
8000
8000
8000
8000
FF00
8000
8000
8000
8000
8000
8000
FF80
ENDCHAR
STARTCHAR 0401
ENCODING 1025
SWIDTH 630 0
DWIDTH 14 0
BBX 10 19 3 0
BITMAP
1200
0000
0000
FFC0
8000
8000
8000
8000
8000
8000
8000
FF00
8000
8000
8000
8000
8000
8000
FF80
ENDCHAR
STARTCHAR 0402
ENCODING 1026
SWIDTH 810 0
DWIDTH 18 0
BBX 17 16 0 0
BITMAP
FFF800
040000
040000
040000
040000
040000
040000
04FE00
050100
040080
040080
040080
040080
040100
040100
003E00
ENDCHAR
STARTCHAR 0403
ENCODING 1027
SWIDTH 540 0
DWIDTH 12 0
BBX 9 18 3 0
BITMAP
0600
0800
0000
FF80
8000
8000
8000
8000
8000
8000
8000
8000
8000
8000
8000
8000
8000
8000
ENDCHAR
STARTCHAR 0404
ENCODING 1028
SWIDTH 675 0
DWIDTH 15 0
BBX 13 16 2 0
BITMAP
0380
1C70
2008
4000
8000
8000
8000
8000
FF80
8000
8000
8000
8000
4000
2010
1FE0
ENDCHAR
STARTCHAR 0405
ENCODING 1029
SWIDTH 585 0
DWIDTH 13 0
BBX 11 16 1 0
BITMAP
0E00
31C0
4000
8000
8000
8000
4000
3000
0F00
00C0
0020
0020
0020
0020
4040
3F80
ENDCHAR
STARTCHAR 0406
ENCODING 1030
SWIDTH 270 0
DWIDTH 6 0
BBX 1 14 3 1
BITMAP
80
80
80
80
80
80
80
80
80
80
80
80
80
80
ENDCHAR
STARTCHAR 0407
ENCODING 1031
SWIDTH 270 0
DWIDTH 6 0
BBX 2 18 1 0
BITMAP
80
00
00
00
40
40
40
40
40
40
40
40
40
40
40
40
40
40
ENDCHAR
STARTCHAR 0408
ENCODING 1032
SWIDTH 495 0
DWIDTH 11 0
BBX 7 16 1 0
BITMAP
7E
02
02
02
02
02
02
02
02
02
02
02
02
02
82
7C
ENDCHAR
STARTCHAR 0409
ENCODING 1033
SWIDTH 1170 0
DWIDTH 26 0
BBX 24 16 1 0
BITMAP
1FF800
100800
100800
100800
100800
100800
1007F8
100806
100801
100801
200801
200801
200801
200801
400802
C00FFC
ENDCHAR
STARTCHAR 040A
ENCODING 1034
SWIDTH 1170 0
DWIDTH 26 0
BBX 22 16 3 0
BITMAP
001000
801000
801000
801000
801000
801000
801000
FFFFE0
801018
801004
801004
801004
801004
801004
801008
001FF0
ENDCHAR
STARTCHAR 040B
ENCODING 1035
SWIDTH 810 0
DWIDTH 18 0
BBX 17 16 0 0
BITMAP
FFF800
040000
040000
040000
040000
040000
040000
04FE00
070100
040080
040080
040080
040080
040080
040080
000080
ENDCHAR
STARTCHAR 040C
ENCODING 1036
SWIDTH 675 0
DWIDTH 15 0
BBX 11 19 3 0
BITMAP
0600
0800
0000
0000
8060
8080
8080
8100
8200
8400
8800
F800
8400
8200
8100
8080
8080
8040
0020
ENDCHAR
STARTCHAR 040D
ENCODING 1037
SWIDTH 810 0
DWIDTH 18 0
BBX 12 19 3 0
BITMAP
0800
0400
0000
0000
8010
8030
8050
8090
8090
8110
8210
8410
8810
8810
9010
A010
C010
C010
8000
ENDCHAR
STARTCHAR 040E
ENCODING 1038
SWIDTH 630 0
DWIDTH 14 0
BBX 13 19 1 0
BITMAP
1080
0900
0600
0000
8008
8010
4010
4020
2040
2040
1080
1080
0900
0900
0600
0200
0400
0800
7800
ENDCHAR
STARTCHAR 040F
ENCODING 1039
SWIDTH 765 0
DWIDTH 17 0
BBX 12 19 3 -4
BITMAP
0010
8010
8010
8010
8010
8010
8010
8010
8010
8010
8010
8010
8010
8010
8010
8010
7FE0
0400
0400
ENDCHAR
STARTCHAR 0410
ENCODING 1040
SWIDTH 675 0
DWIDTH 15 0
BBX 14 15 1 1
BITMAP
0300
0500
0480
0880
0840
1040
1040
1020
2020
2010
5FF0
4008
8008
8004
8004
ENDCHAR
STARTCHAR 0411
ENCODING 1041
SWIDTH 675 0
DWIDTH 15 0
BBX 12 16 3 0
BITMAP
FFE0
8000
8000
8000
8000
8000
8000
FF00
80C0
8020
8020
8010
8020
8020
8040
FF80
ENDCHAR
STARTCHAR 0412
ENCODING 1042
SWIDTH 720 0
DWIDTH 16 0
BBX 12 16 3 0
BITMAP
FE00
81C0
8020
8020
8020
8020
8040
8080
FF40
8020
8010
8010
8010
8010
8020
FFC0
ENDCHAR
STARTCHAR 0413
ENCODING 1043
SWIDTH 540 0
DWIDTH 12 0
BBX 9 15 3 0
BITMAP
FF80
8000
8000
8000
8000
8000
8000
8000
8000
8000
8000
8000
8000
8000
8000
ENDCHAR
STARTCHAR 0414
ENCODING 1044
SWIDTH 765 0
DWIDTH 17 0
BBX 16 20 0 -4
BITMAP
0FFC
0804
0804
0804
0804
1004
1004
1004
1004
1004
1004
1004
1004
1004
2004
4004
BFFB
8001
8001
8000
ENDCHAR
STARTCHAR 0415
ENCODING 1045
SWIDTH 630 0
DWIDTH 14 0
BBX 10 16 3 0
BITMAP
FFC0
8000
8000
8000
8000
8000
8000
8000
FF00
8000
8000
8000
8000
8000
8000
FF80
ENDCHAR
STARTCHAR 0416
ENCODING 1046
SWIDTH 945 0
DWIDTH 21 0
BBX 20 16 1 0
BITMAP
800000
804020
404040
204080
104080
104100
084200
044400
05DC00
084200
104100
104080
204080
404040
804020
800010
ENDCHAR
STARTCHAR 0417
ENCODING 1047
SWIDTH 585 0
DWIDTH 13 0
BBX 11 16 1 0
BITMAP
0E00
7180
0040
0040
0040
0040
0040
0180
0E80
0040
0020
0020
0020
0020
8040
7F80
ENDCHAR
STARTCHAR 0418
ENCODING 1048
SWIDTH 810 0
DWIDTH 18 0
BBX 12 15 3 1
BITMAP
8010
8030
8050
8090
8090
8110
8210
8410
8810
8810
9010
A010
C010
C010
8000
ENDCHAR
STARTCHAR 0419
ENCODING 1049
SWIDTH 810 0
DWIDTH 18 0
BBX 12 19 3 0
BITMAP
1080
0900
0600
0000
8010
8030
8050
8090
8090
8110
8210
8410
8810
8810
9010
A010
C010
C010
8000
ENDCHAR
STARTCHAR 041A
ENCODING 1050
SWIDTH 675 0
DWIDTH 15 0
BBX 11 15 3 1
BITMAP
8060
8080
8080
8100
8200
8400
8800
F800
8400
8200
8100
8080
8080
8040
0020
ENDCHAR
STARTCHAR 041B
ENCODING 1051
SWIDTH 765 0
DWIDTH 17 0
BBX 13 16 1 0
BITMAP
1FF8
1008
1008
1008
1008
1008
1008
1008
1008
1008
2008
2008
2008
2008
4008
C000
ENDCHAR
STARTCHAR 041C
ENCODING 1052
SWIDTH 945 0
DWIDTH 21 0
BBX 15 14 3 1
BITMAP
8002
C006
C006
A00A
A00A
9012
9022
8822
8442
8442
8282
8282
8102
8002
ENDCHAR
STARTCHAR 041D
ENCODING 1053
SWIDTH 810 0
DWIDTH 18 0
BBX 12 16 3 0
BITMAP
8000
8010
8010
8010
8010
8010
8010
8010
FFF0
8010
8010
8010
8010
8010
8010
8000
ENDCHAR
STARTCHAR 041E
ENCODING 1054
SWIDTH 855 0
DWIDTH 19 0
BBX 15 16 2 0
BITMAP
0380
1C70
2008
4004
8002
8002
8002
8002
8002
8002
8002
8002
8004
4004
2018
1FE0
ENDCHAR
STARTCHAR 041F
ENCODING 1055
SWIDTH 810 0
DWIDTH 18 0
BBX 12 15 3 0
BITMAP
FFF0
8010
8010
8010
8010
8010
8010
8010
8010
8010
8010
8010
8010
8010
8010
ENDCHAR
STARTCHAR 0420
ENCODING 1056
SWIDTH 675 0
DWIDTH 15 0
BBX 11 16 3 0
BITMAP
FC00
8380
8040
8020
8020
8020
8020
8020
8020
8040
FF80
8000
8000
8000
8000
8000
ENDCHAR
STARTCHAR 0421
ENCODING 1057
SWIDTH 675 0
DWIDTH 15 0
BBX 13 16 2 0
BITMAP
0380
1C70
2008
4000
8000
8000
8000
8000
8000
8000
8000
8000
8000
4000
2010
1FE0
ENDCHAR
STARTCHAR 0422
ENCODING 1058
SWIDTH 540 0
DWIDTH 12 0
BBX 12 15 0 0
BITMAP
FFF0
0400
0400
0400
0400
0400
0400
0400
0400
0400
0400
0400
0400
0400
0400
ENDCHAR
STARTCHAR 0423
ENCODING 1059
SWIDTH 630 0
DWIDTH 14 0
BBX 13 15 1 1
BITMAP
8008
8010
4010
4020
2040
2040
1080
1080
0900
0900
0600
0200
0400
0800
7800
ENDCHAR
STARTCHAR 0424
ENCODING 1060
SWIDTH 855 0
DWIDTH 19 0
BBX 18 14 1 1
BITMAP
008000
0FFC00
308300
408100
808080
808080
808040
808040
808040
808080
408080
208100
108200
0FFC00
ENDCHAR
STARTCHAR 0425
ENCODING 1061
SWIDTH 585 0
DWIDTH 13 0
BBX 12 16 1 0
BITMAP
8000
8020
4040
2080
1080
1100
0A00
0400
0400
0A00
1100
2080
2080
4040
8020
8010
ENDCHAR
STARTCHAR 0426
ENCODING 1062
SWIDTH 810 0
DWIDTH 18 0
BBX 14 19 3 -4
BITMAP
0010
8010
8010
8010
8010
8010
8010
8010
8010
8010
8010
8010
8010
8010
8010
8010
7FEC
0004
0004
ENDCHAR
STARTCHAR 0427
ENCODING 1063
SWIDTH 720 0
DWIDTH 16 0
BBX 11 14 2 1
BITMAP
8020
8020
8020
8020
8020
8020
8020
8020
60E0
1F20
0020
0020
0020
0020
ENDCHAR
STARTCHAR 0428
ENCODING 1064
SWIDTH 1080 0
DWIDTH 24 0
BBX 18 15 3 1
BITMAP
808040
808040
808040
808040
808040
808040
808040
808040
808040
808040
808040
808040
808040
808040
FFFFC0
ENDCHAR
STARTCHAR 0429
ENCODING 1065
SWIDTH 1080 0
DWIDTH 24 0
BBX 21 19 3 -3
BITMAP
808040
808040
808040
808040
808040
808040
808040
808040
808040
808040
808040
808040
808040
808040
808040
7F7F98
000008
000008
000008
ENDCHAR
STARTCHAR 042A
ENCODING 1066
SWIDTH 765 0
DWIDTH 17 0
BBX 17 16 0 0
BITMAP
FC0000
040000
040000
040000
040000
040000
07F800
040600
040100
040080
040080
040080
040080
040100
040100
07FE00
ENDCHAR
STARTCHAR 042B
ENCODING 1067
SWIDTH 945 0
DWIDTH 21 0
BBX 15 15 3 1
BITMAP
8002
8002
8002
8002
8002
FF02
80C2
8022
8022
8022
8022
8022
8022
8042
FF80
ENDCHAR
STARTCHAR 042C
ENCODING 1068
SWIDTH 675 0
DWIDTH 15 0
BBX 11 15 3 1
BITMAP
8000
8000
8000
8000
8000
FF00
80C0
8020
8020
8020
8020
8020
8020
8040
FF80
ENDCHAR
STARTCHAR 042D
ENCODING 1069
SWIDTH 675 0
DWIDTH 15 0
BBX 13 16 1 0
BITMAP
0E00
71C0
0020
0010
0010
0008
0008
0008
07F8
0008
0008
0010
0010
0020
8040
7F80
ENDCHAR
STARTCHAR 042E
ENCODING 1070
SWIDTH 1080 0
DWIDTH 24 0
BBX 19 16 3 0
BITMAP
003800
80C700
830080
840040
840020
880020
880020
880020
E80020
880020
880020
840020
840040
820040
810080
00FF00
ENDCHAR
STARTCHAR 042F
ENCODING 1071
SWIDTH 720 0
DWIDTH 16 0
BBX 11 16 2 0
BITMAP
07E0
3820
C020
8020
8020
8020
8020
8020
8020
4020
3FE0
2020
2020
4020
8020
8000
ENDCHAR
STARTCHAR 0430
ENCODING 1072
SWIDTH 540 0
DWIDTH 12 0
BBX 9 12 1 0
BITMAP
0C00
7300
0080
0080
0080
0080
7F80
8080
8080
8080
8180
7E00
ENDCHAR
STARTCHAR 0431
ENCODING 1073
SWIDTH 630 0
DWIDTH 14 0
BBX 11 17 2 0
BITMAP
0060
0780
3800
4000
8000
8000
9F80
E040
8040
8020
8020
8020
8020
8020
8040
4080
3F00
ENDCHAR
STARTCHAR 0432
ENCODING 1074
SWIDTH 585 0
DWIDTH 13 0
BBX 8 11 3 0
BITMAP
FE
81
81
81
82
FE
81
81
81
81
FE
ENDCHAR
STARTCHAR 0433
ENCODING 1075
SWIDTH 405 0
DWIDTH 9 0
BBX 6 10 3 0
BITMAP
FC
80
80
80
80
80
80
80
80
80
ENDCHAR
STARTCHAR 0434
ENCODING 1076
SWIDTH 585 0
DWIDTH 13 0
BBX 13 14 0 -3
BITMAP
1FE0
1020
1020
1020
1020
1020
2020
2020
2020
2020
4020
BFD8
8008
8008
ENDCHAR
STARTCHAR 0435
ENCODING 1077
SWIDTH 585 0
DWIDTH 13 0
BBX 11 12 1 0
BITMAP
0400
3B80
4040
8020
8020
8000
BFE0
8000
8000
4000
2040
1F80
ENDCHAR
STARTCHAR 0436
ENCODING 1078
SWIDTH 765 0
DWIDTH 17 0
BBX 15 11 1 0
BITMAP
8102
4104
2108
2110
1110
1F60
1110
2108
4104
8102
8102
ENDCHAR
STARTCHAR 0437
ENCODING 1079
SWIDTH 495 0
DWIDTH 11 0
BBX 9 12 1 0
BITMAP
1800
E700
0100
0100
0100
0200
0E00
0100
0080
0080
0100
7E00
ENDCHAR
STARTCHAR 0438
ENCODING 1080
SWIDTH 630 0
DWIDTH 14 0
BBX 9 11 3 0
BITMAP
0080
8180
8280
8480
8880
8880
9080
A080
C080
8080
8000
ENDCHAR
STARTCHAR 0439
ENCODING 1081
SWIDTH 630 0
DWIDTH 14 0
BBX 9 15 3 1
BITMAP
2200
1C00
0000
0000
0080
8180
8280
8480
8880
8880
9080
A080
C080
8080
8000
ENDCHAR
STARTCHAR 043A
ENCODING 1082
SWIDTH 540 0
DWIDTH 12 0
BBX 8 11 3 0
BITMAP
01
82
84
88
90
D0
88
84
84
82
01
ENDCHAR
STARTCHAR 043B
ENCODING 1083
SWIDTH 585 0
DWIDTH 13 0
BBX 10 11 1 0
BITMAP
3FC0
2040
2040
2040
2040
2040
4040
4040
4040
4040
8000
ENDCHAR
STARTCHAR 043C
ENCODING 1084
SWIDTH 765 0
DWIDTH 17 0
BBX 12 11 3 0
BITMAP
8010
8030
C050
C090
A090
9110
9210
8A10
8C10
8010
0010
ENDCHAR
STARTCHAR 043D
ENCODING 1085
SWIDTH 630 0
DWIDTH 14 0
BBX 9 9 3 1
BITMAP
8080
8080
8080
8080
FF80
8080
8080
8080
8080
ENDCHAR
STARTCHAR 043E
ENCODING 1086
SWIDTH 585 0
DWIDTH 13 0
BBX 12 12 1 0
BITMAP
0600
3980
4040
8020
8020
8020
8010
8020
8020
4020
2040
1F80
ENDCHAR
STARTCHAR 043F
ENCODING 1087
SWIDTH 630 0
DWIDTH 14 0
BBX 9 10 3 0
BITMAP
FF80
8080
8080
8080
8080
8080
8080
8080
8080
8080
ENDCHAR
STARTCHAR 0440
ENCODING 1088
SWIDTH 675 0
DWIDTH 15 0
BBX 11 15 3 -4
BITMAP
0C00
3380
C040
8040
8020
8020
8020
8020
8040
8040
C080
B300
8C00
8000
8000
ENDCHAR
STARTCHAR 0441
ENCODING 1089
SWIDTH 540 0
DWIDTH 12 0
BBX 10 12 1 0
BITMAP
0600
3980
4040
8000
8000
8000
8000
8000
8000
4000
2040
1F80
ENDCHAR
STARTCHAR 0442
ENCODING 1090
SWIDTH 405 0
DWIDTH 9 0
BBX 8 10 1 0
BITMAP
FF
10
10
10
10
10
10
10
10
10
ENDCHAR
STARTCHAR 0443
ENCODING 1091
SWIDTH 495 0
DWIDTH 11 0
BBX 11 15 0 -4
BITMAP
0020
4040
4040
2040
2080
1080
1100
1100
0A00
0A00
0400
0400
0800
0800
F000
ENDCHAR
STARTCHAR 0444
ENCODING 1092
SWIDTH 720 0
DWIDTH 16 0
BBX 14 18 1 -3
BITMAP
0200
0200
0200
0300
1EF0
6208
8204
8204
8204
8204
8204
8204
4208
2210
1E60
0380
0200
0200
ENDCHAR
STARTCHAR 0445
ENCODING 1093
SWIDTH 495 0
DWIDTH 11 0
BBX 9 11 1 0
BITMAP
8180
4100
2200
1400
1800
1800
1400
2200
4200
8100
8080
ENDCHAR
STARTCHAR 0446
ENCODING 1094
SWIDTH 630 0
DWIDTH 14 0
BBX 11 12 3 -2
BITMAP
8080
8080
8080
8080
8080
8080
8080
8080
8080
8080
7F20
0020
ENDCHAR
STARTCHAR 0447
ENCODING 1095
SWIDTH 540 0
DWIDTH 12 0
BBX 9 10 1 0
BITMAP
8000
8080
8080
8080
8080
4080
3F80
0080
0080
0080
ENDCHAR
STARTCHAR 0448
ENCODING 1096
SWIDTH 900 0
DWIDTH 20 0
BBX 14 10 3 1
BITMAP
8204
8204
8204
8204
8204
8204
8204
8204
8204
FFFC
ENDCHAR
STARTCHAR 0449
ENCODING 1097
SWIDTH 900 0
DWIDTH 20 0
BBX 16 12 3 -2
BITMAP
8204
8204
8204
8204
8204
8204
8204
8204
8204
8204
7DF9
0001
ENDCHAR
STARTCHAR 044A
ENCODING 1098
SWIDTH 540 0
DWIDTH 12 0
BBX 11 11 1 0
BITMAP
E000
2000
2000
2000
3FC0
2020
2020
2020
2020
2040
3F80
ENDCHAR
STARTCHAR 044B
ENCODING 1099
SWIDTH 720 0
DWIDTH 16 0
BBX 11 11 3 0
BITMAP
0020
8020
8020
8020
FE20
8120
8120
8120
8120
8220
FC20
ENDCHAR
STARTCHAR 044C
ENCODING 1100
SWIDTH 495 0
DWIDTH 11 0
BBX 8 10 3 1
BITMAP
80
80
80
FE
81
81
81
81
82
FC
ENDCHAR
STARTCHAR 044D
ENCODING 1101
SWIDTH 540 0
DWIDTH 12 0
BBX 10 12 1 0
BITMAP
0800
F700
0080
0040
0040
0040
0FC0
0040
0040
0080
8100
7E00
ENDCHAR
STARTCHAR 044E
ENCODING 1102
SWIDTH 810 0
DWIDTH 18 0
BBX 14 12 3 0
BITMAP
00C0
0730
8808
9004
9004
9004
F004
9004
9004
8808
8408
03F0
ENDCHAR
STARTCHAR 044F
ENCODING 1103
SWIDTH 585 0
DWIDTH 13 0
BBX 9 11 2 0
BITMAP
7F80
8080
8080
8080
8080
8080
7F80
2080
4080
8080
8080
ENDCHAR
STARTCHAR 0450
ENCODING 1104
SWIDTH 585 0
DWIDTH 13 0
BBX 11 16 1 0
BITMAP
1000
0800
0600
0000
0400
3B80
4040
8020
8020
8000
BFE0
8000
8000
4000
2040
1F80
ENDCHAR
STARTCHAR 0451
ENCODING 1105
SWIDTH 585 0
DWIDTH 13 0
BBX 11 15 1 0
BITMAP
1100
0000
0000
0400
3B80
4040
8020
8020
8000
BFE0
8000
8000
4000
2040
1F80
ENDCHAR
STARTCHAR 0452
ENCODING 1106
SWIDTH 630 0
DWIDTH 14 0
BBX 11 19 1 -3
BITMAP
4000
FE00
4000
4300
5CC0
6020
4020
4020
4020
4020
4020
4020
4020
4020
0020
0020
0020
0020
01E0
ENDCHAR
STARTCHAR 0453
ENCODING 1107
SWIDTH 405 0
DWIDTH 9 0
BBX 6 15 3 0
BITMAP
04
18
20
00
00
FC
80
80
80
80
80
80
80
80
80
ENDCHAR
STARTCHAR 0454
ENCODING 1108
SWIDTH 540 0
DWIDTH 12 0
BBX 11 12 1 0
BITMAP
0600
19C0
6000
8000
8000
8000
FF00
8000
8000
4000
2020
1FC0
ENDCHAR
STARTCHAR 0455
ENCODING 1109
SWIDTH 495 0
DWIDTH 11 0
BBX 9 12 1 0
BITMAP
0C00
7300
8000
8000
8000
6000
1E00
0180
0080
0080
8080
7F00
ENDCHAR
STARTCHAR 0456
ENCODING 1110
SWIDTH 225 0
DWIDTH 5 0
BBX 1 15 2 0
BITMAP
80
00
00
00
00
00
80
80
80
80
80
80
80
80
80
ENDCHAR
STARTCHAR 0457
ENCODING 1111
SWIDTH 225 0
DWIDTH 5 0
BBX 2 14 1 0
BITMAP
80
00
00
00
00
40
40
40
40
40
40
40
40
40
ENDCHAR
STARTCHAR 0458
ENCODING 1112
SWIDTH 225 0
DWIDTH 5 0
BBX 5 20 -2 -4
BITMAP
08
00
00
00
00
00
08
08
08
08
08
08
08
08
08
08
08
08
08
F0
ENDCHAR
STARTCHAR 0459
ENCODING 1113
SWIDTH 855 0
DWIDTH 19 0
BBX 18 11 1 0
BITMAP
3FC000
204000
204000
204000
207F80
204040
404040
404040
404040
404080
807F00
ENDCHAR
STARTCHAR 045A
ENCODING 1114
SWIDTH 900 0
DWIDTH 20 0
BBX 17 11 3 0
BITMAP
008000
808000
808000
808000
FFF800
808300
808080
808080
808080
808100
00FE00
ENDCHAR
STARTCHAR 045B
ENCODING 1115
SWIDTH 630 0
DWIDTH 14 0
BBX 12 14 0 1
BITMAP
2000
FF00
2000
2180
2E60
3010
2010
2010
2010
2010
2010
2010
2010
2010
ENDCHAR
STARTCHAR 045C
ENCODING 1116
SWIDTH 540 0
DWIDTH 12 0
BBX 8 16 3 0
BITMAP
04
18
20
00
00
01
82
84
88
90
D0
88
84
84
82
01
ENDCHAR
STARTCHAR 045D
ENCODING 1117
SWIDTH 630 0
DWIDTH 14 0
BBX 9 16 3 0
BITMAP
2000
1000
0800
0000
0000
0080
8180
8280
8480
8880
8880
9080
A080
C080
8080
8000
ENDCHAR
STARTCHAR 045E
ENCODING 1118
SWIDTH 495 0
DWIDTH 11 0
BBX 11 19 0 -3
BITMAP
1100
0E00
0000
0000
0020
4040
4040
2040
2080
1080
1100
1100
0A00
0A00
0400
0400
0800
0800
F000
ENDCHAR
STARTCHAR 045F
ENCODING 1119
SWIDTH 585 0
DWIDTH 13 0
BBX 8 12 3 -2
BITMAP
81
81
81
81
81
81
81
81
81
81
7E
10
ENDCHAR
STARTCHAR 0462
ENCODING 1122
SWIDTH 765 0
DWIDTH 17 0
BBX 15 15 1 1
BITMAP
1000
1000
FF00
1000
1000
0FF0
100C
1002
1002
1002
1002
1002
1002
1004
1FF8
ENDCHAR
STARTCHAR 0463
ENCODING 1123
SWIDTH 540 0
DWIDTH 12 0
BBX 12 16 0 0
BITMAP
1000
1000
1000
1000
FF00
1000
1000
1000
1000
1FC0
1020
1010
1010
1020
1020
1FC0
ENDCHAR
STARTCHAR 046A
ENCODING 1130
SWIDTH 810 0
DWIDTH 18 0
BBX 17 16 1 0
BITMAP
7FFF00
400200
200400
100800
081000
042000
024000
018000
06F000
188800
208400
408200
408100
808100
808080
008000
ENDCHAR
STARTCHAR 046B
ENCODING 1131
SWIDTH 630 0
DWIDTH 14 0
BBX 12 10 1 0
BITMAP
7FE0
2040
1080
0900
0600
1D80
2440
4420
8420
8410
ENDCHAR
STARTCHAR 0472
ENCODING 1138
SWIDTH 855 0
DWIDTH 19 0
BBX 15 16 2 0
BITMAP
0380
1C70
2008
4004
8002
8002
8002
8002
FFFE
8002
8002
8002
8004
4004
2018
1FE0
ENDCHAR
STARTCHAR 0473
ENCODING 1139
SWIDTH 630 0
DWIDTH 14 0
BBX 12 12 1 0
BITMAP
0600
3980
4060
8020
8010
8010
FFF0
8010
8020
4020
2040
1F80
ENDCHAR
STARTCHAR 0474
ENCODING 1140
SWIDTH 720 0
DWIDTH 16 0
BBX 15 16 1 0
BITMAP
0006
8018
8010
8020
4020
4040
2040
2040
2080
1080
1100
0900
0900
0600
0600
0200
ENDCHAR
STARTCHAR 0475
ENCODING 1141
SWIDTH 495 0
DWIDTH 11 0
BBX 12 12 0 0
BITMAP
0010
8060
4040
4080
2080
2100
1100
1100
1200
0A00
0C00
0400
ENDCHAR
STARTCHAR 048A
ENCODING 1162
SWIDTH 810 0
DWIDTH 18 0
BBX 14 22 3 -4
BITMAP
1080
0900
0600
0000
8010
8030
8050
8090
8090
8110
8210
8410
8810
8810
9010
A010
C010
C010
8000
0004
0004
0004
ENDCHAR
STARTCHAR 048B
ENCODING 1163
SWIDTH 675 0
DWIDTH 15 0
BBX 11 17 3 -2
BITMAP
2200
1C00
0000
0000
0080
8180
8280
8480
8880
8880
9080
A080
C080
8080
8000
0020
0020
ENDCHAR
STARTCHAR 048C
ENCODING 1164
SWIDTH 720 0
DWIDTH 16 0
BBX 13 15 2 1
BITMAP
4000
4000
FC00
4000
4000
3F80
4070
4010
4008
4008
4008
4008
4008
4010
7FE0
ENDCHAR
STARTCHAR 048D
ENCODING 1165
SWIDTH 540 0
DWIDTH 12 0
BBX 11 11 1 0
BITMAP
2000
FE00
2000
2000
3F80
2040
2020
2020
2020
2040
3F80
ENDCHAR
STARTCHAR 048E
ENCODING 1166
SWIDTH 720 0
DWIDTH 16 0
BBX 11 15 3 0
BITMAP
FC00
8380
8040
8020
8020
8020
8420
8220
8120
8140
FE80
8040
8020
8000
8000
ENDCHAR
STARTCHAR 048F
ENCODING 1167
SWIDTH 675 0
DWIDTH 15 0
BBX 11 15 3 -4
BITMAP
0C00
3380
C040
8040
8020
8020
8020
8020
8240
8140
C180
B380
8C40
8000
8000
ENDCHAR
STARTCHAR 0490
ENCODING 1168
SWIDTH 540 0
DWIDTH 12 0
BBX 9 17 3 1
BITMAP
0080
0080
FF80
8000
8000
8000
8000
8000
8000
8000
8000
8000
8000
8000
8000
8000
8000
ENDCHAR
STARTCHAR 0491
ENCODING 1169
SWIDTH 405 0
DWIDTH 9 0
BBX 6 12 3 1
BITMAP
04
04
F8
80
80
80
80
80
80
80
80
80
ENDCHAR
STARTCHAR 0492
ENCODING 1170
SWIDTH 585 0
DWIDTH 13 0
BBX 12 16 1 0
BITMAP
3FF0
2000
2000
2000
2000
2000
2000
2000
FFC0
2000
2000
2000
2000
2000
2000
2000
ENDCHAR
STARTCHAR 0493
ENCODING 1171
SWIDTH 450 0
DWIDTH 10 0
BBX 8 10 1 0
BITMAP
3F
40
40
40
40
FF
40
40
40
40
ENDCHAR
STARTCHAR 0494
ENCODING 1172
SWIDTH 675 0
DWIDTH 15 0
BBX 11 19 3 -3
BITMAP
FFC0
8000
8000
8000
8000
8000
8000
9F00
E080
8040
8020
8020
8020
8020
8020
0020
0040
0080
0F00
ENDCHAR
STARTCHAR 0495
ENCODING 1173
SWIDTH 540 0
DWIDTH 12 0
BBX 9 16 3 -5
BITMAP
FC00
8000
8000
8000
8000
FE00
8100
8100
8080
8080
0080
0080
0100
0100
0200
1C00
ENDCHAR
STARTCHAR 0496
ENCODING 1174
SWIDTH 990 0
DWIDTH 22 0
BBX 21 19 1 -4
BITMAP
800000
804020
404040
204080
104080
104100
084200
044400
05DC00
084200
104100
104080
204080
404040
804020
800010
000008
000008
000008
ENDCHAR
STARTCHAR 0497
ENCODING 1175
SWIDTH 810 0
DWIDTH 18 0
BBX 17 13 1 -3
BITMAP
810200
410400
210800
211000
111000
1F6000
111000
210800
410400
810200
810200
000080
000080
ENDCHAR
STARTCHAR 0498
ENCODING 1176
SWIDTH 585 0
DWIDTH 13 0
BBX 11 20 1 -4
BITMAP
0E00
7180
0040
0040
0040
0040
0040
0180
0E80
0040
0020
0020
0020
0020
8040
7180
0E00
0400
0400
0400
ENDCHAR
STARTCHAR 0499
ENCODING 1177
SWIDTH 495 0
DWIDTH 11 0
BBX 9 14 1 -3
BITMAP
1800
E700
0100
0100
0100
0200
0E00
0100
0080
0080
0100
6200
1C00
1000
ENDCHAR
STARTCHAR 049A
ENCODING 1178
SWIDTH 720 0
DWIDTH 16 0
BBX 13 18 3 -3
BITMAP
8060
8080
8080
8100
8200
8400
8800
F800
8400
8200
8100
8080
8080
8040
0020
0008
0008
0008
ENDCHAR
STARTCHAR 049B
ENCODING 1179
SWIDTH 540 0
DWIDTH 12 0
BBX 10 13 3 -3
BITMAP
0100
8200
8400
8800
9000
D000
8800
8400
8400
8200
0100
0040
0040
ENDCHAR
STARTCHAR 049C
ENCODING 1180
SWIDTH 675 0
DWIDTH 15 0
BBX 12 15 3 1
BITMAP
8020
8040
8080
9100
9100
9200
9400
FC00
9200
9100
9100
8080
8040
8020
0010
ENDCHAR
STARTCHAR 049D
ENCODING 1181
SWIDTH 540 0
DWIDTH 12 0
BBX 9 11 3 0
BITMAP
0100
8200
8400
C800
C800
F000
C800
8400
8200
8100
0080
ENDCHAR
STARTCHAR 049E
ENCODING 1182
SWIDTH 675 0
DWIDTH 15 0
BBX 13 16 2 0
BITMAP
0008
4010
4020
FC40
4080
4100
4100
4200
5A00
4100
4100
4080
4040
4020
4010
0008
ENDCHAR
STARTCHAR 049F
ENCODING 1183
SWIDTH 540 0
DWIDTH 12 0
BBX 10 15 1 1
BITMAP
4000
F800
4000
4000
4040
4080
4100
4200
4400
5400
4200
4100
4080
4080
0040
ENDCHAR
STARTCHAR 04A0
ENCODING 1184
SWIDTH 765 0
DWIDTH 17 0
BBX 16 16 0 0
BITMAP
FC00
0401
0402
0404
0408
0410
0420
0420
05A0
0420
0410
0408
0404
0402
0401
0401
ENDCHAR
STARTCHAR 04A1
ENCODING 1185
SWIDTH 585 0
DWIDTH 13 0
BBX 11 11 1 0
BITMAP
C020
2040
2080
2100
2200
2A00
2100
2080
2040
2040
0020
ENDCHAR
STARTCHAR 04A2
ENCODING 1186
SWIDTH 810 0
DWIDTH 18 0
BBX 15 20 3 -4
BITMAP
8000
8010
8010
8010
8010
8010
8010
8010
FFF0
8010
8010
8010
8010
8010
8010
8000
0006
0002
0002
0002
ENDCHAR
STARTCHAR 04A3
ENCODING 1187
SWIDTH 675 0
DWIDTH 15 0
BBX 11 12 3 -2
BITMAP
8080
8080
8080
8080
FF80
8080
8080
8080
8080
0000
0020
0020
ENDCHAR
STARTCHAR 04A4
ENCODING 1188
SWIDTH 1080 0
DWIDTH 24 0
BBX 21 16 3 0
BITMAP
800FF8
801000
801000
801000
801000
801000
801000
801000
FFF000
801000
801000
801000
801000
801000
801000
800000
ENDCHAR
STARTCHAR 04A5
ENCODING 1189
SWIDTH 855 0
DWIDTH 19 0
BBX 15 10 3 0
BITMAP
007E
8080
8080
8080
8080
FF80
8080
8080
8080
8080
ENDCHAR
STARTCHAR 04A6
ENCODING 1190
SWIDTH 1215 0
DWIDTH 27 0
BBX 23 19 3 -3
BITMAP
FFF000
801000
801000
801000
801000
801000
801000
8011F0
801608
801004
801002
801002
801002
801002
801002
000004
000004
000008
0000F0
ENDCHAR
STARTCHAR 04A7
ENCODING 1191
SWIDTH 945 0
DWIDTH 21 0
BBX 18 16 3 -5
BITMAP
FF8000
808000
808000
808000
808000
80BE00
808100
808080
808080
808040
008040
000080
000080
000100
000200
000C00
ENDCHAR
STARTCHAR 04A8
ENCODING 1192
SWIDTH 945 0
DWIDTH 21 0
BBX 17 16 2 0
BITMAP
003800
30C600
410100
820080
820080
840080
840080
840080
840080
840080
820080
820100
810200
408200
304C00
0FFF80
ENDCHAR
STARTCHAR 04A9
ENCODING 1193
SWIDTH 765 0
DWIDTH 17 0
BBX 14 12 1 0
BITMAP
0040
23B8
4408
8404
8404
8404
8404
8404
8408
4208
2110
1FF8
ENDCHAR
STARTCHAR 04AA
ENCODING 1194
SWIDTH 675 0
DWIDTH 15 0
BBX 13 20 2 -4
BITMAP
0380
1C70
2008
4000
8000
8000
8000
8000
8000
8000
8000
8000
8000
4000
2010
1C60
0380
0100
0100
0100
ENDCHAR
STARTCHAR 04AB
ENCODING 1195
SWIDTH 540 0
DWIDTH 12 0
BBX 10 14 1 -3
BITMAP
0600
3980
4040
8000
8000
8000
8000
8000
8000
4000
2040
1980
0600
0400
ENDCHAR
STARTCHAR 04AC
ENCODING 1196
SWIDTH 540 0
DWIDTH 12 0
BBX 12 19 0 -4
BITMAP
FFF0
0400
0400
0400
0400
0400
0400
0400
0400
0400
0400
0400
0400
0400
0400
0000
0180
0080
0080
ENDCHAR
STARTCHAR 04AD
ENCODING 1197
SWIDTH 405 0
DWIDTH 9 0
BBX 8 13 1 -3
BITMAP
FF
10
10
10
10
10
10
10
10
10
00
04
04
ENDCHAR
STARTCHAR 04AE
ENCODING 1198
SWIDTH 585 0
DWIDTH 13 0
BBX 13 15 0 0
BITMAP
8000
8008
4010
2010
2020
1040
0840
0880
0500
0500
0200
0200
0200
0200
0200
ENDCHAR
STARTCHAR 04AF
ENCODING 1199
SWIDTH 495 0
DWIDTH 11 0
BBX 11 14 0 -4
BITMAP
8020
4040
4040
2040
2080
1080
1100
0900
0A00
0A00
0400
0000
0400
0400
ENDCHAR
STARTCHAR 04B0
ENCODING 1200
SWIDTH 585 0
DWIDTH 13 0
BBX 13 15 0 0
BITMAP
8000
8008
4010
2010
2020
1040
0840
0880
0500
0500
3FE0
0200
0200
0200
0200
ENDCHAR
STARTCHAR 04B1
ENCODING 1201
SWIDTH 495 0
DWIDTH 11 0
BBX 11 14 0 -4
BITMAP
8020
4040
4040
2040
2080
1080
1100
0900
0A00
0A00
0400
1B80
0400
0400
ENDCHAR
STARTCHAR 04B2
ENCODING 1202
SWIDTH 630 0
DWIDTH 14 0
BBX 13 19 1 -4
BITMAP
8000
8020
4040
2080
1080
1100
0A00
0400
0400
0A00
1100
2080
2080
4040
8020
8010
0008
0008
0008
ENDCHAR
STARTCHAR 04B3
ENCODING 1203
SWIDTH 495 0
DWIDTH 11 0
BBX 11 14 1 -3
BITMAP
8180
4100
2200
1400
1800
1800
1400
2200
4200
8100
8080
0020
0020
0020
ENDCHAR
STARTCHAR 04B4
ENCODING 1204
SWIDTH 945 0
DWIDTH 21 0
BBX 20 19 0 -4
BITMAP
FFF040
040040
040040
040040
040040
040040
040040
040040
040040
040040
040040
040040
040040
040040
040040
040040
01FFB0
000010
000010
ENDCHAR
STARTCHAR 04B5
ENCODING 1205
SWIDTH 720 0
DWIDTH 16 0
BBX 14 13 1 -3
BITMAP
FE00
1010
1010
1010
1010
1010
1010
1010
1010
1010
1010
07E4
0004
ENDCHAR
STARTCHAR 04B6
ENCODING 1206
SWIDTH 720 0
DWIDTH 16 0
BBX 14 19 2 -3
BITMAP
8020
8020
8020
8020
8020
8020
8020
8020
60E0
1F20
0020
0020
0020
0020
0000
000C
0004
0004
0004
ENDCHAR
STARTCHAR 04B7
ENCODING 1207
SWIDTH 585 0
DWIDTH 13 0
BBX 11 13 1 -3
BITMAP
8000
8080
8080
8080
8080
4080
3F80
0080
0080
0080
0000
0020
0020
ENDCHAR
STARTCHAR 04B8
ENCODING 1208
SWIDTH 720 0
DWIDTH 16 0
BBX 11 14 2 1
BITMAP
8020
8020
8020
8020
8020
8020
8820
8820
68E0
1F20
0820
0820
0020
0020
ENDCHAR
STARTCHAR 04B9
ENCODING 1209
SWIDTH 540 0
DWIDTH 12 0
BBX 9 10 1 0
BITMAP
8000
8080
8080
8080
8880
4880
3F80
0880
0080
0080
ENDCHAR
STARTCHAR 04BA
ENCODING 1210
SWIDTH 720 0
DWIDTH 16 0
BBX 11 14 3 1
BITMAP
8000
8000
8000
8000
8000
9F80
E040
8020
8020
8020
8020
8020
8020
8020
ENDCHAR
STARTCHAR 04BB
ENCODING 1211
SWIDTH 630 0
DWIDTH 14 0
BBX 9 14 3 1
BITMAP
8000
8000
8000
8C00
F300
8080
8080
8080
8080
8080
8080
8080
8080
8080
ENDCHAR
STARTCHAR 04BC
ENCODING 1212
SWIDTH 945 0
DWIDTH 21 0
BBX 19 16 1 0
BITMAP
003800
01C600
020180
040080
880040
900040
900020
900020
7FFFE0
100000
100000
080000
080000
040000
020180
01FE00
ENDCHAR
STARTCHAR 04BD
ENCODING 1213
SWIDTH 675 0
DWIDTH 15 0
BBX 14 12 1 0
BITMAP
0180
0660
1810
9008
A008
A004
6FF8
2000
2000
1000
0808
07F0
ENDCHAR
STARTCHAR 04BE
ENCODING 1214
SWIDTH 945 0
DWIDTH 21 0
BBX 19 20 1 -4
BITMAP
003800
01C600
020180
040080
880040
900040
900020
900020
7FFFE0
100000
100000
080000
080000
040000
020180
01C600
003800
001000
001000
001000
ENDCHAR
STARTCHAR 04BF
ENCODING 1215
SWIDTH 675 0
DWIDTH 15 0
BBX 14 15 1 -3
BITMAP
0180
0660
1810
9008
A008
A004
6FF8
2000
2000
1000
0808
0630
01C0
0080
0080
ENDCHAR
STARTCHAR 04C0
ENCODING 1216
SWIDTH 270 0
DWIDTH 6 0
BBX 1 14 3 1
BITMAP
80
80
80
80
80
80
80
80
80
80
80
80
80
80
ENDCHAR
STARTCHAR 04C1
ENCODING 1217
SWIDTH 945 0
DWIDTH 21 0
BBX 20 19 1 0
BITMAP
020800
011000
00E000
800000
804020
404040
204080
104080
104100
084200
044400
05DC00
084200
104100
104080
204080
404040
804020
800010
ENDCHAR
STARTCHAR 04C2
ENCODING 1218
SWIDTH 765 0
DWIDTH 17 0
BBX 15 16 1 0
BITMAP
0020
0440
0380
0000
0000
8102
4104
2108
2110
1110
1F60
1110
2108
4104
8102
8102
ENDCHAR
STARTCHAR 04C3
ENCODING 1219
SWIDTH 675 0
DWIDTH 15 0
BBX 11 19 3 -3
BITMAP
8060
8080
8080
8100
8200
8400
8800
F800
8600
8100
8100
8080
8040
8040
0020
0020
0020
0020
03C0
ENDCHAR
STARTCHAR 04C4
ENCODING 1220
SWIDTH 540 0
DWIDTH 12 0
BBX 8 15 3 -4
BITMAP
01
82
84
88
90
D0
88
84
82
81
01
01
01
01
0F
ENDCHAR
STARTCHAR 04C6
ENCODING 1222
SWIDTH 585 0
DWIDTH 13 0
BBX 12 13 1 -3
BITMAP
3FC0
2040
2040
2040
2040
2040
4040
4040
4040
4040
8000
0010
0020
ENDCHAR
STARTCHAR 04C7
ENCODING 1223
SWIDTH 810 0
DWIDTH 18 0
BBX 12 19 3 -3
BITMAP
8010
8010
8010
8010
8010
8010
8010
FFF0
8010
8010
8010
8010
8010
8010
0010
0010
0010
0010
01F0
ENDCHAR
STARTCHAR 04C8
ENCODING 1224
SWIDTH 630 0
DWIDTH 14 0
BBX 9 14 3 -3
BITMAP
8080
8080
8080
8080
FF80
8080
8080
8080
8080
0080
0080
0080
0080
0F80
ENDCHAR
STARTCHAR 04C9
ENCODING 1225
SWIDTH 810 0
DWIDTH 18 0
BBX 14 19 3 -4
BITMAP
8000
8010
8010
8010
8010
8010
8010
8010
FFF0
8010
8010
8010
8010
8010
8010
8000
0004
0004
0008
ENDCHAR
STARTCHAR 04CA
ENCODING 1226
SWIDTH 675 0
DWIDTH 15 0
BBX 11 12 3 -2
BITMAP
8080
8080
8080
8080
FF80
8080
8080
8080
8080
0000
0020
0040
ENDCHAR
STARTCHAR 04CB
ENCODING 1227
SWIDTH 720 0
DWIDTH 16 0
BBX 11 18 2 -3
BITMAP
8020
8020
8020
8020
8020
8020
8020
8020
60E0
1F20
0020
0020
0020
0020
0000
00C0
0100
0100
ENDCHAR
STARTCHAR 04CC
ENCODING 1228
SWIDTH 540 0
DWIDTH 12 0
BBX 9 13 1 -3
BITMAP
8000
8080
8080
8080
8080
8080
7F80
0080
0080
0080
0000
0100
0200
ENDCHAR
STARTCHAR 04CD
ENCODING 1229
SWIDTH 945 0
DWIDTH 21 0
BBX 17 18 3 -3
BITMAP
800200
C00600
C00600
A00A00
A00A00
901200
902200
882200
844200
844200
828200
828200
810200
800200
000000
000080
000080
000080
ENDCHAR
STARTCHAR 04CE
ENCODING 1230
SWIDTH 765 0
DWIDTH 17 0
BBX 13 14 3 -3
BITMAP
8010
8030
C050
C090
A090
9110
9210
8A10
8C10
8010
0010
0008
0008
0008
ENDCHAR
STARTCHAR 04CF
ENCODING 1231
SWIDTH 225 0
DWIDTH 5 0
BBX 1 14 2 1
BITMAP
80
80
80
80
80
80
80
80
80
80
80
80
80
80
ENDCHAR
STARTCHAR 04D0
ENCODING 1232
SWIDTH 675 0
DWIDTH 15 0
BBX 14 19 1 0
BITMAP
1040
0880
0700
0000
0300
0500
0480
0880
0840
1040
1040
1020
2020
2010
5FF0
4008
8008
8004
8004
ENDCHAR
STARTCHAR 04D1
ENCODING 1233
SWIDTH 540 0
DWIDTH 12 0
BBX 9 16 1 0
BITMAP
2000
2100
1E00
0000
0C00
7300
0080
0080
0080
0080
7F80
8080
8080
8080
8180
7E00
ENDCHAR
STARTCHAR 04D2
ENCODING 1234
SWIDTH 675 0
DWIDTH 15 0
BBX 14 19 1 0
BITMAP
0480
0000
0000
0000
0300
0500
0480
0880
0840
1040
1040
1020
2020
2010
5FF0
4008
8008
8004
8004
ENDCHAR
STARTCHAR 04D3
ENCODING 1235
SWIDTH 540 0
DWIDTH 12 0
BBX 9 15 1 0
BITMAP
1200
0000
0000
0C00
7300
0080
0080
0080
0080
7F80
8080
8080
8080
8180
7E00
ENDCHAR
STARTCHAR 04D4
ENCODING 1236
SWIDTH 945 0
DWIDTH 21 0
BBX 21 16 0 0
BITMAP
003FF8
006000
00A000
00A000
012000
022000
022000
042000
042FE0
082000
102000
17E000
202000
402000
402000
801FF0
ENDCHAR
STARTCHAR 04D5
ENCODING 1237
SWIDTH 945 0
DWIDTH 21 0
BBX 20 12 1 0
BITMAP
0C0200
731980
00A040
004020
004020
008010
7FBFE0
808000
804000
80C000
812020
7E1FC0
ENDCHAR
STARTCHAR 04D6
ENCODING 1238
SWIDTH 630 0
DWIDTH 14 0
BBX 10 19 3 0
BITMAP
2100
1200
0C00
FFC0
8000
8000
8000
8000
8000
8000
8000
FF00
8000
8000
8000
8000
8000
8000
FF80
ENDCHAR
STARTCHAR 04D7
ENCODING 1239
SWIDTH 585 0
DWIDTH 13 0
BBX 11 16 1 0
BITMAP
0080
1100
0E00
0000
0400
3B80
4040
8020
8020
8000
BFE0
8000
8000
4000
2040
1F80
ENDCHAR
STARTCHAR 04D8
ENCODING 1240
SWIDTH 810 0
DWIDTH 18 0
BBX 16 16 1 0
BITMAP
0380
1C70
2008
0004
0002
0002
0001
0001
FFFF
8001
8002
8002
4002
2004
1008
0FF0
ENDCHAR
STARTCHAR 04D9
ENCODING 1241
SWIDTH 585 0
DWIDTH 13 0
BBX 11 12 1 0
BITMAP
0C00
7380
0040
0040
0020
0020
FFE0
8020
8040
4040
4080
3F00
ENDCHAR
STARTCHAR 04DA
ENCODING 1242
SWIDTH 810 0
DWIDTH 18 0
BBX 16 19 1 0
BITMAP
0200
0000
0000
0380
1C70
2008
0004
0002
0002
0001
0001
FFFF
8001
8002
8002
4002
2004
1008
0FF0
ENDCHAR
STARTCHAR 04DB
ENCODING 1243
SWIDTH 585 0
DWIDTH 13 0
BBX 11 15 1 0
BITMAP
1100
0000
0000
0C00
7380
0040
0040
0020
0020
FFE0
8020
8040
4040
4080
3F00
ENDCHAR
STARTCHAR 04DC
ENCODING 1244
SWIDTH 945 0
DWIDTH 21 0
BBX 20 19 1 0
BITMAP
001000
000000
000000
800000
804020
404040
204080
104080
104100
084200
044400
05DC00
084200
104100
104080
204080
404040
804020
800010
ENDCHAR
STARTCHAR 04DD
ENCODING 1245
SWIDTH 765 0
DWIDTH 17 0
BBX 15 15 1 0
BITMAP
0440
0000
0000
0000
8102
4104
2108
2110
1110
1F60
1110
2108
4104
8102
8102
ENDCHAR
STARTCHAR 04DE
ENCODING 1246
SWIDTH 585 0
DWIDTH 13 0
BBX 11 19 1 0
BITMAP
0900
0000
0000
0E00
7180
0040
0040
0040
0040
0040
0180
0E80
0040
0020
0020
0020
0020
8040
7F80
ENDCHAR
STARTCHAR 04DF
ENCODING 1247
SWIDTH 495 0
DWIDTH 11 0
BBX 9 15 1 0
BITMAP
2200
0000
0000
1800
E700
0100
0100
0100
0200
0E00
0100
0080
0080
0100
7E00
ENDCHAR
STARTCHAR 04E0
ENCODING 1248
SWIDTH 585 0
DWIDTH 13 0
BBX 11 16 1 0
BITMAP
FFC0
0040
0080
0100
0200
0400
0400
0E00
0180
0040
0020
0020
0020
0040
8040
7F80
ENDCHAR
STARTCHAR 04E1
ENCODING 1249
SWIDTH 450 0
DWIDTH 10 0
BBX 11 15 -1 -4
BITMAP
3FC0
0080
0100
0100
0200
0400
0800
0780
0040
0020
0020
0020
0020
8040
7F80
ENDCHAR
STARTCHAR 04E2
ENCODING 1250
SWIDTH 810 0
DWIDTH 18 0
BBX 12 18 3 0
BITMAP
0F00
0000
0000
8010
8030
8050
8090
8090
8110
8210
8410
8810
8810
9010
A010
C010
C010
8000
ENDCHAR
STARTCHAR 04E3
ENCODING 1251
SWIDTH 630 0
DWIDTH 14 0
BBX 9 15 3 0
BITMAP
7F00
0000
0000
0000
0080
8180
8280
8480
8880
8880
9080
A080
C080
8080
8000
ENDCHAR
STARTCHAR 04E4
ENCODING 1252
SWIDTH 810 0
DWIDTH 18 0
BBX 12 19 3 0
BITMAP
0900
0000
0000
0000
8010
8030
8050
8090
8090
8110
8210
8410
8810
8810
9010
A010
C010
C010
8000
ENDCHAR
STARTCHAR 04E5
ENCODING 1253
SWIDTH 630 0
DWIDTH 14 0
BBX 9 15 3 0
BITMAP
2200
0000
0000
0000
0080
8180
8280
8480
8880
8880
9080
A080
C080
8080
8000
ENDCHAR
STARTCHAR 04E6
ENCODING 1254
SWIDTH 855 0
DWIDTH 19 0
BBX 15 19 2 0
BITMAP
0440
0000
0000
0380
1C70
2008
4004
8002
8002
8002
8002
8002
8002
8002
8002
8004
4004
2018
1FE0
ENDCHAR
STARTCHAR 04E7
ENCODING 1255
SWIDTH 585 0
DWIDTH 13 0
BBX 12 15 1 0
BITMAP
0900
0000
0000
0600
3980
4040
8020
8020
8020
8010
8020
8020
4020
2040
1F80
ENDCHAR
STARTCHAR 04E8
ENCODING 1256
SWIDTH 855 0
DWIDTH 19 0
BBX 15 16 2 0
BITMAP
0380
1C70
2008
4004
8002
8002
8002
8002
FFFE
8002
8002
8002
8004
4004
2018
1FE0
ENDCHAR
STARTCHAR 04E9
ENCODING 1257
SWIDTH 630 0
DWIDTH 14 0
BBX 12 12 1 0
BITMAP
0600
3980
4060
8020
8010
8010
FFF0
8010
8020
4020
2040
1F80
ENDCHAR
STARTCHAR 04EA
ENCODING 1258
SWIDTH 855 0
DWIDTH 19 0
BBX 15 19 2 0
BITMAP
0440
0000
0000
0380
1C70
2008
4004
8002
8002
8002
8002
FFFE
8002
8002
8002
8004
4004
2018
1FE0
ENDCHAR
STARTCHAR 04EB
ENCODING 1259
SWIDTH 630 0
DWIDTH 14 0
BBX 12 15 1 0
BITMAP
0900
0000
0000
0600
3980
4060
8020
8010
8010
FFF0
8010
8020
4020
2040
1F80
ENDCHAR
STARTCHAR 04EC
ENCODING 1260
SWIDTH 675 0
DWIDTH 15 0
BBX 13 19 1 0
BITMAP
0900
0000
0000
0E00
71C0
0020
0010
0010
0008
0008
0008
07F8
0008
0008
0010
0010
0020
8040
7F80
ENDCHAR
STARTCHAR 04ED
ENCODING 1261
SWIDTH 540 0
DWIDTH 12 0
BBX 10 15 1 0
BITMAP
2200
0000
0000
0800
F700
0080
0040
0040
0040
0FC0
0040
0040
0080
8100
7E00
ENDCHAR
STARTCHAR 04EE
ENCODING 1262
SWIDTH 630 0
DWIDTH 14 0
BBX 13 18 1 0
BITMAP
0F00
0000
0000
8008
8010
4010
4020
2040
2040
1080
1080
0900
0900
0600
0200
0400
0800
7800
ENDCHAR
STARTCHAR 04EF
ENCODING 1263
SWIDTH 495 0
DWIDTH 11 0
BBX 11 19 0 -4
BITMAP
3F80
0000
0000
0000
0020
4040
4040
2040
2080
1080
1100
1100
0A00
0A00
0400
0400
0800
0800
F000
ENDCHAR
STARTCHAR 04F0
ENCODING 1264
SWIDTH 630 0
DWIDTH 14 0
BBX 13 19 1 0
BITMAP
0900
0000
0000
0000
8008
8010
4010
4020
2040
2040
1080
1080
0900
0900
0600
0200
0400
0800
7800
ENDCHAR
STARTCHAR 04F1
ENCODING 1265
SWIDTH 495 0
DWIDTH 11 0
BBX 11 19 0 -4
BITMAP
1100
0000
0000
0000
0020
4040
4040
2040
2080
1080
1100
1100
0A00
0A00
0400
0400
0800
0800
F000
ENDCHAR
STARTCHAR 04F2
ENCODING 1266
SWIDTH 630 0
DWIDTH 14 0
BBX 13 19 1 0
BITMAP
0240
0480
0000
0000
8008
8010
4010
4020
2040
2040
1080
1080
0900
0900
0600
0200
0400
0800
7800
ENDCHAR
STARTCHAR 04F3
ENCODING 1267
SWIDTH 495 0
DWIDTH 11 0
BBX 11 20 0 -4
BITMAP
0040
0D80
0000
0000
0000
0020
4040
4040
2040
2080
1080
1100
1100
0A00
0A00
0400
0400
0800
0800
F000
ENDCHAR
STARTCHAR 04F4
ENCODING 1268
SWIDTH 720 0
DWIDTH 16 0
BBX 11 18 2 0
BITMAP
1100
0000
0000
0000
8020
8020
8020
8020
8020
8020
8020
8020
60E0
1F20
0020
0020
0020
0020
ENDCHAR
STARTCHAR 04F5
ENCODING 1269
SWIDTH 540 0
DWIDTH 12 0
BBX 9 14 1 0
BITMAP
2200
0000
0000
0000
8000
8080
8080
8080
8080
4080
3F80
0080
0080
0080
ENDCHAR
STARTCHAR 04F6
ENCODING 1270
SWIDTH 540 0
DWIDTH 12 0
BBX 9 19 3 -4
BITMAP
FF80
8000
8000
8000
8000
8000
8000
8000
8000
8000
8000
8000
8000
8000
8000
0000
6000
2000
2000
ENDCHAR
STARTCHAR 04F7
ENCODING 1271
SWIDTH 405 0
DWIDTH 9 0
BBX 6 13 3 -3
BITMAP
FC
80
80
80
80
80
80
80
80
80
00
40
40
ENDCHAR
STARTCHAR 04F8
ENCODING 1272
SWIDTH 945 0
DWIDTH 21 0
BBX 15 19 3 0
BITMAP
0440
0000
0000
0000
8002
8002
8002
8002
8002
FF02
80C2
8022
8022
8022
8022
8022
8022
8042
FF80
ENDCHAR
STARTCHAR 04F9
ENCODING 1273
SWIDTH 720 0
DWIDTH 16 0
BBX 11 15 3 0
BITMAP
1100
0000
0000
0000
0020
8020
8020
8020
FE20
8120
8120
8120
8120
8220
FC20
ENDCHAR
STARTCHAR 04FA
ENCODING 1274
SWIDTH 585 0
DWIDTH 13 0
BBX 12 20 1 -4
BITMAP
3FF0
2000
2000
2000
2000
2000
2000
2000
FFC0
2000
2000
2000
2000
2000
2000
2000
1C00
0400
0800
7800
ENDCHAR
STARTCHAR 04FB
ENCODING 1275
SWIDTH 450 0
DWIDTH 10 0
BBX 9 15 0 -4
BITMAP
0F00
2000
2000
2000
2000
7F80
2000
2000
2000
2000
0000
0800
0800
0800
F800
ENDCHAR
STARTCHAR 04FC
ENCODING 1276
SWIDTH 585 0
DWIDTH 13 0
BBX 12 20 1 -4
BITMAP
8000
8020
4040
2080
1080
1100
0A00
0400
0400
0A00
1100
1080
2040
4040
8020
8020
0010
0010
0010
00E0
ENDCHAR
STARTCHAR 04FD
ENCODING 1277
SWIDTH 450 0
DWIDTH 10 0
BBX 9 15 1 -4
BITMAP
8100
4200
2200
1400
1800
0800
1400
2200
4200
8100
8080
0080
0080
0080
0780
ENDCHAR
STARTCHAR 04FE
ENCODING 1278
SWIDTH 630 0
DWIDTH 14 0
BBX 12 16 1 0
BITMAP
8010
4020
4040
2040
1080
0900
0A00
0600
3FC0
0A00
0900
1080
2040
4040
4020
8010
ENDCHAR
STARTCHAR 04FF
ENCODING 1279
SWIDTH 495 0
DWIDTH 11 0
BBX 9 11 1 0
BITMAP
4080
4100
2200
1400
0C00
3A00
1400
2200
4100
4080
8080
ENDCHAR
STARTCHAR 0510
ENCODING 1296
SWIDTH 585 0
DWIDTH 13 0
BBX 10 16 2 0
BITMAP
0E00
31C0
4000
8000
8000
8000
4000
3000
4E00
8000
8000
8000
8000
8000
4040
3F80
ENDCHAR
STARTCHAR 0511
ENCODING 1297
SWIDTH 495 0
DWIDTH 11 0
BBX 9 12 2 0
BITMAP
1800
6700
8000
8000
8000
4000
7800
8000
8000
8000
8080
7F00
ENDCHAR
STARTCHAR 0512
ENCODING 1298
SWIDTH 765 0
DWIDTH 17 0
BBX 13 20 1 -4
BITMAP
0FF8
1008
1008
1008
1008
1008
1008
1008
1008
1008
2008
2008
2008
2008
4008
4008
8008
0008
0008
00F8
ENDCHAR
STARTCHAR 0513
ENCODING 1299
SWIDTH 585 0
DWIDTH 13 0
BBX 10 15 1 -4
BITMAP
3FC0
2040
2040
2040
2040
2040
4040
4040
4040
4040
8040
0040
0040
0040
0780
ENDCHAR
STARTCHAR 051A
ENCODING 1306
SWIDTH 855 0
DWIDTH 19 0
BBX 16 19 2 -3
BITMAP
0380
1C70
2008
4004
8002
8002
8002
8002
8002
8002
8002
8002
8004
4004
2018
1C60
0380
0041
003E
ENDCHAR
STARTCHAR 051B
ENCODING 1307
SWIDTH 675 0
DWIDTH 15 0
BBX 12 16 1 -4
BITMAP
0600
3990
4050
8030
8010
8010
8010
8010
8010
4030
2050
1990
0610
0010
0010
0010
ENDCHAR
STARTCHAR 051C
ENCODING 1308
SWIDTH 1035 0
DWIDTH 23 0
BBX 21 16 1 0
BITMAP
002000
806008
805008
805010
409010
408810
408820
210820
210420
210440
120440
120240
120280
0C0280
0C0180
040100
ENDCHAR
STARTCHAR 051D
ENCODING 1309
SWIDTH 900 0
DWIDTH 20 0
BBX 18 11 1 0
BITMAP
00C000
80C040
812080
412080
422080
421100
241100
240A00
140A00
180A00
080400
ENDCHAR
STARTCHAR 0524
ENCODING 1316
SWIDTH 810 0
DWIDTH 18 0
BBX 15 19 3 -4
BITMAP
FFF0
8010
8010
8010
8010
8010
8010
8010
8010
8010
8010
8010
8010
8010
8010
0000
0006
0002
0002
ENDCHAR
STARTCHAR 0525
ENCODING 1317
SWIDTH 630 0
DWIDTH 14 0
BBX 11 13 3 -3
BITMAP
FF80
8080
8080
8080
8080
8080
8080
8080
8080
8080
0000
0020
0020
ENDCHAR
STARTCHAR 0526
ENCODING 1318
SWIDTH 765 0
DWIDTH 17 0
BBX 14 18 3 -3
BITMAP
8000
8000
8000
8000
8000
9F80
E040
8020
8020
8020
8020
8020
8020
8020
0000
000C
0004
0004
ENDCHAR
STARTCHAR 0527
ENCODING 1319
SWIDTH 675 0
DWIDTH 15 0
BBX 11 17 3 -2
BITMAP
8000
8000
8000
8C00
F300
8080
8080
8080
8080
8080
8080
8080
8080
8080
0000
0020
0020
ENDCHAR
STARTCHAR 0528
ENCODING 1320
SWIDTH 810 0
DWIDTH 18 0
BBX 15 20 0 -4
BITMAP
1000
1002
1002
1002
1002
1002
1002
1002
1FFE
1002
1002
1002
1002
1002
1002
1000
1000
1000
2000
E000
ENDCHAR
STARTCHAR 0529
ENCODING 1321
SWIDTH 630 0
DWIDTH 14 0
BBX 14 14 -2 -3
BITMAP
0804
0804
0804
0804
0FFC
0804
0804
0804
0804
0800
0800
0800
0800
F000
ENDCHAR
STARTCHAR 052E
ENCODING 1326
SWIDTH 765 0
DWIDTH 17 0
BBX 16 20 1 -4
BITMAP
1FF8
1008
1008
1008
1008
1008
1008
1008
1008
1008
2008
2008
2008
2008
4008
4000
8003
0001
0001
0001
ENDCHAR
STARTCHAR 052F
ENCODING 1327
SWIDTH 585 0
DWIDTH 13 0
BBX 12 14 1 -3
BITMAP
3FC0
2040
2040
2040
2040
2040
4040
4040
4040
4040
8000
0010
0010
0010
ENDCHAR
STARTCHAR 1E08
ENCODING 7688
SWIDTH 675 0
DWIDTH 15 0
BBX 13 24 1 -5
BITMAP
0040
0080
0000
01C0
0E38
3000
4000
4000
8000
8000
8000
8000
8000
8000
8000
4000
2000
1008
0E30
01C0
0180
0040
0040
0180
ENDCHAR
STARTCHAR 1E09
ENCODING 7689
SWIDTH 540 0
DWIDTH 12 0
BBX 10 21 1 -5
BITMAP
0100
0200
0C00
0000
0600
3980
4000
8000
8000
8000
8000
8000
8000
4000
2040
1980
0600
0400
0200
0200
0C00
ENDCHAR
STARTCHAR 1E0C
ENCODING 7692
SWIDTH 810 0
DWIDTH 18 0
BBX 14 20 3 -4
BITMAP
FE00
81C0
8030
8008
8008
8004
8004
8004
8004
8004
8004
8008
8008
8010
8020
81C0
7E00
0000
0000
0400
ENDCHAR
STARTCHAR 1E0D
ENCODING 7693
SWIDTH 630 0
DWIDTH 14 0
BBX 11 19 1 -3
BITMAP
0020
0020
0020
0620
39A0
4060
8020
8020
8020
8020
8020
8020
4060
2060
1980
0600
0000
0000
0200
ENDCHAR
STARTCHAR 1E0E
ENCODING 7694
SWIDTH 810 0
DWIDTH 18 0
BBX 14 20 3 -4
BITMAP
FE00
81C0
8030
8008
8008
8004
8004
8004
8004
8004
8004
8008
8008
8010
8020
81C0
7E00
0000
0000
1F80
ENDCHAR
STARTCHAR 1E0F
ENCODING 7695
SWIDTH 630 0
DWIDTH 14 0
BBX 11 19 1 -3
BITMAP
0020
0020
0020
0620
39A0
4060
8020
8020
8020
8020
8020
8020
4060
2060
1980
0600
0000
0000
1F80
ENDCHAR
STARTCHAR 1E14
ENCODING 7700
SWIDTH 630 0
DWIDTH 14 0
BBX 10 22 3 0
BITMAP
2000
1000
0C00
0000
3F00
0000
FFC0
8000
8000
8000
8000
8000
8000
8000
FF00
8000
8000
8000
8000
8000
8000
FF80
ENDCHAR
STARTCHAR 1E15
ENCODING 7701
SWIDTH 585 0
DWIDTH 13 0
BBX 11 18 1 0
BITMAP
1800
0400
0000
3F80
0000
0000
0400
3B80
4040
8040
8020
8020
FFC0
8000
8000
4000
2040
1F80
ENDCHAR
STARTCHAR 1E16
ENCODING 7702
SWIDTH 630 0
DWIDTH 14 0
BBX 10 22 3 0
BITMAP
0100
0600
0800
0000
3F00
0000
FFC0
8000
8000
8000
8000
8000
8000
8000
FF00
8000
8000
8000
8000
8000
8000
FF80
ENDCHAR
STARTCHAR 1E17
ENCODING 7703
SWIDTH 585 0
DWIDTH 13 0
BBX 11 18 1 0
BITMAP
0300
0400
0000
3F80
0000
0000
0400
3B80
4040
8040
8020
8020
FFC0
8000
8000
4000
2040
1F80
ENDCHAR
STARTCHAR 1E1C
ENCODING 7708
SWIDTH 630 0
DWIDTH 14 0
BBX 10 24 3 -5
BITMAP
2100
1200
0C00
FFC0
8000
8000
8000
8000
8000
8000
8000
FF00
8000
8000
8000
8000
8000
8000
0000
FF80
0400
0200
0200
0C00
ENDCHAR
STARTCHAR 1E1D
ENCODING 7709
SWIDTH 585 0
DWIDTH 13 0
BBX 11 20 1 -4
BITMAP
1100
0E00
0000
0400
3B80
4040
8040
8020
8020
FFC0
8000
8000
4000
2040
1980
0600
0400
0200
0200
0C00
ENDCHAR
STARTCHAR 1E20
ENCODING 7712
SWIDTH 765 0
DWIDTH 17 0
BBX 14 18 1 0
BITMAP
03C0
0000
01C0
0E38
3004
4000
4000
8000
8000
8000
8004
8004
8004
8004
4004
2004
1008
0FF0
ENDCHAR
STARTCHAR 1E21
ENCODING 7713
SWIDTH 675 0
DWIDTH 15 0
BBX 11 19 1 -4
BITMAP
1F80
0000
0000
0600
3980
4060
8020
8020
8020
8020
8020
8020
4060
20A0
1F20
0020
0020
4020
3FC0
ENDCHAR
STARTCHAR 1E24
ENCODING 7716
SWIDTH 810 0
DWIDTH 18 0
BBX 12 19 3 -3
BITMAP
8010
8010
8010
8010
8010
8010
8010
FFF0
8010
8010
8010
8010
8010
8010
0000
0000
0000
0000
0200
ENDCHAR
STARTCHAR 1E25
ENCODING 7717
SWIDTH 630 0
DWIDTH 14 0
BBX 9 19 3 -3
BITMAP
8000
8000
8000
8C00
F300
8080
8080
8080
8080
8080
8080
8080
8080
8080
0000
0000
0000
0000
0800
ENDCHAR
STARTCHAR 1E2A
ENCODING 7722
SWIDTH 810 0
DWIDTH 18 0
BBX 12 19 3 -3
BITMAP
8010
8010
8010
8010
8010
8010
8010
FFF0
8010
8010
8010
8010
8010
8010
0000
0000
0000
1000
1F80
ENDCHAR
STARTCHAR 1E2B
ENCODING 7723
SWIDTH 630 0
DWIDTH 14 0
BBX 9 19 3 -3
BITMAP
8000
8000
8000
8C00
F300
8080
8080
8080
8080
8080
8080
8080
8080
8080
0000
0000
0000
0000
3E00
ENDCHAR
STARTCHAR 1E2E
ENCODING 7726
SWIDTH 270 0
DWIDTH 6 0
BBX 5 21 1 0
BITMAP
08
30
40
80
00
00
00
40
40
40
40
40
40
40
40
40
40
40
40
40
40
ENDCHAR
STARTCHAR 1E2F
ENCODING 7727
SWIDTH 225 0
DWIDTH 5 0
BBX 5 17 0 0
BITMAP
18
20
00
88
00
00
00
00
20
20
20
20
20
20
20
20
20
ENDCHAR
STARTCHAR 1E36
ENCODING 7734
SWIDTH 540 0
DWIDTH 12 0
BBX 9 19 3 -3
BITMAP
8000
8000
8000
8000
8000
8000
8000
8000
8000
8000
8000
8000
8000
8000
0000
7F80
0000
0000
0C00
ENDCHAR
STARTCHAR 1E37
ENCODING 7735
SWIDTH 225 0
DWIDTH 5 0
BBX 1 19 2 -3
BITMAP
80
80
80
80
80
80
80
80
80
80
80
80
80
80
00
00
00
00
80
ENDCHAR
STARTCHAR 1E3A
ENCODING 7738
SWIDTH 540 0
DWIDTH 12 0
BBX 9 19 3 -3
BITMAP
8000
8000
8000
8000
8000
8000
8000
8000
8000
8000
8000
8000
8000
8000
0000
7F80
0000
0000
3F00
ENDCHAR
STARTCHAR 1E3B
ENCODING 7739
SWIDTH 225 0
DWIDTH 5 0
BBX 6 19 0 -3
BITMAP
20
20
20
20
20
20
20
20
20
20
20
20
20
20
00
00
00
00
FC
ENDCHAR
STARTCHAR 1E42
ENCODING 7746
SWIDTH 945 0
DWIDTH 21 0
BBX 15 19 3 -3
BITMAP
8002
C006
C006
A00A
A012
9012
9022
8822
8442
8442
8282
8302
8102
8002
0000
0000
0000
0000
0100
ENDCHAR
STARTCHAR 1E43
ENCODING 7747
SWIDTH 1035 0
DWIDTH 23 0
BBX 18 16 3 -4
BITMAP
080600
773980
80C040
80C040
808040
808040
808040
808040
808040
808040
808040
000000
000000
000000
000000
008000
ENDCHAR
STARTCHAR 1E44
ENCODING 7748
SWIDTH 810 0
DWIDTH 18 0
BBX 12 19 3 0
BITMAP
0200
0000
0000
0000
8010
C010
A010
A010
9010
8810
8410
8210
8210
8110
8090
8050
8050
8030
0010
ENDCHAR
STARTCHAR 1E45
ENCODING 7749
SWIDTH 630 0
DWIDTH 14 0
BBX 9 14 3 0
BITMAP
0800
0000
0000
0C00
7300
8080
8080
8080
8080
8080
8080
8080
8080
8080
ENDCHAR
STARTCHAR 1E46
ENCODING 7750
SWIDTH 810 0
DWIDTH 18 0
BBX 12 19 3 -3
BITMAP
8010
C010
A010
A010
9010
8810
8410
8210
8210
8110
8090
8050
8050
8030
0010
0000
0000
0000
0200
ENDCHAR
STARTCHAR 1E47
ENCODING 7751
SWIDTH 630 0
DWIDTH 14 0
BBX 9 16 3 -4
BITMAP
0C00
7300
8080
8080
8080
8080
8080
8080
8080
8080
8080
0000
0000
0000
0000
0800
ENDCHAR
STARTCHAR 1E48
ENCODING 7752
SWIDTH 810 0
DWIDTH 18 0
BBX 12 19 3 -3
BITMAP
8010
C010
A010
A010
9010
8810
8410
8210
8210
8110
8090
8050
8050
8030
0010
0000
0000
0000
1F80
ENDCHAR
STARTCHAR 1E49
ENCODING 7753
SWIDTH 630 0
DWIDTH 14 0
BBX 9 16 3 -4
BITMAP
0C00
7300
8080
8080
8080
8080
8080
8080
8080
8080
8080
0000
0000
0000
0000
7E00
ENDCHAR
STARTCHAR 1E4C
ENCODING 7756
SWIDTH 810 0
DWIDTH 18 0
BBX 16 22 1 0
BITMAP
0020
0040
0080
0300
04E0
0000
01C0
0E38
3004
4002
4002
8001
8001
8001
8001
8001
8001
8001
4002
2004
1008
0FF0
ENDCHAR
STARTCHAR 1E4D
ENCODING 7757
SWIDTH 585 0
DWIDTH 13 0
BBX 11 18 1 0
BITMAP
0300
0400
0000
1C80
0300
0000
0600
3980
4040
8020
8020
8020
8020
8020
8020
4040
2040
1F80
ENDCHAR
STARTCHAR 1E4E
ENCODING 7758
SWIDTH 810 0
DWIDTH 18 0
BBX 16 21 1 0
BITMAP
0220
0000
0300
04E0
0000
01C0
0E38
3004
4002
4002
8001
8001
8001
8001
8001
8001
8001
4002
2004
1008
0FF0
ENDCHAR
STARTCHAR 1E4F
ENCODING 7759
SWIDTH 585 0
DWIDTH 13 0
BBX 11 18 1 0
BITMAP
1900
0000
0000
1C80
0300
0000
0600
3980
4040
8020
8020
8020
8020
8020
8020
4040
2040
1F80
ENDCHAR
STARTCHAR 1E50
ENCODING 7760
SWIDTH 810 0
DWIDTH 18 0
BBX 16 22 1 0
BITMAP
0200
0100
0080
0000
07E0
0000
01C0
0E38
3004
4002
4002
8001
8001
8001
8001
8001
8001
8001
4002
2004
1008
0FF0
ENDCHAR
STARTCHAR 1E51
ENCODING 7761
SWIDTH 585 0
DWIDTH 13 0
BBX 11 18 1 0
BITMAP
0800
0400
0000
1F80
0000
0000
0600
3980
4040
8020
8020
8020
8020
8020
8020
4040
2040
1F80
ENDCHAR
STARTCHAR 1E52
ENCODING 7762
SWIDTH 810 0
DWIDTH 18 0
BBX 16 22 1 0
BITMAP
0020
0040
0080
0000
07E0
0000
01C0
0E38
3004
4002
4002
8001
8001
8001
8001
8001
8001
8001
4002
2004
1008
0FF0
ENDCHAR
STARTCHAR 1E53
ENCODING 7763
SWIDTH 585 0
DWIDTH 13 0
BBX 11 18 1 0
BITMAP
0300
0400
0000
1F80
0000
0000
0600
3980
4040
8020
8020
8020
8020
8020
8020
4040
2040
1F80
ENDCHAR
STARTCHAR 1E5A
ENCODING 7770
SWIDTH 675 0
DWIDTH 15 0
BBX 11 20 3 -4
BITMAP
FC00
8380
8040
8020
8020
8020
8020
8020
8040
8080
FF00
8100
8080
8040
8040
0020
0000
0000
0000
0400
ENDCHAR
STARTCHAR 1E5B
ENCODING 7771
SWIDTH 360 0
DWIDTH 8 0
BBX 6 16 2 -4
BITMAP
04
38
40
80
80
80
80
80
80
80
80
00
00
00
00
80
ENDCHAR
STARTCHAR 1E5E
ENCODING 7774
SWIDTH 675 0
DWIDTH 15 0
BBX 11 20 3 -4
BITMAP
FC00
8380
8040
8020
8020
8020
8020
8020
8040
8080
FF00
8100
8080
8040
8040
0020
0000
0000
0000
3F00
ENDCHAR
STARTCHAR 1E5F
ENCODING 7775
SWIDTH 360 0
DWIDTH 8 0
BBX 8 16 0 -4
BITMAP
01
0E
10
20
20
20
20
20
20
20
20
00
00
00
00
FC
ENDCHAR
STARTCHAR 1E60
ENCODING 7776
SWIDTH 585 0
DWIDTH 13 0
BBX 11 19 1 0
BITMAP
0200
0000
0000
0E00
31C0
4000
8000
8000
8000
4000
3000
0F00
00C0
0020
0020
0020
0020
4040
3F80
ENDCHAR
STARTCHAR 1E61
ENCODING 7777
SWIDTH 450 0
DWIDTH 10 0
BBX 8 15 1 0
BITMAP
08
00
00
18
67
80
80
80
40
3C
03
01
01
01
FE
ENDCHAR
STARTCHAR 1E62
ENCODING 7778
SWIDTH 585 0
DWIDTH 13 0
BBX 11 20 1 -4
BITMAP
0E00
31C0
4000
8000
8000
8000
4000
3000
0F00
00C0
0020
0020
0020
0020
4040
3180
0E00
0000
0000
0200
ENDCHAR
STARTCHAR 1E63
ENCODING 7779
SWIDTH 450 0
DWIDTH 10 0
BBX 8 16 1 -4
BITMAP
18
67
80
80
80
40
3C
03
01
01
01
E2
1C
00
00
08
ENDCHAR
STARTCHAR 1E64
ENCODING 7780
SWIDTH 585 0
DWIDTH 13 0
BBX 11 21 1 0
BITMAP
0200
0000
0100
0200
0000
0E00
31C0
4000
8000
8000
8000
4000
3000
0F00
00C0
0020
0020
0020
0020
4040
3F80
ENDCHAR
STARTCHAR 1E65
ENCODING 7781
SWIDTH 450 0
DWIDTH 10 0
BBX 8 18 1 0
BITMAP
08
00
02
0C
10
00
18
67
80
80
80
40
3C
03
01
01
01
FE
ENDCHAR
STARTCHAR 1E66
ENCODING 7782
SWIDTH 585 0
DWIDTH 13 0
BBX 11 21 1 0
BITMAP
0200
0000
1080
0F00
0000
0E00
31C0
4000
8000
8000
8000
4000
3000
0F00
00C0
0020
0020
0020
0020
4040
3F80
ENDCHAR
STARTCHAR 1E67
ENCODING 7783
SWIDTH 450 0
DWIDTH 10 0
BBX 8 17 1 0
BITMAP
08
00
24
18
00
18
67
80
80
80
40
3C
03
01
01
01
FE
ENDCHAR
STARTCHAR 1E68
ENCODING 7784
SWIDTH 585 0
DWIDTH 13 0
BBX 11 23 1 -4
BITMAP
0200
0000
0000
0E00
31C0
4000
8000
8000
8000
4000
3000
0F00
00C0
0020
0020
0020
0020
4040
3180
0E00
0000
0000
0200
ENDCHAR
STARTCHAR 1E69
ENCODING 7785
SWIDTH 450 0
DWIDTH 10 0
BBX 8 19 1 -4
BITMAP
08
00
00
18
67
80
80
80
40
3C
03
01
01
01
E2
1C
00
00
08
ENDCHAR
STARTCHAR 1E6C
ENCODING 7788
SWIDTH 540 0
DWIDTH 12 0
BBX 12 20 0 -4
BITMAP
FFF0
0400
0400
0400
0400
0400
0400
0400
0400
0400
0400
0400
0400
0400
0400
0000
0000
0000
0000
0200
ENDCHAR
STARTCHAR 1E6D
ENCODING 7789
SWIDTH 360 0
DWIDTH 8 0
BBX 5 17 2 -3
BITMAP
80
80
F0
80
80
80
80
80
80
80
80
80
68
10
00
00
10
ENDCHAR
STARTCHAR 1E6E
ENCODING 7790
SWIDTH 540 0
DWIDTH 12 0
BBX 12 20 0 -4
BITMAP
FFF0
0400
0400
0400
0400
0400
0400
0400
0400
0400
0400
0400
0400
0400
0400
0000
0000
0000
0000
1F80
ENDCHAR
STARTCHAR 1E6F
ENCODING 7791
SWIDTH 360 0
DWIDTH 8 0
BBX 6 17 2 -3
BITMAP
80
80
F0
80
80
80
80
80
80
80
80
80
68
10
00
00
FC
ENDCHAR
STARTCHAR 1E78
ENCODING 7800
SWIDTH 765 0
DWIDTH 17 0
BBX 12 21 3 1
BITMAP
0300
0400
0880
1700
0000
0010
8010
8010
8010
8010
8010
8010
8010
8010
8010
8010
8010
8020
8020
4040
3F80
ENDCHAR
STARTCHAR 1E79
ENCODING 7801
SWIDTH 630 0
DWIDTH 14 0
BBX 10 18 2 0
BITMAP
0200
0400
0000
3D00
0200
0000
0000
8000
8040
8040
8040
8040
8040
8040
8040
8040
40C0
3F00
ENDCHAR
STARTCHAR 1E7A
ENCODING 7802
SWIDTH 765 0
DWIDTH 17 0
BBX 12 21 3 0
BITMAP
1900
0000
0000
1F80
0000
0010
8010
8010
8010
8010
8010
8010
8010
8010
8010
8010
8010
8020
8020
4040
3F80
ENDCHAR
STARTCHAR 1E7B
ENCODING 7803
SWIDTH 630 0
DWIDTH 14 0
BBX 10 18 2 0
BITMAP
1100
0000
0000
3F00
0000
0000
0000
8000
8040
8040
8040
8040
8040
8040
8040
8040
40C0
3F00
ENDCHAR
STARTCHAR 1E80
ENCODING 7808
SWIDTH 1080 0
DWIDTH 24 0
BBX 22 19 1 0
BITMAP
004000
002000
000000
800000
803004
803008
405008
404808
408810
208810
208410
210420
110420
110220
120240
0A0240
0A0140
0C0180
040080
ENDCHAR
STARTCHAR 1E81
ENCODING 7809
SWIDTH 810 0
DWIDTH 18 0
BBX 18 16 0 0
BITMAP
010000
008000
004000
000000
000000
004000
80C040
412080
412080
212100
221100
221100
140A00
140A00
0C0A00
080400
ENDCHAR
STARTCHAR 1E82
ENCODING 7810
SWIDTH 1080 0
DWIDTH 24 0
BBX 22 19 1 0
BITMAP
000800
001000
000000
800000
803004
803008
405008
404808
408810
208810
208410
210420
110420
110220
120240
0A0240
0A0140
0C0180
040080
ENDCHAR
STARTCHAR 1E83
ENCODING 7811
SWIDTH 810 0
DWIDTH 18 0
BBX 18 16 0 0
BITMAP
001000
006000
008000
000000
000000
004000
80C040
412080
412080
212100
221100
221100
140A00
140A00
0C0A00
080400
ENDCHAR
STARTCHAR 1E84
ENCODING 7812
SWIDTH 1080 0
DWIDTH 24 0
BBX 22 19 1 0
BITMAP
004800
000000
000000
800000
803004
803008
405008
404808
408810
208810
208410
210420
110420
110220
120240
0A0240
0A0140
0C0180
040080
ENDCHAR
STARTCHAR 1E85
ENCODING 7813
SWIDTH 810 0
DWIDTH 18 0
BBX 18 15 0 0
BITMAP
011000
000000
000000
000000
004000
80C040
412080
412080
212100
221100
221100
140A00
140A00
0C0A00
080400
ENDCHAR
STARTCHAR 1E8E
ENCODING 7822
SWIDTH 585 0
DWIDTH 13 0
BBX 13 18 0 0
BITMAP
0200
0000
0000
8000
8008
4010
2020
2020
1040
1040
0880
0500
0500
0200
0200
0200
0200
0200
ENDCHAR
STARTCHAR 1E8F
ENCODING 7823
SWIDTH 495 0
DWIDTH 11 0
BBX 12 19 -1 -4
BITMAP
0200
0000
0000
0000
0010
2020
2020
2040
1040
1080
0880
0900
0500
0500
0200
0200
0400
0400
F800
ENDCHAR
STARTCHAR 1E92
ENCODING 7826
SWIDTH 630 0
DWIDTH 14 0
BBX 12 20 1 -4
BITMAP
FFF0
0010
0020
0040
0080
0100
0100
0200
0400
0800
0800
1000
2000
4000
4000
8000
7FE0
0000
0000
0200
ENDCHAR
STARTCHAR 1E93
ENCODING 7827
SWIDTH 450 0
DWIDTH 10 0
BBX 8 15 1 -4
BITMAP
7F
02
02
04
08
10
10
20
40
80
80
7F
00
00
08
ENDCHAR
STARTCHAR 1E97
ENCODING 7831
SWIDTH 360 0
DWIDTH 8 0
BBX 6 18 1 0
BITMAP
90
00
00
00
00
40
40
78
40
40
40
40
40
40
40
40
40
3C
ENDCHAR
STARTCHAR 1E9E
ENCODING 7838
SWIDTH 720 0
DWIDTH 16 0
BBX 12 16 3 0
BITMAP
0E00
31C0
4020
8040
8080
8100
8200
8700
80E0
8010
8010
8010
8010
8010
8020
0FC0
ENDCHAR
STARTCHAR 1EA0
ENCODING 7840
SWIDTH 675 0
DWIDTH 15 0
BBX 15 20 0 -4
BITMAP
0100
0300
0280
0280
0440
0440
0820
0820
1010
1010
2008
2FF8
4008
4004
8004
8002
0000
0000
0000
0100
ENDCHAR
STARTCHAR 1EA1
ENCODING 7841
SWIDTH 540 0
DWIDTH 12 0
BBX 9 16 1 -4
BITMAP
0C00
7300
0080
0080
0080
0080
7F80
8080
8080
8080
8180
6200
1C00
0000
0000
0400
ENDCHAR
STARTCHAR 1EA2
ENCODING 7842
SWIDTH 675 0
DWIDTH 15 0
BBX 15 20 0 0
BITMAP
0180
0080
0080
0000
0100
0300
0280
0280
0440
0440
0820
0820
1010
1010
2008
2FF8
4008
4004
8004
8002
ENDCHAR
STARTCHAR 1EA3
ENCODING 7843
SWIDTH 540 0
DWIDTH 12 0
BBX 9 17 1 0
BITMAP
0C00
0200
0400
0000
0000
0C00
7300
0080
0080
0080
0080
7F80
8080
8080
8080
8180
7E00
ENDCHAR
STARTCHAR 1EA4
ENCODING 7844
SWIDTH 675 0
DWIDTH 15 0
BBX 15 21 0 0
BITMAP
0008
0030
0140
06C0
0000
0100
0300
0280
0280
0440
0440
0820
0820
1010
1010
2008
2FF8
4008
4004
8004
8002
ENDCHAR
STARTCHAR 1EA5
ENCODING 7845
SWIDTH 540 0
DWIDTH 12 0
BBX 10 17 1 0
BITMAP
00C0
0100
1E00
2100
0000
0C00
7300
0080
0080
0080
0080
7F80
8080
8080
8080
8180
7E00
ENDCHAR
STARTCHAR 1EA6
ENCODING 7846
SWIDTH 675 0
DWIDTH 15 0
BBX 15 21 0 0
BITMAP
0080
0040
0120
06C0
0000
0100
0300
0280
0280
0440
0440
0820
0820
1010
1010
2008
2FF8
4008
4004
8004
8002
ENDCHAR
STARTCHAR 1EA7
ENCODING 7847
SWIDTH 540 0
DWIDTH 12 0
BBX 9 17 1 0
BITMAP
0200
0100
1E00
2100
0000
0C00
7300
0080
0080
0080
0080
7F80
8080
8080
8080
8180
7E00
ENDCHAR
STARTCHAR 1EA8
ENCODING 7848
SWIDTH 675 0
DWIDTH 15 0
BBX 15 21 0 0
BITMAP
0020
0020
0100
06C0
0000
0100
0300
0280
0280
0440
0440
0820
0820
1010
1010
2008
2FF8
4008
4004
8004
8002
ENDCHAR
STARTCHAR 1EA9
ENCODING 7849
SWIDTH 540 0
DWIDTH 12 0
BBX 9 18 1 0
BITMAP
0300
0080
0100
1E00
2100
0000
0C00
7300
0080
0080
0080
0080
7F80
8080
8080
8080
8180
7E00
ENDCHAR
STARTCHAR 1EAA
ENCODING 7850
SWIDTH 675 0
DWIDTH 15 0
BBX 15 21 0 0
BITMAP
0720
00C0
0100
06C0
0000
0100
0300
0280
0280
0440
0440
0820
0820
1010
1010
2008
2FF8
4008
4004
8004
8002
ENDCHAR
STARTCHAR 1EAB
ENCODING 7851
SWIDTH 540 0
DWIDTH 12 0
BBX 9 18 1 0
BITMAP
1000
2D00
0200
1E00
2100
0000
0C00
7300
0080
0080
0080
0080
7F80
8080
8080
8080
8180
7E00
ENDCHAR
STARTCHAR 1EAC
ENCODING 7852
SWIDTH 675 0
DWIDTH 15 0
BBX 15 23 0 -4
BITMAP
0380
0440
0000
0100
0300
0280
0280
0440
0440
0820
0820
1010
1010
2008
2FF8
4008
4004
8004
8002
0000
0000
0000
0100
ENDCHAR
STARTCHAR 1EAD
ENCODING 7853
SWIDTH 540 0
DWIDTH 12 0
BBX 9 20 1 -4
BITMAP
0C00
1200
2100
0000
0C00
7300
0080
0080
0080
0080
7F80
8080
8080
8080
8180
6200
1C00
0000
0000
0400
ENDCHAR
STARTCHAR 1EAE
ENCODING 7854
SWIDTH 675 0
DWIDTH 15 0
BBX 15 21 0 0
BITMAP
0040
0180
0020
0440
0380
0100
0300
0280
0280
0440
0440
0820
0820
1010
1010
2008
2FF8
4008
4004
8004
8002
ENDCHAR
STARTCHAR 1EAF
ENCODING 7855
SWIDTH 540 0
DWIDTH 12 0
BBX 9 17 1 1
BITMAP
0600
0000
2100
1E00
0000
0C00
7300
0080
0080
0080
0080
7F80
8080
8080
8080
8180
7E00
ENDCHAR
STARTCHAR 1EB0
ENCODING 7856
SWIDTH 675 0
DWIDTH 15 0
BBX 15 21 0 0
BITMAP
0200
0100
0020
0440
0380
0100
0300
0280
0280
0440
0440
0820
0820
1010
1010
2008
2FF8
4008
4004
8004
8002
ENDCHAR
STARTCHAR 1EB1
ENCODING 7857
SWIDTH 540 0
DWIDTH 12 0
BBX 9 18 1 0
BITMAP
1000
0800
0000
2100
1E00
0000
0C00
7300
0080
0080
0080
0080
7F80
8080
8080
8080
8180
7E00
ENDCHAR
STARTCHAR 1EB2
ENCODING 7858
SWIDTH 675 0
DWIDTH 15 0
BBX 15 21 0 0
BITMAP
0180
0080
0020
0440
0380
0100
0300
0280
0280
0440
0440
0820
0820
1010
1010
2008
2FF8
4008
4004
8004
8002
ENDCHAR
STARTCHAR 1EB3
ENCODING 7859
SWIDTH 540 0
DWIDTH 12 0
BBX 9 18 1 0
BITMAP
0C00
0400
0400
2100
1E00
0000
0C00
7300
0080
0080
0080
0080
7F80
8080
8080
8080
8180
7E00
ENDCHAR
STARTCHAR 1EB4
ENCODING 7860
SWIDTH 675 0
DWIDTH 15 0
BBX 15 21 0 0
BITMAP
0620
01C0
0020
0440
0380
0100
0300
0280
0280
0440
0440
0820
0820
1010
1010
2008
2FF8
4008
4004
8004
8002
ENDCHAR
STARTCHAR 1EB5
ENCODING 7861
SWIDTH 540 0
DWIDTH 12 0
BBX 9 18 1 0
BITMAP
1000
2D00
0200
2100
1E00
0000
0C00
7300
0080
0080
0080
0080
7F80
8080
8080
8080
8180
7E00
ENDCHAR
STARTCHAR 1EB6
ENCODING 7862
SWIDTH 675 0
DWIDTH 15 0
BBX 15 22 0 -3
BITMAP
0440
0380
0100
0300
0280
0280
0440
0440
0820
0820
1010
1010
2008
2FF8
4008
4004
8004
8002
0000
0000
0000
0100
ENDCHAR
STARTCHAR 1EB7
ENCODING 7863
SWIDTH 540 0
DWIDTH 12 0
BBX 9 20 1 -4
BITMAP
2000
2100
1E00
0000
0C00
7300
0080
0080
0080
0080
7F80
8080
8080
8080
8180
6200
1C00
0000
0000
0400
ENDCHAR
STARTCHAR 1EB8
ENCODING 7864
SWIDTH 630 0
DWIDTH 14 0
BBX 10 20 3 -4
BITMAP
FFC0
8000
8000
8000
8000
8000
8000
8000
FF00
8000
8000
8000
8000
8000
8000
0000
FF80
0000
0000
0400
ENDCHAR
STARTCHAR 1EB9
ENCODING 7865
SWIDTH 585 0
DWIDTH 13 0
BBX 11 16 1 -4
BITMAP
0400
3B80
4040
8040
8020
8020
FFC0
8000
8000
4000
2040
1980
0600
0000
0000
0400
ENDCHAR
STARTCHAR 1EBA
ENCODING 7866
SWIDTH 630 0
DWIDTH 14 0
BBX 10 20 3 0
BITMAP
0E00
0200
0400
0000
FFC0
8000
8000
8000
8000
8000
8000
8000
FF00
8000
8000
8000
8000
8000
8000
FF80
ENDCHAR
STARTCHAR 1EBB
ENCODING 7867
SWIDTH 585 0
DWIDTH 13 0
BBX 11 17 1 0
BITMAP
0E00
0200
0200
0400
0000
0400
3B80
4040
8040
8020
8020
FFC0
8000
8000
4000
2040
1F80
ENDCHAR
STARTCHAR 1EBC
ENCODING 7868
SWIDTH 630 0
DWIDTH 14 0
BBX 10 19 3 0
BITMAP
3800
0700
0000
FFC0
8000
8000
8000
8000
8000
8000
8000
FF00
8000
8000
8000
8000
8000
8000
FF80
ENDCHAR
STARTCHAR 1EBD
ENCODING 7869
SWIDTH 585 0
DWIDTH 13 0
BBX 11 16 1 0
BITMAP
1880
0500
0200
0000
0400
3B80
4040
8040
8020
8020
FFC0
8000
8000
4000
2040
1F80
ENDCHAR
STARTCHAR 1EBE
ENCODING 7870
SWIDTH 630 0
DWIDTH 14 0
BBX 10 21 3 0
BITMAP
0040
0080
0900
1600
0000
FFC0
8000
8000
8000
8000
8000
8000
8000
FF00
8000
8000
8000
8000
8000
8000
FF80
ENDCHAR
STARTCHAR 1EBF
ENCODING 7871
SWIDTH 585 0
DWIDTH 13 0
BBX 11 17 1 0
BITMAP
0040
0080
0E00
3180
0000
0400
3B80
4040
8040
8020
8020
FFC0
8000
8000
4000
2040
1F80
ENDCHAR
STARTCHAR 1EC0
ENCODING 7872
SWIDTH 630 0
DWIDTH 14 0
BBX 10 21 3 0
BITMAP
0400
0200
0980
1600
0000
FFC0
8000
8000
8000
8000
8000
8000
8000
FF00
8000
8000
8000
8000
8000
8000
FF80
ENDCHAR
STARTCHAR 1EC1
ENCODING 7873
SWIDTH 585 0
DWIDTH 13 0
BBX 11 17 1 0
BITMAP
0200
0180
0E00
3180
0000
0400
3B80
4040
8040
8020
8020
FFC0
8000
8000
4000
2040
1F80
ENDCHAR
STARTCHAR 1EC2
ENCODING 7874
SWIDTH 630 0
DWIDTH 14 0
BBX 10 21 3 0
BITMAP
0300
0100
0900
1600
0000
FFC0
8000
8000
8000
8000
8000
8000
8000
FF00
8000
8000
8000
8000
8000
8000
FF80
ENDCHAR
STARTCHAR 1EC3
ENCODING 7875
SWIDTH 585 0
DWIDTH 13 0
BBX 11 18 1 0
BITMAP
0100
0080
0080
0E00
3180
0000
0400
3B80
4040
8040
8020
8020
FFC0
8000
8000
4000
2040
1F80
ENDCHAR
STARTCHAR 1EC4
ENCODING 7876
SWIDTH 630 0
DWIDTH 14 0
BBX 10 21 3 0
BITMAP
3900
0600
0800
1600
0000
FFC0
8000
8000
8000
8000
8000
8000
8000
FF00
8000
8000
8000
8000
8000
8000
FF80
ENDCHAR
STARTCHAR 1EC5
ENCODING 7877
SWIDTH 585 0
DWIDTH 13 0
BBX 11 18 1 0
BITMAP
0800
0500
0200
0E00
3180
0000
0400
3B80
4040
8040
8020
8020
FFC0
8000
8000
4000
2040
1F80
ENDCHAR
STARTCHAR 1EC6
ENCODING 7878
SWIDTH 630 0
DWIDTH 14 0
BBX 10 23 3 -4
BITMAP
0C00
3200
0000
FFC0
8000
8000
8000
8000
8000
8000
8000
FF00
8000
8000
8000
8000
8000
8000
0000
FF80
0000
0000
0400
ENDCHAR
STARTCHAR 1EC7
ENCODING 7879
SWIDTH 585 0
DWIDTH 13 0
BBX 11 20 1 -4
BITMAP
0C00
1200
2180
0000
0400
3B80
4040
8040
8020
8020
FFC0
8000
8000
4000
2040
1980
0600
0000
0000
0400
ENDCHAR
STARTCHAR 1EC8
ENCODING 7880
SWIDTH 270 0
DWIDTH 6 0
BBX 3 19 2 0
BITMAP
60
20
40
00
00
80
80
80
80
80
80
80
80
80
80
80
80
80
80
ENDCHAR
STARTCHAR 1EC9
ENCODING 7881
SWIDTH 225 0
DWIDTH 5 0
BBX 3 16 1 0
BITMAP
E0
20
20
00
00
00
00
40
40
40
40
40
40
40
40
40
ENDCHAR
STARTCHAR 1ECA
ENCODING 7882
SWIDTH 270 0
DWIDTH 6 0
BBX 1 19 3 -3
BITMAP
80
80
80
80
80
80
80
80
80
80
80
80
80
80
00
00
00
00
80
ENDCHAR
STARTCHAR 1ECB
ENCODING 7883
SWIDTH 225 0
DWIDTH 5 0
BBX 1 20 2 -4
BITMAP
80
00
00
00
00
00
80
80
80
80
80
80
80
80
80
00
00
00
00
80
ENDCHAR
STARTCHAR 1ECC
ENCODING 7884
SWIDTH 810 0
DWIDTH 18 0
BBX 16 20 1 -4
BITMAP
01C0
0E38
3004
4002
4002
8001
8001
8001
8001
8001
8001
8001
4002
2004
1008
0E30
01C0
0000
0000
0080
ENDCHAR
STARTCHAR 1ECD
ENCODING 7885
SWIDTH 585 0
DWIDTH 13 0
BBX 11 16 1 -4
BITMAP
0600
3980
4040
8020
8020
8020
8020
8020
8020
4040
2040
1980
0600
0000
0000
0400
ENDCHAR
STARTCHAR 1ECE
ENCODING 7886
SWIDTH 810 0
DWIDTH 18 0
BBX 16 20 1 0
BITMAP
00C0
0040
0080
0000
01C0
0E38
3004
4002
4002
8001
8001
8001
8001
8001
8001
8001
4002
2004
1008
0FF0
ENDCHAR
STARTCHAR 1ECF
ENCODING 7887
SWIDTH 585 0
DWIDTH 13 0
BBX 11 17 1 0
BITMAP
0E00
0200
0200
0000
0000
0600
3980
4040
8020
8020
8020
8020
8020
8020
4040
2040
1F80
ENDCHAR
STARTCHAR 1ED0
ENCODING 7888
SWIDTH 810 0
DWIDTH 18 0
BBX 16 20 1 1
BITMAP
0018
00A0
0340
0000
01C0
0E38
3004
4002
4002
8001
8001
8001
8001
8001
8001
8001
4002
2004
1008
0FF0
ENDCHAR
STARTCHAR 1ED1
ENCODING 7889
SWIDTH 585 0
DWIDTH 13 0
BBX 11 17 1 0
BITMAP
0040
0080
0E00
0180
0000
0600
3980
4040
8020
8020
8020
8020
8020
8020
4040
2040
1F80
ENDCHAR
STARTCHAR 1ED2
ENCODING 7890
SWIDTH 810 0
DWIDTH 18 0
BBX 16 20 1 1
BITMAP
0060
0090
0340
0000
01C0
0E38
3004
4002
4002
8001
8001
8001
8001
8001
8001
8001
4002
2004
1008
0FF0
ENDCHAR
STARTCHAR 1ED3
ENCODING 7891
SWIDTH 585 0
DWIDTH 13 0
BBX 11 17 1 0
BITMAP
0300
0080
0E00
0180
0000
0600
3980
4040
8020
8020
8020
8020
8020
8020
4040
2040
1F80
ENDCHAR
STARTCHAR 1ED4
ENCODING 7892
SWIDTH 810 0
DWIDTH 18 0
BBX 16 21 1 0
BITMAP
0070
0010
00A0
0340
0000
01C0
0E38
3004
4002
4002
8001
8001
8001
8001
8001
8001
8001
4002
2004
1008
0FF0
ENDCHAR
STARTCHAR 1ED5
ENCODING 7893
SWIDTH 585 0
DWIDTH 13 0
BBX 11 18 1 0
BITMAP
0180
0080
0080
0E00
0180
0000
0600
3980
4040
8020
8020
8020
8020
8020
8020
4040
2040
1F80
ENDCHAR
STARTCHAR 1ED6
ENCODING 7894
SWIDTH 810 0
DWIDTH 18 0
BBX 16 21 1 0
BITMAP
0300
04E0
0080
0340
0000
01C0
0E38
3004
4002
4002
8001
8001
8001
8001
8001
8001
8001
4002
2004
1008
0FF0
ENDCHAR
STARTCHAR 1ED7
ENCODING 7895
SWIDTH 585 0
DWIDTH 13 0
BBX 11 18 1 0
BITMAP
0880
1700
0000
0E00
0180
0000
0600
3980
4040
8020
8020
8020
8020
8020
8020
4040
2040
1F80
ENDCHAR
STARTCHAR 1ED8
ENCODING 7896
SWIDTH 810 0
DWIDTH 18 0
BBX 16 23 1 -4
BITMAP
0180
0260
0000
01C0
0E38
3004
4002
4002
8001
8001
8001
8001
8001
8001
8001
4002
2004
1008
0E30
01C0
0000
0000
0080
ENDCHAR
STARTCHAR 1ED9
ENCODING 7897
SWIDTH 585 0
DWIDTH 13 0
BBX 11 20 1 -4
BITMAP
0600
0900
1080
0000
0600
3980
4040
8020
8020
8020
8020
8020
8020
4040
2040
1980
0600
0000
0000
0400
ENDCHAR
STARTCHAR 1EDA
ENCODING 7898
SWIDTH 810 0
DWIDTH 18 0
BBX 16 19 1 0
BITMAP
0060
0081
0001
01C2
0E3C
3004
4002
4002
8001
8001
8001
8001
8001
8001
8001
4002
2004
1008
0FF0
ENDCHAR
STARTCHAR 1EDB
ENCODING 7899
SWIDTH 585 0
DWIDTH 13 0
BBX 11 16 1 0
BITMAP
0100
0220
0420
0020
0640
3980
4040
8020
8020
8020
8020
8020
8020
4040
2040
1F80
ENDCHAR
STARTCHAR 1EDC
ENCODING 7900
SWIDTH 810 0
DWIDTH 18 0
BBX 16 19 1 0
BITMAP
0200
0101
0081
01C2
0E3C
3004
4002
4002
8001
8001
8001
8001
8001
8001
8001
4002
2004
1008
0FF0
ENDCHAR
STARTCHAR 1EDD
ENCODING 7901
SWIDTH 585 0
DWIDTH 13 0
BBX 11 16 1 0
BITMAP
1000
0820
0620
0020
0640
3980
4040
8020
8020
8020
8020
8020
8020
4040
2040
1F80
ENDCHAR
STARTCHAR 1EDE
ENCODING 7902
SWIDTH 810 0
DWIDTH 18 0
BBX 16 20 1 0
BITMAP
00C0
0040
0081
0001
01C2
0E3C
3004
4002
4002
8001
8001
8001
8001
8001
8001
8001
4002
2004
1008
0FF0
ENDCHAR
STARTCHAR 1EDF
ENCODING 7903
SWIDTH 585 0
DWIDTH 13 0
BBX 11 17 1 0
BITMAP
0E00
0200
0220
0020
0020
0640
3980
4040
8020
8020
8020
8020
8020
8020
4040
2040
1F80
ENDCHAR
STARTCHAR 1EE0
ENCODING 7904
SWIDTH 810 0
DWIDTH 18 0
BBX 16 19 1 0
BITMAP
0700
04E1
0001
01C2
0E3C
3004
4002
4002
8001
8001
8001
8001
8001
8001
8001
4002
2004
1008
0FF0
ENDCHAR
STARTCHAR 1EE1
ENCODING 7905
SWIDTH 585 0
DWIDTH 13 0
BBX 11 16 1 0
BITMAP
0880
14A0
0320
0020
0640
3980
4040
8020
8020
8020
8020
8020
8020
4040
2040
1F80
ENDCHAR
STARTCHAR 1EE2
ENCODING 7906
SWIDTH 810 0
DWIDTH 18 0
BBX 16 22 1 -3
BITMAP
0001
0001
01C2
0E3C
3004
4002
4002
8001
8001
8001
8001
8001
8001
8001
4002
2004
1008
0E30
01C0
0000
0000
0080
ENDCHAR
STARTCHAR 1EE3
ENCODING 7907
SWIDTH 585 0
DWIDTH 13 0
BBX 11 19 1 -4
BITMAP
0020
0020
0020
0640
3980
4040
8020
8020
8020
8020
8020
8020
4040
2040
1980
0600
0000
0000
0400
ENDCHAR
STARTCHAR 1EE4
ENCODING 7908
SWIDTH 765 0
DWIDTH 17 0
BBX 12 20 3 -4
BITMAP
0010
8010
8010
8010
8010
8010
8010
8010
8010
8010
8010
8010
8020
8020
4040
3180
0E00
0000
0000
0400
ENDCHAR
STARTCHAR 1EE5
ENCODING 7909
SWIDTH 630 0
DWIDTH 14 0
BBX 10 15 2 -4
BITMAP
8000
8040
8040
8040
8040
8040
8040
8040
8040
40C0
3300
0C00
0000
0000
0400
ENDCHAR
STARTCHAR 1EE6
ENCODING 7910
SWIDTH 765 0
DWIDTH 17 0
BBX 12 20 3 0
BITMAP
0600
0200
0200
0000
0010
8010
8010
8010
8010
8010
8010
8010
8010
8010
8010
8010
8020
8020
4040
3F80
ENDCHAR
STARTCHAR 1EE7
ENCODING 7911
SWIDTH 630 0
DWIDTH 14 0
BBX 10 17 2 0
BITMAP
0600
0200
0200
0400
0000
0000
8000
8040
8040
8040
8040
8040
8040
8040
8040
40C0
3F00
ENDCHAR
STARTCHAR 1EE8
ENCODING 7912
SWIDTH 765 0
DWIDTH 17 0
BBX 14 19 3 0
BITMAP
0104
0604
0004
0018
8010
8010
8010
8010
8010
8010
8010
8010
8010
8010
8010
8020
8020
4040
3F80
ENDCHAR
STARTCHAR 1EE9
ENCODING 7913
SWIDTH 630 0
DWIDTH 14 0
BBX 12 16 2 0
BITMAP
0100
0610
0810
0010
0020
8000
8040
8040
8040
8040
8040
8040
8040
8040
40C0
3F00
ENDCHAR
STARTCHAR 1EEA
ENCODING 7914
SWIDTH 765 0
DWIDTH 17 0
BBX 14 19 3 0
BITMAP
0804
0404
0004
0018
8010
8010
8010
8010
8010
8010
8010
8010
8010
8010
8010
8020
8020
4040
3F80
ENDCHAR
STARTCHAR 1EEB
ENCODING 7915
SWIDTH 630 0
DWIDTH 14 0
BBX 12 16 2 0
BITMAP
1000
0810
0410
0010
0020
8000
8040
8040
8040
8040
8040
8040
8040
8040
40C0
3F00
ENDCHAR
STARTCHAR 1EEC
ENCODING 7916
SWIDTH 765 0
DWIDTH 17 0
BBX 14 20 3 0
BITMAP
0600
0204
0204
0004
0018
8010
8010
8010
8010
8010
8010
8010
8010
8010
8010
8010
8020
8020
4040
3F80
ENDCHAR
STARTCHAR 1EED
ENCODING 7917
SWIDTH 630 0
DWIDTH 14 0
BBX 12 17 2 0
BITMAP
0600
0200
0210
0410
0010
0020
8000
8040
8040
8040
8040
8040
8040
8040
8040
40C0
3F00
ENDCHAR
STARTCHAR 1EEE
ENCODING 7918
SWIDTH 765 0
DWIDTH 17 0
BBX 14 19 3 0
BITMAP
1C84
0304
0004
0018
8010
8010
8010
8010
8010
8010
8010
8010
8010
8010
8010
8020
8020
4040
3F80
ENDCHAR
STARTCHAR 1EEF
ENCODING 7919
SWIDTH 630 0
DWIDTH 14 0
BBX 12 16 2 0
BITMAP
1800
2510
0210
0010
0020
8000
8040
8040
8040
8040
8040
8040
8040
8040
40C0
3F00
ENDCHAR
STARTCHAR 1EF0
ENCODING 7920
SWIDTH 765 0
DWIDTH 17 0
BBX 14 23 3 -4
BITMAP
0004
0004
0004
0018
8010
8010
8010
8010
8010
8010
8010
8010
8010
8010
8010
8020
8020
4040
3180
0E00
0000
0000
0400
ENDCHAR
STARTCHAR 1EF1
ENCODING 7921
SWIDTH 630 0
DWIDTH 14 0
BBX 12 19 2 -4
BITMAP
0010
0010
0010
0020
8000
8040
8040
8040
8040
8040
8040
8040
8040
40C0
3300
0C00
0000
0000
0400
ENDCHAR
STARTCHAR 1EF2
ENCODING 7922
SWIDTH 585 0
DWIDTH 13 0
BBX 13 18 0 0
BITMAP
0C00
0200
0000
8000
8008
4010
2020
2020
1040
1040
0880
0500
0500
0200
0200
0200
0200
0200
ENDCHAR
STARTCHAR 1EF3
ENCODING 7923
SWIDTH 495 0
DWIDTH 11 0
BBX 12 20 -1 -4
BITMAP
0800
0400
0200
0000
0000
0010
2020
2020
2040
1040
1080
0880
0900
0500
0500
0200
0200
0400
0400
F800
ENDCHAR
STARTCHAR 1EF4
ENCODING 7924
SWIDTH 585 0
DWIDTH 13 0
BBX 13 20 0 -4
BITMAP
8000
8008
4010
2020
2020
1040
1040
0880
0500
0500
0200
0200
0200
0200
0200
0000
0000
0000
0000
0200
ENDCHAR
STARTCHAR 1EF5
ENCODING 7925
SWIDTH 495 0
DWIDTH 11 0
BBX 12 15 -1 -4
BITMAP
0010
2020
2020
2040
1040
1080
0880
0900
0500
0500
0200
0200
0400
0400
F880
ENDCHAR
STARTCHAR 1EF6
ENCODING 7926
SWIDTH 585 0
DWIDTH 13 0
BBX 13 19 0 0
BITMAP
0300
0100
0100
0000
8000
8008
4010
2020
2020
1040
1040
0880
0500
0500
0200
0200
0200
0200
0200
ENDCHAR
STARTCHAR 1EF7
ENCODING 7927
SWIDTH 495 0
DWIDTH 11 0
BBX 12 21 -1 -4
BITMAP
0300
0100
0100
0200
0000
0000
0010
2020
2020
2040
1040
1080
0880
0900
0500
0500
0200
0200
0400
0400
F800
ENDCHAR
STARTCHAR 1EF8
ENCODING 7928
SWIDTH 585 0
DWIDTH 13 0
BBX 13 18 0 0
BITMAP
0E40
0180
0000
8000
8008
4010
2020
2020
1040
1040
0880
0500
0500
0200
0200
0200
0200
0200
ENDCHAR
STARTCHAR 1EF9
ENCODING 7929
SWIDTH 495 0
DWIDTH 11 0
BBX 12 20 -1 -4
BITMAP
0C00
1280
0100
0000
0000
0010
2020
2020
2040
1040
1080
0880
0900
0500
0500
0200
0200
0400
0400
F800
ENDCHAR
STARTCHAR 2007
ENCODING 8199
SWIDTH 675 0
DWIDTH 15 0
BBX 0 0 0 0
BITMAP
ENDCHAR
STARTCHAR 2008
ENCODING 8200
SWIDTH 180 0
DWIDTH 4 0
BBX 0 0 0 0
BITMAP
ENDCHAR
STARTCHAR 2009
ENCODING 8201
SWIDTH 90 0
DWIDTH 2 0
BBX 0 0 0 0
BITMAP
ENDCHAR
STARTCHAR 200A
ENCODING 8202
SWIDTH 90 0
DWIDTH 2 0
BBX 0 0 0 0
BITMAP
ENDCHAR
STARTCHAR 200B
ENCODING 8203
SWIDTH 0 0
DWIDTH 0 0
BBX 0 0 0 0
BITMAP
ENDCHAR
STARTCHAR 2010
ENCODING 8208
SWIDTH 360 0
DWIDTH 8 0
BBX 4 1 2 5
BITMAP
F0
ENDCHAR
STARTCHAR 2012
ENCODING 8210
SWIDTH 675 0
DWIDTH 15 0
BBX 11 1 2 7
BITMAP
FFE0
ENDCHAR
STARTCHAR 2013
ENCODING 8211
SWIDTH 495 0
DWIDTH 11 0
BBX 9 1 1 5
BITMAP
FF80
ENDCHAR
STARTCHAR 2014
ENCODING 8212
SWIDTH 990 0
DWIDTH 22 0
BBX 20 1 1 5
BITMAP
FFFFF0
ENDCHAR
STARTCHAR 2015
ENCODING 8213
SWIDTH 990 0
DWIDTH 22 0
BBX 20 1 1 5
BITMAP
FFFFF0
ENDCHAR
STARTCHAR 2018
ENCODING 8216
SWIDTH 180 0
DWIDTH 4 0
BBX 1 2 1 13
BITMAP
80
80
ENDCHAR
STARTCHAR 2019
ENCODING 8217
SWIDTH 180 0
DWIDTH 4 0
BBX 2 4 1 13
BITMAP
40
80
80
80
ENDCHAR
STARTCHAR 201A
ENCODING 8218
SWIDTH 180 0
DWIDTH 4 0
BBX 2 3 1 -3
BITMAP
C0
80
80
ENDCHAR
STARTCHAR 201C
ENCODING 8220
SWIDTH 270 0
DWIDTH 6 0
BBX 4 3 1 13
BITMAP
90
90
10
ENDCHAR
STARTCHAR 201D
ENCODING 8221
SWIDTH 270 0
DWIDTH 6 0
BBX 4 4 1 13
BITMAP
50
90
90
90
ENDCHAR
STARTCHAR 201E
ENCODING 8222
SWIDTH 270 0
DWIDTH 6 0
BBX 4 4 1 -3
BITMAP
D0
90
90
10
ENDCHAR
STARTCHAR 2020
ENCODING 8224
SWIDTH 495 0
DWIDTH 11 0
BBX 10 18 1 -3
BITMAP
0800
0800
0800
0800
0800
FFC0
0800
0800
0800
0800
0800
0800
0800
0800
0800
0800
0800
0800
ENDCHAR
STARTCHAR 2021
ENCODING 8225
SWIDTH 495 0
DWIDTH 11 0
BBX 10 18 1 -3
BITMAP
0800
0800
0800
0800
0800
FFC0
0800
0800
0800
0800
0800
0800
0800
7F80
0800
0800
0800
0800
ENDCHAR
STARTCHAR 2022
ENCODING 8226
SWIDTH 225 0
DWIDTH 5 0
BBX 2 2 2 5
BITMAP
C0
C0
ENDCHAR
STARTCHAR 2026
ENCODING 8230
SWIDTH 540 0
DWIDTH 12 0
BBX 10 1 1 0
BITMAP
C440
ENDCHAR
STARTCHAR 2030
ENCODING 8240
SWIDTH 1125 0
DWIDTH 25 0
BBX 23 16 1 0
BITMAP
100000
6C0800
841000
822000
822000
824000
848000
448000
393C3C
024242
024182
048182
084182
084282
104242
003C3C
ENDCHAR
STARTCHAR 2032
ENCODING 8242
SWIDTH 180 0
DWIDTH 4 0
BBX 1 4 2 11
BITMAP
80
80
80
80
ENDCHAR
STARTCHAR 2033
ENCODING 8243
SWIDTH 315 0
DWIDTH 7 0
BBX 4 6 2 10
BITMAP
10
90
90
90
90
10
ENDCHAR
STARTCHAR 2039
ENCODING 8249
SWIDTH 270 0
DWIDTH 6 0
BBX 4 8 1 2
BITMAP
10
20
40
80
80
40
20
30
ENDCHAR
STARTCHAR 203A
ENCODING 8250
SWIDTH 270 0
DWIDTH 6 0
BBX 4 8 1 2
BITMAP
80
40
40
20
10
20
40
80
ENDCHAR
STARTCHAR 2044
ENCODING 8260
SWIDTH 135 0
DWIDTH 3 0
BBX 10 14 -3 1
BITMAP
0040
0080
0100
0100
0200
0400
0400
0800
1000
2000
2000
4000
8000
8000
ENDCHAR
STARTCHAR 2052
ENCODING 8274
SWIDTH 450 0
DWIDTH 10 0
BBX 6 15 2 1
BITMAP
84
08
08
08
10
10
10
20
20
20
40
40
40
80
84
ENDCHAR
STARTCHAR 2070
ENCODING 8304
SWIDTH 405 0
DWIDTH 9 0
BBX 8 10 1 7
BITMAP
10
6C
82
82
81
81
81
82
42
3C
ENDCHAR
STARTCHAR 2074
ENCODING 8308
SWIDTH 405 0
DWIDTH 9 0
BBX 7 9 1 7
BITMAP
18
10
20
44
84
84
7E
04
04
ENDCHAR
STARTCHAR 2075
ENCODING 8309
SWIDTH 405 0
DWIDTH 9 0
BBX 7 9 1 7
BITMAP
7C
80
80
80
7C
02
02
82
7C
ENDCHAR
STARTCHAR 2076
ENCODING 8310
SWIDTH 405 0
DWIDTH 9 0
BBX 7 10 1 7
BITMAP
08
74
80
80
98
E6
82
82
42
3C
ENDCHAR
STARTCHAR 2077
ENCODING 8311
SWIDTH 405 0
DWIDTH 9 0
BBX 7 8 1 7
BITMAP
FE
02
04
04
08
08
10
10
ENDCHAR
STARTCHAR 2078
ENCODING 8312
SWIDTH 405 0
DWIDTH 9 0
BBX 8 10 1 7
BITMAP
10
EE
82
82
44
7A
81
81
82
7C
ENDCHAR
STARTCHAR 2079
ENCODING 8313
SWIDTH 405 0
DWIDTH 9 0
BBX 7 10 1 7
BITMAP
10
EC
82
82
86
2A
12
02
04
78
ENDCHAR
STARTCHAR 2080
ENCODING 8320
SWIDTH 405 0
DWIDTH 9 0
BBX 8 9 1 -2
BITMAP
3C
C2
82
81
81
81
82
82
7C
ENDCHAR
STARTCHAR 2081
ENCODING 8321
SWIDTH 405 0
DWIDTH 9 0
BBX 4 9 3 -2
BITMAP
C0
40
40
40
40
40
40
40
F0
ENDCHAR
STARTCHAR 2082
ENCODING 8322
SWIDTH 405 0
DWIDTH 9 0
BBX 7 9 1 -2
BITMAP
7C
02
02
04
04
08
30
40
FC
ENDCHAR
STARTCHAR 2083
ENCODING 8323
SWIDTH 405 0
DWIDTH 9 0
BBX 7 9 1 -2
BITMAP
7C
04
08
10
0C
02
02
02
FC
ENDCHAR
STARTCHAR 2084
ENCODING 8324
SWIDTH 405 0
DWIDTH 9 0
BBX 8 9 1 -2
BITMAP
08
10
20
40
44
84
FF
04
04
ENDCHAR
STARTCHAR 2085
ENCODING 8325
SWIDTH 405 0
DWIDTH 9 0
BBX 7 9 1 -2
BITMAP
7C
40
80
80
78
06
02
02
7C
ENDCHAR
STARTCHAR 2086
ENCODING 8326
SWIDTH 405 0
DWIDTH 9 0
BBX 8 9 1 -2
BITMAP
3E
40
80
80
BE
C2
81
82
7E
ENDCHAR
STARTCHAR 2087
ENCODING 8327
SWIDTH 405 0
DWIDTH 9 0
BBX 8 8 1 -2
BITMAP
FF
02
02
04
08
08
10
10
ENDCHAR
STARTCHAR 2088
ENCODING 8328
SWIDTH 405 0
DWIDTH 9 0
BBX 8 9 1 -2
BITMAP
7C
82
82
82
7C
C2
81
81
7E
ENDCHAR
STARTCHAR 2089
ENCODING 8329
SWIDTH 405 0
DWIDTH 9 0
BBX 7 9 1 -2
BITMAP
7C
82
82
82
86
7A
02
02
3C
ENDCHAR
STARTCHAR 20A1
ENCODING 8353
SWIDTH 675 0
DWIDTH 15 0
BBX 13 20 1 -2
BITMAP
0090
01D0
0F28
3120
4120
4220
8240
8240
8240
8440
8480
8480
8480
4880
2900
1908
0F30
11C0
1200
1000
ENDCHAR
STARTCHAR 20A3
ENCODING 8355
SWIDTH 630 0
DWIDTH 14 0
BBX 12 16 1 0
BITMAP
3FF0
2000
2000
2000
2000
2000
2000
2000
3FE0
2000
2000
2000
FF00
2000
2000
2000
ENDCHAR
STARTCHAR 20A4
ENCODING 8356
SWIDTH 585 0
DWIDTH 13 0
BBX 12 16 1 0
BITMAP
0380
0C70
1000
2000
2000
2000
FF80
2000
2000
2000
7F00
2000
2000
2000
2000
7FE0
ENDCHAR
STARTCHAR 20A6
ENCODING 8358
SWIDTH 810 0
DWIDTH 18 0
BBX 17 16 1 0
BITMAP
200200
300200
300200
280200
240200
220200
FFFF80
210200
208200
204200
7FFF00
202200
201200
200A00
200600
200200
ENDCHAR
STARTCHAR 20A7
ENCODING 8359
SWIDTH 1530 0
DWIDTH 34 0
BBX 31 16 3 0
BITMAP
FC000000
83800000
80400000
80210000
80210020
8023E1CC
80210200
80210200
80410200
80810180
FF010078
80010004
80010002
80010002
80010202
0000F1FC
ENDCHAR
STARTCHAR 20A9
ENCODING 8361
SWIDTH 1125 0
DWIDTH 25 0
BBX 23 16 1 0
BITMAP
801002
803002
803004
402804
404804
404408
FFFFFE
208410
208210
110210
7FFFEC
090120
0A0120
0A0140
0600C0
040040
ENDCHAR
STARTCHAR 20AB
ENCODING 8363
SWIDTH 630 0
DWIDTH 14 0
BBX 13 18 1 -2
BITMAP
0020
01F8
0020
0620
39A0
4060
8020
8020
8020
8020
8020
8020
4060
2060
1980
0600
0000
7FE0
ENDCHAR
STARTCHAR 20AC
ENCODING 8364
SWIDTH 765 0
DWIDTH 17 0
BBX 15 16 1 0
BITMAP
0070
038C
0C02
1000
1000
2000
FFF0
2000
2000
2000
7FE0
2000
1000
0800
0402
03FC
ENDCHAR
STARTCHAR 20AD
ENCODING 8365
SWIDTH 540 0
DWIDTH 12 0
BBX 10 16 2 0
BITMAP
4040
4080
4100
4200
4400
4800
5000
6000
FF00
5000
4800
4400
4200
4100
4080
4040
ENDCHAR
STARTCHAR 20AE
ENCODING 8366
SWIDTH 630 0
DWIDTH 14 0
BBX 12 16 1 0
BITMAP
FFF0
0200
0200
0200
0200
02C0
0300
0600
1A40
0380
0600
1A00
0200
0200
0200
0200
ENDCHAR
STARTCHAR 20B1
ENCODING 8369
SWIDTH 810 0
DWIDTH 18 0
BBX 14 16 2 0
BITMAP
7F00
40E0
4010
4010
FFEC
4008
4008
FFF4
4010
4020
7FC0
4000
4000
4000
4000
4000
ENDCHAR
STARTCHAR 20B2
ENCODING 8370
SWIDTH 765 0
DWIDTH 17 0
BBX 14 19 1 -2
BITMAP
0100
01C0
0F38
3104
4100
4100
8100
8100
8100
8104
8104
8104
8104
4104
2104
1108
0F30
01C0
0100
ENDCHAR
STARTCHAR 20B4
ENCODING 8372
SWIDTH 810 0
DWIDTH 18 0
BBX 13 16 3 0
BITMAP
0700
38C0
0020
0020
0020
0020
FFF8
0000
0000
0000
7FF0
8000
8000
4000
4020
3FC0
ENDCHAR
STARTCHAR 20B5
ENCODING 8373
SWIDTH 675 0
DWIDTH 15 0
BBX 13 19 1 -2
BITMAP
0100
01C0
0F38
3100
4100
4100
8100
8100
8100
8100
8100
8100
8100
4100
2100
1108
0F30
01C0
0100
ENDCHAR
STARTCHAR 20B8
ENCODING 8376
SWIDTH 675 0
DWIDTH 15 0
BBX 12 15 2 0
BITMAP
FFF0
0000
0000
FFF0
0400
0400
0400
0400
0400
0400
0400
0400
0400
0400
0400
ENDCHAR
STARTCHAR 20B9
ENCODING 8377
SWIDTH 675 0
DWIDTH 15 0
BBX 15 16 0 0
BITMAP
FFFE
0040
0020
0010
7FFC
0010
0010
0010
0020
00C0
0F80
0080
0040
0020
0020
0010
ENDCHAR
STARTCHAR 20BA
ENCODING 8378
SWIDTH 630 0
DWIDTH 14 0
BBX 12 16 2 0
BITMAP
4000
4000
4000
4200
4C00
7000
C200
4C00
7010
C010
4020
4020
4020
4040
4080
7F00
ENDCHAR
STARTCHAR 20BC
ENCODING 8380
SWIDTH 900 0
DWIDTH 20 0
BBX 15 17 3 1
BITMAP
0200
0380
1E60
2210
4208
8204
8204
8204
8204
8202
8202
8202
8202
8002
8002
8002
0002
ENDCHAR
STARTCHAR 20BD
ENCODING 8381
SWIDTH 675 0
DWIDTH 15 0
BBX 13 16 1 0
BITMAP
3F00
20E0
2018
2008
2008
2008
2008
2008
2008
2010
3FE0
2000
FF00
2000
2000
2000
ENDCHAR
STARTCHAR 2113
ENCODING 8467
SWIDTH 450 0
DWIDTH 10 0
BBX 8 16 1 0
BITMAP
02
0D
11
11
11
22
22
24
28
30
60
40
C0
40
41
3E
ENDCHAR
STARTCHAR 2116
ENCODING 8470
SWIDTH 1170 0
DWIDTH 26 0
BBX 22 16 3 0
BITMAP
000060
801198
C01204
A01204
A01204
901104
881088
841070
821000
821000
8110F8
809000
805000
805000
803000
001000
ENDCHAR
STARTCHAR 2122
ENCODING 8482
SWIDTH 990 0
DWIDTH 22 0
BBX 19 10 0 6
BITMAP
FF4000
104020
106060
105060
1050A0
104920
104520
104620
104020
004000
ENDCHAR
STARTCHAR 2126
ENCODING 8486
SWIDTH 900 0
DWIDTH 20 0
BBX 18 16 1 0
BITMAP
00E000
071800
180600
200100
200100
400080
400080
400080
400080
400080
400080
400100
200100
100200
080400
FC0FC0
ENDCHAR
STARTCHAR 212A
ENCODING 8490
SWIDTH 675 0
DWIDTH 15 0
BBX 12 15 3 1
BITMAP
8020
8040
8080
8100
8200
8400
8800
9800
A400
C200
8100
8080
8040
8020
0010
ENDCHAR
STARTCHAR 212B
ENCODING 8491
SWIDTH 675 0
DWIDTH 15 0
BBX 15 21 0 0
BITMAP
0780
0440
0440
0380
0000
0100
0300
0280
0280
0440
0440
0820
0820
1010
1010
2008
2FF8
4008
4004
8004
8002
ENDCHAR
STARTCHAR 212E
ENCODING 8494
SWIDTH 900 0
DWIDTH 20 0
BBX 18 16 1 0
BITMAP
01E000
061C00
180200
300100
600180
600180
6001C0
E001C0
FFFE00
E00000
600000
600000
200000
100200
080400
07F800
ENDCHAR
STARTCHAR 2153
ENCODING 8531
SWIDTH 990 0
DWIDTH 22 0
BBX 19 16 2 0
BITMAP
E00200
200400
200800
200800
201000
202000
202000
2047C0
208040
FC8080
010100
0200C0
020020
040020
080020
0807C0
ENDCHAR
STARTCHAR 2154
ENCODING 8532
SWIDTH 990 0
DWIDTH 22 0
BBX 20 16 1 0
BITMAP
300100
CC0200
020400
020400
040800
081000
101000
2023E0
404020
FE4040
008080
010060
010010
020010
040010
0403E0
ENDCHAR
STARTCHAR 215B
ENCODING 8539
SWIDTH 990 0
DWIDTH 22 0
BBX 20 16 2 0
BITMAP
E00200
200400
200800
200800
201000
202000
202000
2047E0
208820
FC8820
010420
0207C0
020830
041010
080810
0807E0
ENDCHAR
STARTCHAR 215C
ENCODING 8540
SWIDTH 990 0
DWIDTH 22 0
BBX 21 16 1 0
BITMAP
FE0100
040200
080400
100400
200800
1C1000
021000
0223F0
824410
7C4410
008210
0103E0
010418
020808
040408
0403F0
ENDCHAR
STARTCHAR 215D
ENCODING 8541
SWIDTH 990 0
DWIDTH 22 0
BBX 21 16 1 0
BITMAP
7E0100
400200
800400
800400
800800
7C1000
021000
0223F0
824410
7C4410
008210
0103E0
010418
020808
040408
0403F0
ENDCHAR
STARTCHAR 215E
ENCODING 8542
SWIDTH 990 0
DWIDTH 22 0
BBX 21 16 1 0
BITMAP
FF0100
820200
020400
040400
040800
081000
081000
1023F0
104410
004410
008210
0103E0
010418
020808
040408
0403F0
ENDCHAR
STARTCHAR 2190
ENCODING 8592
SWIDTH 585 0
DWIDTH 13 0
BBX 7 8 3 2
BITMAP
20
40
80
80
FE
80
40
20
ENDCHAR
STARTCHAR 2191
ENCODING 8593
SWIDTH 585 0
DWIDTH 13 0
BBX 8 8 3 2
BITMAP
38
54
93
10
10
10
10
10
ENDCHAR
STARTCHAR 2192
ENCODING 8594
SWIDTH 585 0
DWIDTH 13 0
BBX 7 8 3 2
BITMAP
08
04
04
02
FE
04
04
08
ENDCHAR
STARTCHAR 2193
ENCODING 8595
SWIDTH 585 0
DWIDTH 13 0
BBX 8 7 3 3
BITMAP
10
10
10
10
91
52
3C
ENDCHAR
STARTCHAR 2194
ENCODING 8596
SWIDTH 585 0
DWIDTH 13 0
BBX 11 8 1 2
BITMAP
0080
6080
4040
8020
FFE0
4040
4080
2080
ENDCHAR
STARTCHAR 2195
ENCODING 8597
SWIDTH 585 0
DWIDTH 13 0
BBX 8 11 3 2
BITMAP
38
54
93
10
10
10
10
10
91
56
38
ENDCHAR
STARTCHAR 2196
ENCODING 8598
SWIDTH 585 0
DWIDTH 13 0
BBX 7 7 3 3
BITMAP
18
60
A0
90
88
84
02
ENDCHAR
STARTCHAR 2197
ENCODING 8599
SWIDTH 585 0
DWIDTH 13 0
BBX 8 7 3 3
BITMAP
30
0E
0E
12
22
41
80
ENDCHAR
STARTCHAR 2198
ENCODING 8600
SWIDTH 585 0
DWIDTH 13 0
BBX 6 7 4 3
BITMAP
80
40
24
14
0C
0C
30
ENDCHAR
STARTCHAR 2199
ENCODING 8601
SWIDTH 585 0
DWIDTH 13 0
BBX 7 6 3 4
BITMAP
86
88
90
A0
C0
78
ENDCHAR
STARTCHAR 2202
ENCODING 8706
SWIDTH 675 0
DWIDTH 15 0
BBX 11 16 2 0
BITMAP
1C00
2380
0040
0040
0020
0020
0420
3BA0
C060
8060
8020
8020
8020
8040
4080
3F00
ENDCHAR
STARTCHAR 2205
ENCODING 8709
SWIDTH 540 0
DWIDTH 12 0
BBX 10 9 1 3
BITMAP
3FC0
4080
4380
8480
8880
5080
2080
5100
8E00
ENDCHAR
STARTCHAR 2206
ENCODING 8710
SWIDTH 675 0
DWIDTH 15 0
BBX 15 16 0 0
BITMAP
0100
0300
0280
0480
0440
0440
0820
0820
1010
1010
2008
2008
4008
4004
8004
FFFE
ENDCHAR
STARTCHAR 220F
ENCODING 8719
SWIDTH 810 0
DWIDTH 18 0
BBX 12 19 3 -4
BITMAP
FFF0
8010
8010
8010
8010
8010
8010
8010
8010
8010
8010
8010
8010
8010
8010
8010
8010
8010
8010
ENDCHAR
STARTCHAR 2211
ENCODING 8721
SWIDTH 630 0
DWIDTH 14 0
BBX 12 20 1 -4
BITMAP
FFF0
8000
4000
2000
1000
0800
0400
0400
0200
0100
0100
0100
0200
0400
0800
1000
1000
2000
4000
FFE0
ENDCHAR
STARTCHAR 2212
ENCODING 8722
SWIDTH 540 0
DWIDTH 12 0
BBX 7 1 3 7
BITMAP
FE
ENDCHAR
STARTCHAR 2215
ENCODING 8725
SWIDTH 270 0
DWIDTH 6 0
BBX 7 19 0 -1
BITMAP
02
02
04
04
04
08
08
10
10
10
20
20
20
40
40
40
80
80
80
ENDCHAR
STARTCHAR 2219
ENCODING 8729
SWIDTH 225 0
DWIDTH 5 0
BBX 1 1 2 7
BITMAP
80
ENDCHAR
STARTCHAR 221A
ENCODING 8730
SWIDTH 765 0
DWIDTH 17 0
BBX 14 20 3 -4
BITMAP
0004
0008
0008
0008
0010
0010
0010
0020
C020
4020
2040
2040
1080
1080
1080
0900
0900
0500
0600
0600
ENDCHAR
STARTCHAR 221E
ENCODING 8734
SWIDTH 900 0
DWIDTH 20 0
BBX 18 8 1 4
BITMAP
1C0600
633980
814040
80C040
804040
80C040
812080
7E1F00
ENDCHAR
STARTCHAR 222B
ENCODING 8747
SWIDTH 315 0
DWIDTH 7 0
BBX 10 21 -1 -4
BITMAP
0100
06C0
0800
0800
0800
0800
0800
0800
0800
0800
0800
0800
0800
0800
0800
0800
0800
0800
0800
0800
F800
ENDCHAR
STARTCHAR 2248
ENCODING 8776
SWIDTH 540 0
DWIDTH 12 0
BBX 9 8 2 4
BITMAP
6000
9080
0900
0600
0000
6000
9080
0F00
ENDCHAR
STARTCHAR 2260
ENCODING 8800
SWIDTH 540 0
DWIDTH 12 0
BBX 9 9 2 3
BITMAP
0200
0400
7B00
0800
1000
1000
FF80
2000
4000
ENDCHAR
STARTCHAR 2264
ENCODING 8804
SWIDTH 540 0
DWIDTH 12 0
BBX 9 12 2 0
BITMAP
0080
0300
1C00
6000
8000
6000
1C00
0300
0000
0000
0000
7F00
ENDCHAR
STARTCHAR 2265
ENCODING 8805
SWIDTH 540 0
DWIDTH 12 0
BBX 9 11 2 1
BITMAP
6000
1800
0700
0080
0700
1800
E000
0000
0000
0000
7F00
ENDCHAR
STARTCHAR 25A0
ENCODING 9632
SWIDTH 585 0
DWIDTH 13 0
BBX 9 8 2 2
BITMAP
FF80
FF80
FF80
FF80
FF80
FF80
FF80
FF80
ENDCHAR
STARTCHAR 25A1
ENCODING 9633
SWIDTH 585 0
DWIDTH 13 0
BBX 9 8 2 2
BITMAP
FF80
8080
8080
8080
8080
8080
8080
FF80
ENDCHAR
STARTCHAR 25B2
ENCODING 9650
SWIDTH 585 0
DWIDTH 13 0
BBX 9 9 2 2
BITMAP
0800
0C00
1C00
1E00
3E00
3F00
7F00
7F80
FF80
ENDCHAR
STARTCHAR 25B3
ENCODING 9651
SWIDTH 585 0
DWIDTH 13 0
BBX 9 9 2 2
BITMAP
0800
1400
1400
2200
2200
4100
4100
8080
FF80
ENDCHAR
STARTCHAR 25B6
ENCODING 9654
SWIDTH 585 0
DWIDTH 13 0
BBX 9 8 3 2
BITMAP
C000
F000
FC00
FF00
FF80
FC00
F000
C000
ENDCHAR
STARTCHAR 25B7
ENCODING 9655
SWIDTH 585 0
DWIDTH 13 0
BBX 9 8 3 2
BITMAP
C000
B000
8C00
8300
8180
8600
9800
E000
ENDCHAR
STARTCHAR 25BC
ENCODING 9660
SWIDTH 585 0
DWIDTH 13 0
BBX 9 10 2 1
BITMAP
FF80
FF80
7F00
7F00
3E00
3E00
1C00
1C00
0800
0800
ENDCHAR
STARTCHAR 25BD
ENCODING 9661
SWIDTH 585 0
DWIDTH 13 0
BBX 9 10 2 1
BITMAP
FF80
8080
8100
4100
4200
2200
2400
1400
1800
0800
ENDCHAR
STARTCHAR 25C0
ENCODING 9664
SWIDTH 585 0
DWIDTH 13 0
BBX 9 10 2 1
BITMAP
0080
0380
0F80
3F80
FF80
FF80
3F80
0F80
0380
0080
ENDCHAR
STARTCHAR 25C1
ENCODING 9665
SWIDTH 585 0
DWIDTH 13 0
BBX 9 10 2 1
BITMAP
0080
0380
0C80
3080
C080
8080
6080
1880
0680
0180
ENDCHAR
STARTCHAR 25C6
ENCODING 9670
SWIDTH 585 0
DWIDTH 13 0
BBX 11 12 1 0
BITMAP
0400
0E00
1F00
3F80
7FC0
FFE0
FFE0
7FC0
3F80
1F00
0E00
0400
ENDCHAR
STARTCHAR 25C7
ENCODING 9671
SWIDTH 585 0
DWIDTH 13 0
BBX 11 12 1 0
BITMAP
0400
0A00
1100
2080
4040
8020
8020
4040
2080
1100
0A00
0400
ENDCHAR
STARTCHAR 25CA
ENCODING 9674
SWIDTH 495 0
DWIDTH 11 0
BBX 9 13 1 1
BITMAP
0800
1800
1400
2200
4100
4100
8080
8100
4100
2200
2400
1400
0800
ENDCHAR
STARTCHAR 27E8
ENCODING 10216
SWIDTH 270 0
DWIDTH 6 0
BBX 4 19 1 -4
BITMAP
10
10
20
20
20
40
40
40
80
80
80
80
40
40
40
20
20
20
10
ENDCHAR
STARTCHAR 27E9
ENCODING 10217
SWIDTH 270 0
DWIDTH 6 0
BBX 3 18 2 -3
BITMAP
80
80
80
40
40
40
20
20
20
20
20
20
40
40
40
80
80
80
ENDCHAR
STARTCHAR A78B
ENCODING 42891
SWIDTH 180 0
DWIDTH 4 0
BBX 1 9 2 7
BITMAP
80
80
80
80
80
80
80
80
80
ENDCHAR
STARTCHAR A78C
ENCODING 42892
SWIDTH 180 0
DWIDTH 4 0
BBX 1 7 2 7
BITMAP
80
80
80
80
80
80
80
ENDCHAR
STARTCHAR FB01
ENCODING 64257
SWIDTH 540 0
DWIDTH 12 0
BBX 8 17 2 0
BITMAP
10
6D
80
80
80
80
F1
81
81
81
81
81
81
81
81
81
01
ENDCHAR
STARTCHAR FB02
ENCODING 64258
SWIDTH 540 0
DWIDTH 12 0
BBX 8 17 2 0
BITMAP
10
6D
81
81
81
81
F1
81
81
81
81
81
81
81
81
81
01
ENDCHAR
ENDFONT
